M48
INCH
T01C0.01
T02C0.0276
T03C0.0433
T04C0.129
%
T01
X+012440Y+005628
X+012128Y+005315
X+012503Y+005128
X+012690Y+004878
X+013190Y+004253
X+013698Y+004840
X+014440Y+004815
X+014815Y+005128
X+015315Y+005128
X+015815Y+005128
X+016190Y+004815
X+016565Y+005128
X+016878Y+004940
X+017065Y+005690
X+016878Y+006315
X+016378Y+006128
X+015753Y+006128
X+015003Y+006128
X+014964Y+006499
X+014378Y+006128
X+013698Y+005903
X+013503Y+006815
X+013120Y+006790
X+013370Y+007353
X+012620Y+007290
X+011995Y+007290
X+011245Y+007290
X+010620Y+008165
X+010683Y+008853
X+010683Y+009290
X+010183Y+009165
X+010183Y+009728
X+009565Y+010128
X+008995Y+009728
X+008995Y+009165
X+008628Y+009253
X+008870Y+008665
X+009190Y+008658
X+008503Y+008440
X+008190Y+008065
X+008183Y+007790
X+008183Y+007540
X+008165Y+007228
X+008165Y+006915
X+007745Y+006728
X+008620Y+006478
X+009378Y+006253
X+009628Y+006378
X+009503Y+005753
X+009378Y+005190
X+009245Y+004353
X+007815Y+004315
X+006003Y+006628
X+005503Y+007128
X+005315Y+008378
X+005308Y+008790
X+005878Y+008940
X+005690Y+009378
X+005253Y+009878
X+004878Y+010128
X+005065Y+010315
X+004878Y+010503
X+005065Y+010690
X+004878Y+010878
X+004503Y+010815
X+004253Y+011503
X+004378Y+009878
X+004253Y+009565
X+006878Y+009190
X+006940Y+007815
X+009065Y+007940
X+009440Y+007565
X+009065Y+007190
X+009815Y+007190
X+010183Y+006728
X+010433Y+006478
X+010495Y+006165
X+010745Y+005728
X+010753Y+005003
X+011378Y+005315
X+011690Y+004628
X+012128Y+004253
X+012753Y+006003
X+012183Y+006353
X+012245Y+008290
X+011683Y+008290
X+011308Y+009478
X+012120Y+009478
X+012870Y+009478
X+012808Y+008915
X+013308Y+008728
X+013683Y+008353
X+012933Y+008353
X+013870Y+009665
X+014620Y+009165
X+014558Y+008228
X+014964Y+008074
X+017065Y+007253
X+017940Y+007315
X+018628Y+007440
X+018690Y+008253
X+018628Y+009940
X+016440Y+012565
X+015628Y+012128
X+014940Y+012815
X+013753Y+012815
X+012503Y+012003
X+012253Y+012003
X+012003Y+012003
X+012253Y+011503
X+011440Y+012065
X+011440Y+013003
X+011503Y+014128
X+012378Y+014440
X+012378Y+014690
X+012378Y+014940
X+012378Y+015190
X+012815Y+015815
X+013200Y+016065
X+013628Y+015190
X+013628Y+014940
X+013628Y+014690
X+013628Y+014440
X+016003Y+014815
X+015815Y+016065
X+016503Y+018065
X+018190Y+018128
X+018503Y+019440
X+018628Y+020378
X+017940Y+020378
X+017065Y+020378
X+016816Y+020941
X+016815Y+021503
X+017065Y+021940
X+016815Y+022440
X+016378Y+022565
X+015940Y+022565
X+015940Y+021753
X+014690Y+021690
X+014690Y+022128
X+014690Y+022565
X+013565Y+021378
X+013690Y+020440
X+014690Y+020753
X+014940Y+020253
X+015878Y+020253
X+014128Y+019440
X+013753Y+017503
X+011253Y+017065
X+011253Y+018378
X+011440Y+018815
X+010065Y+017940
X+009065Y+017190
X+009315Y+016503
X+009753Y+016253
X+010128Y+016065
X+010878Y+015565
X+010128Y+013878
X+008878Y+014253
X+008940Y+015753
X+008315Y+016440
X+006939Y+017127
X+005815Y+015253
X+005315Y+013690
X+004315Y+013315
X+006503Y+012003
X+006636Y+011684
X+007190Y+011565
X+007440Y+011065
X+007753Y+010690
X+008065Y+011503
X+007815Y+011878
X+008628Y+011253
X+010003Y+011315
X+010315Y+012440
X+014440Y+011315
X+009815Y+007940
X+004378Y+005878
X+004378Y+004503
X+015554Y+004531
X+018440Y+015690
X+016815Y+022940
X+012440Y+022440
X+011690Y+021065
X+009315Y+021128
X+009565Y+022565
X+009253Y+019378
X+004565Y+018190
X+004753Y+022378
T02
X+017690Y+019440
X+017690Y+018653
X+017440Y+009565
X+017440Y+008778
X+017440Y+007990
T03
X+018190Y+011190
X+018190Y+012190
X+018190Y+013190
X+018190Y+014190
X+018190Y+015190
X+018190Y+016190
X+018190Y+017190
T04
X+007483Y+013586
T00
M30
