G04 DipTrace 3.2.0.0*
G04 LFTlayout-Inner1.g2l*
%MOIN*%
G04 #@! TF.FileFunction,Copper,L2,Inr*
G04 #@! TF.Part,Single*
G04 #@! TA.AperFunction,CopperBalancing*
%ADD16C,0.006*%
G04 #@! TA.AperFunction,ViaPad*
%ADD18C,0.02*%
G04 #@! TA.AperFunction,ComponentPad*
%ADD33R,0.066929X0.066929*%
%ADD34C,0.066929*%
%ADD36C,0.057*%
%ADD37C,0.064*%
%ADD41C,0.22*%
%FSLAX26Y26*%
G04*
G70*
G90*
G75*
G01*
G04 Inner1*
%LPD*%
D18*
X1706516Y569016D3*
X775265Y1069016D3*
X806516Y1150265D3*
X1706516Y2194016D3*
X693927Y1712676D3*
X1006516Y1794016D3*
X1125265Y1837767D3*
X1144016Y1881516D3*
X818278Y754006D3*
X816508Y722757D3*
X919016Y865768D3*
X663553Y1168423D3*
X887028Y866507D3*
X650265Y1200265D3*
X962765Y637767D3*
X744015Y1106517D3*
X437765Y987767D3*
X950265Y575267D3*
X569015Y937765D3*
X816506Y691506D3*
X487764Y1087765D3*
X819016Y806516D3*
X450265Y1081516D3*
X1018278Y672756D3*
X931516Y1650265D3*
X975265Y1625267D3*
X581516Y1525267D3*
X831516Y1644016D3*
D3*
X487764Y1050265D3*
X818278Y779007D3*
X1562765Y1212767D3*
X587764Y894015D3*
X531516Y837767D3*
X1281516Y1581516D3*
X1600267Y1481516D3*
X1281516Y1581516D3*
X1075267Y500267D3*
X1250267Y512767D3*
X1319950Y1606517D3*
X1012765D3*
Y1387767D3*
X781516Y1187765D3*
X1581516Y1606517D3*
X1319950D3*
X1244016Y562765D3*
X1280778Y891507D3*
X1018277Y916507D3*
X899529D3*
X506512Y1069015D3*
X1137765Y531516D3*
X1212765D3*
X1369754Y484026D3*
X1481516Y512767D3*
X1581516D3*
X1656516D3*
X1319016Y425267D3*
X1455778Y822757D3*
X1330778Y872756D3*
X1293277Y835255D3*
X1368277D3*
X1312028Y679006D3*
X1218278Y635256D3*
X1369754Y590276D3*
X1350265Y681516D3*
X1269016Y487767D3*
X1637765Y612765D3*
X1575265D3*
X1500265D3*
X1555433Y453071D3*
X1437765Y612767D3*
X1496378Y649922D3*
Y807402D3*
X1337028Y735256D3*
X1224528Y829007D3*
X1168277D3*
X1124528Y729006D3*
X1199528Y729007D3*
X1262028D3*
X1062029Y816506D3*
X550265Y712767D3*
X899528Y972756D3*
X1018277D3*
X1130778Y947756D3*
X1212029D3*
X1150265Y1412767D3*
X1444016Y1131516D3*
X1043278Y647756D3*
X525263Y987765D3*
X506512Y1031517D3*
X487763Y1012765D3*
X687765Y919016D3*
X694016Y781516D3*
X425265Y956516D3*
X887765Y1425267D3*
X1144016Y1300267D3*
Y1206517D3*
X956516Y1012767D3*
X1225267Y1150265D3*
X600265Y662767D3*
X774528Y672756D3*
X862028Y647756D3*
X937765Y519016D3*
X437765Y450267D3*
Y587767D3*
X781516Y431516D3*
X924528Y435256D3*
X1212765Y425267D3*
X1444017Y481516D3*
X1619017D3*
X1862767Y744016D3*
X1869016Y825265D3*
X1644016Y1256516D3*
X1462029Y916507D3*
X1387029Y966506D3*
X1287028Y947756D3*
X850265Y844016D3*
X431516Y1331516D3*
X944016Y756516D3*
X894016Y1575267D3*
X531516Y1369016D3*
X1250267Y1200265D3*
X1225267D3*
X1200268D3*
X1074528Y572756D3*
X1049528Y616507D3*
X1531516Y512767D3*
X1687765Y631516D3*
Y494016D3*
X937765Y625267D3*
X906516Y794016D3*
Y719016D3*
X981516Y794016D3*
Y719016D3*
X1681516Y2244016D3*
X1637765Y2256516D3*
X1594016D3*
X1237765Y1519016D3*
X1469016Y2256516D3*
Y2212765D3*
Y2169016D3*
X1237765Y1469016D3*
X1594016Y2175265D3*
X1494016Y2025265D3*
X1681516Y2150267D3*
X1706516Y2037767D3*
X1794016D3*
X1862767D3*
X1681516Y2294016D3*
X1244016Y2244016D3*
X1356516Y2137767D3*
X1469016Y2075265D3*
X956516Y2256516D3*
X931516Y2112765D3*
X1494016Y1281516D3*
X1375265Y1750267D3*
X1412767Y1944016D3*
X1587767Y2025265D3*
X1375265Y1281516D3*
X906516Y1719016D3*
X425265Y1150267D3*
X719013Y1156516D3*
X1275265Y600267D3*
X1169016Y462767D3*
X1794016Y731516D3*
X1706516Y725265D3*
X862765Y1125267D3*
X1000267Y1131516D3*
X1031516Y1244016D3*
X1362769Y1469016D3*
X1681575Y2094108D3*
X475265Y2237765D3*
X1169016Y2106516D3*
X1369016Y2044016D3*
X530777Y879006D3*
X1362768Y1519016D3*
X456516Y1819016D3*
X1125265Y1706516D3*
X925265Y1937767D3*
X1087765Y1556516D3*
X1068278Y885256D3*
Y929008D3*
X1819016Y1812767D3*
X1650265Y1806516D3*
X1850265Y1944016D3*
X1862767Y994016D3*
X1237765Y1494016D3*
X862765Y925267D3*
X1844016Y1569016D3*
X1362767Y1494016D3*
X1237767Y1444015D3*
X1362767D3*
X413622Y2319147D2*
D16*
X1874418D1*
X413622Y2313278D2*
X1874418D1*
X413622Y2307410D2*
X1874418D1*
X413622Y2301541D2*
X1874418D1*
X413622Y2295672D2*
X1874418D1*
X413622Y2289803D2*
X1874418D1*
X413622Y2283935D2*
X1874418D1*
X413622Y2278066D2*
X1874418D1*
X413622Y2272197D2*
X1874418D1*
X413622Y2266328D2*
X1874418D1*
X413622Y2260460D2*
X1874418D1*
X413622Y2254591D2*
X1874418D1*
X413622Y2248722D2*
X1874418D1*
X413622Y2242853D2*
X1874418D1*
X413622Y2236985D2*
X1874418D1*
X413622Y2231116D2*
X1874418D1*
X413622Y2225247D2*
X1696914D1*
X413622Y2219378D2*
X1693492D1*
X413622Y2213509D2*
X1685488D1*
X413622Y2207641D2*
X1681176D1*
X413622Y2201772D2*
X1678761D1*
X413622Y2195903D2*
X1677742D1*
X413622Y2190034D2*
X1677953D1*
X413622Y2184166D2*
X1679453D1*
X413622Y2178297D2*
X1382933D1*
X1405099D2*
X1682453D1*
X413622Y2172428D2*
X1379840D1*
X1408192D2*
X1687715D1*
X413622Y2166559D2*
X1379418D1*
X1408614D2*
X1696914D1*
X413622Y2160691D2*
X1379418D1*
X1408614D2*
X1696914D1*
X413622Y2154822D2*
X1379418D1*
X1408614D2*
X1874418D1*
X413622Y2148953D2*
X1379418D1*
X1408614D2*
X1874418D1*
X413622Y2143084D2*
X1379418D1*
X1408614D2*
X1874418D1*
X413622Y2137215D2*
X1379418D1*
X1408614D2*
X1874418D1*
X413622Y2131347D2*
X1379418D1*
X1408614D2*
X1874418D1*
X413622Y2125478D2*
X1379418D1*
X1408614D2*
X1874418D1*
X413622Y2119609D2*
X1379418D1*
X1408614D2*
X1874418D1*
X413622Y2113740D2*
X1379418D1*
X1408614D2*
X1874418D1*
X413622Y2107872D2*
X1379418D1*
X1408614D2*
X1874418D1*
X413622Y2102003D2*
X1379418D1*
X1408614D2*
X1874418D1*
X413622Y2096134D2*
X1379418D1*
X1408614D2*
X1874418D1*
X413622Y2090265D2*
X1379418D1*
X1408614D2*
X1874418D1*
X413622Y2084397D2*
X1379418D1*
X1408614D2*
X1874418D1*
X413622Y2078528D2*
X1379418D1*
X1408614D2*
X1874418D1*
X413622Y2072659D2*
X1379418D1*
X1408614D2*
X1874418D1*
X413622Y2066790D2*
X1379418D1*
X1408614D2*
X1874418D1*
X413622Y2060922D2*
X1379418D1*
X1408614D2*
X1874418D1*
X413622Y2055053D2*
X1379418D1*
X1408614D2*
X1874418D1*
X413622Y2049184D2*
X1379418D1*
X1408614D2*
X1874418D1*
X413622Y2043315D2*
X1379418D1*
X1408614D2*
X1874418D1*
X413622Y2037446D2*
X1379418D1*
X1408614D2*
X1874418D1*
X413622Y2031578D2*
X1379418D1*
X1408614D2*
X1874418D1*
X413622Y2025709D2*
X1379418D1*
X1408614D2*
X1874418D1*
X413622Y2019840D2*
X1379418D1*
X1408614D2*
X1874418D1*
X413622Y2013971D2*
X1379418D1*
X1408614D2*
X1874418D1*
X413622Y2008103D2*
X1379418D1*
X1408614D2*
X1874418D1*
X413622Y2002234D2*
X1379418D1*
X413622Y1996365D2*
X1379418D1*
X413622Y1990496D2*
X1379864D1*
X413622Y1984628D2*
X1383028D1*
X413622Y1978759D2*
X1753680D1*
X1784352D2*
X1874418D1*
X413622Y1972890D2*
X1744117D1*
X1793915D2*
X1874418D1*
X413622Y1967021D2*
X1738504D1*
X1799528D2*
X1874418D1*
X413622Y1961152D2*
X1734789D1*
X1803243D2*
X1874418D1*
X413622Y1955284D2*
X1732398D1*
X1805634D2*
X1874418D1*
X413622Y1949415D2*
X1731062D1*
X1806970D2*
X1874418D1*
X413622Y1943546D2*
X1730676D1*
X1807356D2*
X1874418D1*
X413622Y1937677D2*
X1731215D1*
X1806817D2*
X1874418D1*
X413622Y1931809D2*
X1732704D1*
X1805328D2*
X1874418D1*
X413622Y1925940D2*
X1735281D1*
X1802751D2*
X1874418D1*
X413622Y1920071D2*
X1739242D1*
X1798790D2*
X1874418D1*
X413622Y1914202D2*
X1745277D1*
X1792755D2*
X1874418D1*
X413622Y1908334D2*
X1756129D1*
X1781903D2*
X1874418D1*
X413622Y1902465D2*
X1761988D1*
X1776044D2*
X1874418D1*
X413622Y1896596D2*
X1131473D1*
X1156567D2*
X1747364D1*
X1790668D2*
X1874418D1*
X413622Y1890727D2*
X1126528D1*
X1161512D2*
X1740554D1*
X1797478D2*
X1874418D1*
X413622Y1884859D2*
X1124465D1*
X1163563D2*
X1736149D1*
X1801883D2*
X1874418D1*
X413622Y1878990D2*
X1124348D1*
X1163692D2*
X1733254D1*
X1804778D2*
X1874418D1*
X413622Y1873121D2*
X1126105D1*
X1161923D2*
X1731496D1*
X1806536D2*
X1874418D1*
X413622Y1867252D2*
X1130500D1*
X1157528D2*
X1730722D1*
X1807310D2*
X1874418D1*
X413622Y1861383D2*
X1730876D1*
X1807156D2*
X1874418D1*
X413622Y1855515D2*
X1117234D1*
X1133294D2*
X1731965D1*
X1806067D2*
X1874418D1*
X413622Y1849646D2*
X1109536D1*
X1141004D2*
X1734062D1*
X1803970D2*
X1874418D1*
X413622Y1843777D2*
X1106382D1*
X1144146D2*
X1737402D1*
X1800630D2*
X1874418D1*
X413622Y1837908D2*
X1105422D1*
X1145107D2*
X1742429D1*
X1795603D2*
X1874418D1*
X413622Y1832040D2*
X1106301D1*
X1144239D2*
X1750540D1*
X1787492D2*
X1874418D1*
X413622Y1826171D2*
X1109313D1*
X1141215D2*
X1874418D1*
X413622Y1820302D2*
X1116589D1*
X1133939D2*
X1874418D1*
X413622Y1814433D2*
X1874418D1*
X413622Y1808565D2*
X993320D1*
X1019704D2*
X1874418D1*
X413622Y1802696D2*
X988750D1*
X1024286D2*
X1874418D1*
X413622Y1796827D2*
X986886D1*
X1026150D2*
X1874418D1*
X413622Y1790958D2*
X986922D1*
X1026114D2*
X1874418D1*
X413622Y1785089D2*
X988868D1*
X1024156D2*
X1874418D1*
X413622Y1779221D2*
X993613D1*
X1019411D2*
X1874418D1*
X413622Y1773352D2*
X1874418D1*
X413622Y1767483D2*
X1874418D1*
X413622Y1761614D2*
X1815402D1*
X1822626D2*
X1874418D1*
X413622Y1755746D2*
X1796629D1*
X1841399D2*
X1874418D1*
X413622Y1749877D2*
X1788894D1*
X1849134D2*
X1874418D1*
X413622Y1744008D2*
X1783785D1*
X1854243D2*
X1874418D1*
X413622Y1738139D2*
X903801D1*
X909231D2*
X1780234D1*
X1857794D2*
X1874418D1*
X413622Y1732271D2*
X891965D1*
X921067D2*
X1777820D1*
X1860208D2*
X1874418D1*
X413622Y1726402D2*
X679844D1*
X708008D2*
X888145D1*
X924887D2*
X1776356D1*
X1861672D2*
X1874418D1*
X413622Y1720533D2*
X675765D1*
X712087D2*
X886738D1*
X926294D2*
X1775734D1*
X1862294D2*
X1874418D1*
X413622Y1714664D2*
X674196D1*
X713668D2*
X887172D1*
X925860D2*
X1775933D1*
X1862095D2*
X1874418D1*
X413622Y1708796D2*
X674477D1*
X713376D2*
X889609D1*
X923423D2*
X1776953D1*
X1861075D2*
X1874418D1*
X413622Y1702927D2*
X676738D1*
X711114D2*
X895364D1*
X917668D2*
X1778864D1*
X1859176D2*
X1874418D1*
X413622Y1697058D2*
X682093D1*
X705759D2*
X1781793D1*
X1856247D2*
X1874418D1*
X413622Y1691189D2*
X1786024D1*
X1852004D2*
X1874418D1*
X413622Y1685320D2*
X1792176D1*
X1845852D2*
X1874418D1*
X413622Y1679452D2*
X1802348D1*
X1835692D2*
X1874418D1*
X413622Y1673583D2*
X1874418D1*
X413622Y1667714D2*
X922809D1*
X940227D2*
X1874418D1*
X413622Y1661845D2*
X823680D1*
X839352D2*
X915554D1*
X947482D2*
X1874418D1*
X413622Y1655977D2*
X815840D1*
X847192D2*
X912544D1*
X950492D2*
X1797028D1*
X1841012D2*
X1874418D1*
X413622Y1650108D2*
X812664D1*
X850368D2*
X911676D1*
X951360D2*
X1789141D1*
X1848887D2*
X1874418D1*
X413622Y1644239D2*
X811680D1*
X851352D2*
X912649D1*
X950387D2*
X971465D1*
X979063D2*
X1783961D1*
X1854079D2*
X1874418D1*
X413622Y1638370D2*
X812524D1*
X850508D2*
X915789D1*
X947235D2*
X960578D1*
X989950D2*
X1780352D1*
X1857688D2*
X1874418D1*
X413622Y1632502D2*
X815500D1*
X847532D2*
X923524D1*
X939512D2*
X956840D1*
X993688D2*
X1777902D1*
X1860138D2*
X1874418D1*
X413622Y1626633D2*
X822672D1*
X840360D2*
X955469D1*
X995059D2*
X1776390D1*
X1861638D2*
X1874418D1*
X413622Y1620764D2*
X955961D1*
X994567D2*
X999238D1*
X1026302D2*
X1306422D1*
X1333485D2*
X1567985D1*
X1595047D2*
X1775746D1*
X1862282D2*
X1874418D1*
X413622Y1614895D2*
X958457D1*
X1030684D2*
X1302028D1*
X1337868D2*
X1563601D1*
X1599431D2*
X1775910D1*
X1862118D2*
X1874418D1*
X413622Y1609026D2*
X964352D1*
X986176D2*
X993086D1*
X1032443D2*
X1300269D1*
X1339626D2*
X1561844D1*
X1601188D2*
X1776894D1*
X1861134D2*
X1874418D1*
X413622Y1603158D2*
X993226D1*
X1032314D2*
X1300410D1*
X1339496D2*
X1561973D1*
X1601059D2*
X1778769D1*
X1859271D2*
X1874418D1*
X413622Y1597289D2*
X995277D1*
X1030251D2*
X1269894D1*
X1293138D2*
X1302473D1*
X1337435D2*
X1564036D1*
X1598996D2*
X1781652D1*
X1856376D2*
X1874418D1*
X413622Y1591420D2*
X882965D1*
X905071D2*
X1000234D1*
X1025294D2*
X1264422D1*
X1298610D2*
X1307418D1*
X1332478D2*
X1568992D1*
X1594040D2*
X1785824D1*
X1852204D2*
X1874418D1*
X413622Y1585551D2*
X877152D1*
X910872D2*
X1262101D1*
X1300931D2*
X1791882D1*
X1846146D2*
X1874418D1*
X413622Y1579683D2*
X874692D1*
X913344D2*
X1261761D1*
X1301271D2*
X1801785D1*
X1836243D2*
X1874418D1*
X413622Y1573814D2*
X874234D1*
X913802D2*
X1263285D1*
X1299747D2*
X1874418D1*
X413622Y1567945D2*
X875629D1*
X912407D2*
X1267281D1*
X1295751D2*
X1874418D1*
X413622Y1562076D2*
X879414D1*
X908622D2*
X1874418D1*
X413622Y1556208D2*
X890781D1*
X897243D2*
X1797425D1*
X1840603D2*
X1874418D1*
X413622Y1550339D2*
X1789386D1*
X1848642D2*
X1874418D1*
X413622Y1544470D2*
X579730D1*
X583298D2*
X1784125D1*
X1853903D2*
X1874418D1*
X413622Y1538601D2*
X567050D1*
X595988D2*
X1780469D1*
X1857559D2*
X1874418D1*
X413622Y1532733D2*
X563184D1*
X599844D2*
X1777973D1*
X1860055D2*
X1874418D1*
X413622Y1526864D2*
X561742D1*
X601286D2*
X1776437D1*
X1861591D2*
X1874418D1*
X413622Y1520995D2*
X562152D1*
X600876D2*
X1775757D1*
X1862271D2*
X1874418D1*
X413622Y1515126D2*
X564566D1*
X598462D2*
X1775886D1*
X1862142D2*
X1874418D1*
X413622Y1509257D2*
X570250D1*
X592790D2*
X1776836D1*
X1861192D2*
X1874418D1*
X413622Y1503389D2*
X1778676D1*
X1859364D2*
X1874418D1*
X413622Y1497520D2*
X1588985D1*
X1611547D2*
X1781512D1*
X1856516D2*
X1874418D1*
X413622Y1491651D2*
X1583313D1*
X1617219D2*
X1785637D1*
X1852403D2*
X1874418D1*
X413622Y1485782D2*
X1580910D1*
X1619622D2*
X1791601D1*
X1846439D2*
X1874418D1*
X413622Y1479914D2*
X1580488D1*
X1620044D2*
X1801246D1*
X1836782D2*
X1874418D1*
X413622Y1474045D2*
X717965D1*
X778719D2*
X1581941D1*
X1618603D2*
X1874418D1*
X413622Y1468176D2*
X700761D1*
X795935D2*
X1585797D1*
X1614735D2*
X1874418D1*
X413622Y1462307D2*
X688925D1*
X807759D2*
X1598570D1*
X1601957D2*
X1874418D1*
X413622Y1456439D2*
X679609D1*
X817087D2*
X1797848D1*
X1840192D2*
X1874418D1*
X413622Y1450570D2*
X671876D1*
X824820D2*
X1789645D1*
X1848395D2*
X1874418D1*
X413622Y1444701D2*
X665277D1*
X831419D2*
X1784301D1*
X1853727D2*
X1874418D1*
X413622Y1438832D2*
X659547D1*
X837138D2*
X1780586D1*
X1857443D2*
X1874418D1*
X413622Y1432964D2*
X654554D1*
X842142D2*
X1778054D1*
X1859974D2*
X1874418D1*
X413622Y1427095D2*
X650149D1*
X846536D2*
X1776485D1*
X1861544D2*
X1874418D1*
X413622Y1421226D2*
X646293D1*
X850403D2*
X1775769D1*
X1862259D2*
X1874418D1*
X413622Y1415357D2*
X642894D1*
X853802D2*
X1775864D1*
X1862164D2*
X1874418D1*
X413622Y1409488D2*
X639918D1*
X856778D2*
X1776789D1*
X1861239D2*
X1874418D1*
X413622Y1403620D2*
X637340D1*
X859356D2*
X1001265D1*
X1024263D2*
X1778582D1*
X1859446D2*
X1874418D1*
X413622Y1397751D2*
X635125D1*
X861571D2*
X995722D1*
X1029817D2*
X1781382D1*
X1856646D2*
X1874418D1*
X413622Y1391882D2*
X633250D1*
X863446D2*
X993368D1*
X1032160D2*
X1785437D1*
X1852591D2*
X1874418D1*
X413622Y1386013D2*
X521898D1*
X541134D2*
X631704D1*
X864992D2*
X993004D1*
X1032524D2*
X1791309D1*
X1846719D2*
X1874418D1*
X413622Y1380145D2*
X515218D1*
X547814D2*
X630473D1*
X866223D2*
X994504D1*
X1031036D2*
X1800730D1*
X1837298D2*
X1874418D1*
X413622Y1374276D2*
X512406D1*
X550626D2*
X629547D1*
X867150D2*
X998453D1*
X1027087D2*
X1874418D1*
X413622Y1368407D2*
X511692D1*
X551340D2*
X628914D1*
X867782D2*
X1874418D1*
X413622Y1362538D2*
X512805D1*
X550227D2*
X628574D1*
X868122D2*
X1874418D1*
X413622Y1356670D2*
X516156D1*
X546876D2*
X628528D1*
X868168D2*
X1798269D1*
X1839759D2*
X1874418D1*
X413622Y1350801D2*
X524722D1*
X538310D2*
X628761D1*
X867935D2*
X1789890D1*
X1848138D2*
X1874418D1*
X413622Y1344932D2*
X629289D1*
X867407D2*
X1784477D1*
X1853563D2*
X1874418D1*
X413622Y1339063D2*
X630121D1*
X866575D2*
X1780715D1*
X1857324D2*
X1874418D1*
X413622Y1333194D2*
X631246D1*
X865450D2*
X1778137D1*
X1859903D2*
X1874418D1*
X413622Y1327326D2*
X632676D1*
X864020D2*
X1776532D1*
X1861508D2*
X1874418D1*
X413622Y1321457D2*
X634433D1*
X862263D2*
X1775781D1*
X1862247D2*
X1874418D1*
X413622Y1315588D2*
X636532D1*
X860164D2*
X1775852D1*
X1862188D2*
X1874418D1*
X413622Y1309719D2*
X638981D1*
X857715D2*
X1776730D1*
X1861298D2*
X1874418D1*
X413622Y1303851D2*
X641805D1*
X854880D2*
X1778500D1*
X1859540D2*
X1874418D1*
X413622Y1297982D2*
X645050D1*
X851634D2*
X1781254D1*
X1856786D2*
X1874418D1*
X413622Y1292113D2*
X648754D1*
X847943D2*
X1785250D1*
X1852778D2*
X1874418D1*
X413622Y1286244D2*
X652961D1*
X843735D2*
X1791040D1*
X1847000D2*
X1874418D1*
X413622Y1280376D2*
X657742D1*
X838954D2*
X1800238D1*
X1837802D2*
X1874418D1*
X413622Y1274507D2*
X663192D1*
X833504D2*
X1874418D1*
X413622Y1268638D2*
X669461D1*
X827223D2*
X1874418D1*
X413622Y1262769D2*
X676773D1*
X819923D2*
X1874418D1*
X413622Y1256901D2*
X685469D1*
X811227D2*
X1798704D1*
X1839324D2*
X1874418D1*
X413622Y1251032D2*
X696261D1*
X800435D2*
X1790160D1*
X1847880D2*
X1874418D1*
X413622Y1245163D2*
X710945D1*
X785739D2*
X1784652D1*
X1853376D2*
X1874418D1*
X413622Y1239294D2*
X1780832D1*
X1857196D2*
X1874418D1*
X413622Y1233425D2*
X1778218D1*
X1859820D2*
X1874418D1*
X413622Y1227557D2*
X1549856D1*
X1575676D2*
X1776578D1*
X1861462D2*
X1874418D1*
X413622Y1221688D2*
X1545121D1*
X1580411D2*
X1775793D1*
X1862235D2*
X1874418D1*
X413622Y1215819D2*
X638336D1*
X662188D2*
X1188344D1*
X1262188D2*
X1543164D1*
X1582356D2*
X1775828D1*
X1862200D2*
X1874418D1*
X413622Y1209950D2*
X633040D1*
X667485D2*
X1183047D1*
X1267496D2*
X1543129D1*
X1582403D2*
X1776684D1*
X1861344D2*
X1874418D1*
X413622Y1204082D2*
X630813D1*
X669723D2*
X770722D1*
X792314D2*
X1180809D1*
X1269723D2*
X1544992D1*
X1580528D2*
X1778406D1*
X1859622D2*
X1874418D1*
X413622Y1198213D2*
X630532D1*
X669992D2*
X764757D1*
X798278D2*
X1180540D1*
X1269992D2*
X1549586D1*
X1575946D2*
X1781125D1*
X1856915D2*
X1874418D1*
X413622Y1192344D2*
X632137D1*
X668399D2*
X762226D1*
X800798D2*
X1182133D1*
X1268399D2*
X1785062D1*
X1852966D2*
X1874418D1*
X413622Y1186475D2*
X636250D1*
X670814D2*
X761722D1*
X801314D2*
X1186246D1*
X1264286D2*
X1790757D1*
X1847271D2*
X1874418D1*
X413622Y1180607D2*
X648062D1*
X679040D2*
X763058D1*
X799978D2*
X1799746D1*
X1838282D2*
X1874418D1*
X413622Y1174738D2*
X644781D1*
X682320D2*
X766761D1*
X796275D2*
X1874418D1*
X413622Y1168869D2*
X643715D1*
X683387D2*
X777297D1*
X785739D2*
X801004D1*
X812024D2*
X1874418D1*
X413622Y1163000D2*
X644488D1*
X682614D2*
X791488D1*
X821540D2*
X1874418D1*
X413622Y1157131D2*
X647372D1*
X679731D2*
X787937D1*
X825091D2*
X1775712D1*
X1862317D2*
X1874418D1*
X413622Y1151263D2*
X654250D1*
X672852D2*
X786708D1*
X826332D2*
X1775712D1*
X1862317D2*
X1874418D1*
X413622Y1145394D2*
X787305D1*
X825723D2*
X1775712D1*
X1862317D2*
X1874418D1*
X413622Y1139525D2*
X789953D1*
X823075D2*
X1775712D1*
X1862317D2*
X1874418D1*
X413622Y1133656D2*
X796200D1*
X816828D2*
X1775712D1*
X1862317D2*
X1874418D1*
X413622Y1127788D2*
X1775712D1*
X1862317D2*
X1874418D1*
X413622Y1121919D2*
X731886D1*
X756150D2*
X1775712D1*
X1862317D2*
X1874418D1*
X413622Y1116050D2*
X726708D1*
X761328D2*
X1775712D1*
X1862317D2*
X1874418D1*
X413622Y1110181D2*
X724528D1*
X763496D2*
X1775712D1*
X1862317D2*
X1874418D1*
X413622Y1104313D2*
X477344D1*
X498184D2*
X724305D1*
X763731D2*
X1775712D1*
X1862317D2*
X1874418D1*
X413622Y1098444D2*
X440524D1*
X460004D2*
X471156D1*
X504372D2*
X725945D1*
X762079D2*
X1775712D1*
X1862317D2*
X1874418D1*
X413622Y1092575D2*
X433925D1*
X506996D2*
X730152D1*
X757872D2*
X1775712D1*
X1862317D2*
X1874418D1*
X413622Y1086706D2*
X431137D1*
X514672D2*
X767101D1*
X783431D2*
X1775712D1*
X1862317D2*
X1874418D1*
X413622Y1080838D2*
X430433D1*
X522290D2*
X759485D1*
X791047D2*
X1775712D1*
X1862317D2*
X1874418D1*
X413622Y1074969D2*
X431570D1*
X468958D2*
X472797D1*
X525407D2*
X756368D1*
X794164D2*
X1874418D1*
X413622Y1069100D2*
X434969D1*
X465559D2*
X482500D1*
X526356D2*
X755429D1*
X795103D2*
X1874418D1*
X413622Y1063231D2*
X443676D1*
X456852D2*
X472949D1*
X525466D2*
X756320D1*
X794212D2*
X1874418D1*
X413622Y1057362D2*
X469281D1*
X522419D2*
X759356D1*
X791176D2*
X1874418D1*
X413622Y1051494D2*
X467969D1*
X515059D2*
X766715D1*
X783817D2*
X1874418D1*
X413622Y1045625D2*
X468496D1*
X520192D2*
X1874418D1*
X413622Y1039756D2*
X471050D1*
X524492D2*
X1874418D1*
X413622Y1033887D2*
X477062D1*
X526204D2*
X1874418D1*
X413622Y1028019D2*
X475433D1*
X526028D2*
X1874418D1*
X413622Y1022150D2*
X470372D1*
X523919D2*
X1874418D1*
X413622Y1016281D2*
X468250D1*
X518856D2*
X1874418D1*
X413622Y1010412D2*
X468062D1*
X507454D2*
X1874418D1*
X413622Y1004544D2*
X427750D1*
X447782D2*
X469773D1*
X505755D2*
X1874418D1*
X413622Y998675D2*
X421317D1*
X454215D2*
X474062D1*
X501466D2*
X1874418D1*
X413622Y992806D2*
X418597D1*
X456935D2*
X1723820D1*
X1764208D2*
X1874418D1*
X413622Y986937D2*
X417936D1*
X457591D2*
X1715570D1*
X1772458D2*
X1874418D1*
X413622Y981068D2*
X419125D1*
X456407D2*
X1710285D1*
X1777755D2*
X1874418D1*
X413622Y975200D2*
X422593D1*
X452939D2*
X1706652D1*
X1781376D2*
X1874418D1*
X413622Y969331D2*
X431664D1*
X443868D2*
X1704215D1*
X1783814D2*
X1874418D1*
X413622Y963462D2*
X1702761D1*
X1785267D2*
X1874418D1*
X413622Y957593D2*
X1702188D1*
X1785840D2*
X1874418D1*
X413622Y951725D2*
X555180D1*
X582852D2*
X1702457D1*
X1785571D2*
X1874418D1*
X413622Y945856D2*
X550961D1*
X587071D2*
X1703582D1*
X1784458D2*
X1874418D1*
X413622Y939987D2*
X549309D1*
X588723D2*
X1705633D1*
X1782395D2*
X1874418D1*
X413622Y934118D2*
X549520D1*
X588500D2*
X891180D1*
X907872D2*
X1009925D1*
X1026630D2*
X1708785D1*
X1779243D2*
X1874418D1*
X413622Y928250D2*
X551688D1*
X586332D2*
X883692D1*
X915372D2*
X1002437D1*
X1034118D2*
X1713390D1*
X1774650D2*
X1874418D1*
X413622Y922381D2*
X556856D1*
X581164D2*
X880609D1*
X918454D2*
X999356D1*
X1037200D2*
X1720269D1*
X1767759D2*
X1874418D1*
X413622Y916512D2*
X879684D1*
X919368D2*
X998441D1*
X1038114D2*
X1729269D1*
X1758771D2*
X1874418D1*
X413622Y910643D2*
X577481D1*
X598040D2*
X880609D1*
X918454D2*
X999356D1*
X1037200D2*
X1278180D1*
X1283376D2*
X1718512D1*
X1769528D2*
X1874418D1*
X413622Y904775D2*
X571212D1*
X604310D2*
X883680D1*
X915383D2*
X1002425D1*
X1034130D2*
X1266250D1*
X1295317D2*
X1712242D1*
X1775786D2*
X1874418D1*
X413622Y898906D2*
X568550D1*
X606970D2*
X891156D1*
X907895D2*
X1009902D1*
X1026652D2*
X1262418D1*
X1299138D2*
X1708000D1*
X1780028D2*
X1874418D1*
X413622Y893037D2*
X567953D1*
X607579D2*
X1261000D1*
X1300555D2*
X1705105D1*
X1782923D2*
X1874418D1*
X413622Y887168D2*
X569184D1*
X606348D2*
X1261433D1*
X1300122D2*
X1703265D1*
X1784775D2*
X1874418D1*
X413622Y881299D2*
X572722D1*
X602810D2*
X874129D1*
X899927D2*
X907058D1*
X930970D2*
X1263872D1*
X1297684D2*
X1702328D1*
X1785700D2*
X1874418D1*
X413622Y875431D2*
X582180D1*
X593340D2*
X869382D1*
X936255D2*
X1269613D1*
X1291954D2*
X1702246D1*
X1785794D2*
X1874418D1*
X413622Y869562D2*
X867437D1*
X938482D2*
X1703008D1*
X1785032D2*
X1874418D1*
X413622Y863693D2*
X867390D1*
X938739D2*
X1704660D1*
X1783380D2*
X1874418D1*
X413622Y857824D2*
X869254D1*
X937146D2*
X1707320D1*
X1780708D2*
X1874418D1*
X413622Y851956D2*
X517925D1*
X545107D2*
X873836D1*
X900219D2*
X905020D1*
X933008D2*
X1711257D1*
X1776771D2*
X1874418D1*
X413622Y846087D2*
X513566D1*
X549466D2*
X1717024D1*
X1771004D2*
X1874418D1*
X413622Y840218D2*
X511832D1*
X551200D2*
X1726386D1*
X1761652D2*
X1874418D1*
X413622Y834349D2*
X511985D1*
X551047D2*
X1722121D1*
X1765919D2*
X1874418D1*
X413622Y828481D2*
X514070D1*
X548962D2*
X1714540D1*
X1773488D2*
X1874418D1*
X413622Y822612D2*
X519062D1*
X543970D2*
X807872D1*
X830152D2*
X1709582D1*
X1778458D2*
X1874418D1*
X413622Y816743D2*
X802117D1*
X835907D2*
X1706172D1*
X1781856D2*
X1874418D1*
X413622Y810874D2*
X799680D1*
X838356D2*
X1703910D1*
X1784118D2*
X1874418D1*
X413622Y805006D2*
X799234D1*
X838802D2*
X1702609D1*
X1785419D2*
X1874418D1*
X413622Y799137D2*
X685692D1*
X702336D2*
X800652D1*
X837383D2*
X1702176D1*
X1785852D2*
X1874418D1*
X413622Y793268D2*
X678180D1*
X709848D2*
X804461D1*
X833563D2*
X1702586D1*
X1785454D2*
X1874418D1*
X413622Y787399D2*
X675097D1*
X712931D2*
X800372D1*
X836188D2*
X1703852D1*
X1784176D2*
X1874418D1*
X413622Y781530D2*
X674172D1*
X713856D2*
X798601D1*
X837958D2*
X1706078D1*
X1781962D2*
X1874418D1*
X413622Y775662D2*
X675086D1*
X712943D2*
X798730D1*
X837828D2*
X1709441D1*
X1778587D2*
X1874418D1*
X413622Y769793D2*
X678156D1*
X709872D2*
X800793D1*
X835767D2*
X1714340D1*
X1773700D2*
X1874418D1*
X413622Y763924D2*
X685621D1*
X702407D2*
X801192D1*
X835368D2*
X1721781D1*
X1766247D2*
X1874418D1*
X413622Y758055D2*
X798872D1*
X837688D2*
X1738797D1*
X1749231D2*
X1874418D1*
X413622Y752187D2*
X798520D1*
X838028D2*
X1874418D1*
X413622Y746318D2*
X800044D1*
X836516D2*
X1874418D1*
X413622Y740449D2*
X804028D1*
X832532D2*
X1874418D1*
X413622Y734580D2*
X800734D1*
X832286D2*
X1874418D1*
X413622Y728712D2*
X538902D1*
X561630D2*
X797617D1*
X835403D2*
X1874418D1*
X413622Y722843D2*
X533277D1*
X567255D2*
X796668D1*
X836352D2*
X1874418D1*
X413622Y716974D2*
X530886D1*
X569646D2*
X797558D1*
X835462D2*
X1874418D1*
X413622Y711105D2*
X530500D1*
X570032D2*
X800593D1*
X832415D2*
X1874418D1*
X413622Y705236D2*
X531965D1*
X568567D2*
X802433D1*
X830587D2*
X1874418D1*
X413622Y699368D2*
X535856D1*
X564676D2*
X798344D1*
X834664D2*
X1874418D1*
X413622Y693499D2*
X796773D1*
X836247D2*
X1874418D1*
X413622Y687630D2*
X797054D1*
X835954D2*
X1005473D1*
X1031083D2*
X1874418D1*
X413622Y681761D2*
X799317D1*
X833692D2*
X1000680D1*
X1035876D2*
X1874418D1*
X413622Y675893D2*
X804660D1*
X828348D2*
X998700D1*
X1037856D2*
X1874418D1*
X413622Y670024D2*
X998629D1*
X1037927D2*
X1874418D1*
X413622Y664155D2*
X1000469D1*
X1036087D2*
X1874418D1*
X413622Y658286D2*
X1004992D1*
X1031563D2*
X1874418D1*
X413622Y652418D2*
X949692D1*
X975840D2*
X1874418D1*
X413622Y646549D2*
X945050D1*
X980482D2*
X1874418D1*
X413622Y640680D2*
X943152D1*
X982380D2*
X1874418D1*
X413622Y634811D2*
X943152D1*
X982380D2*
X1874418D1*
X413622Y628943D2*
X945062D1*
X980458D2*
X1874418D1*
X413622Y623074D2*
X949738D1*
X975782D2*
X1874418D1*
X413622Y617205D2*
X1874418D1*
X413622Y611336D2*
X1874418D1*
X413622Y605467D2*
X1874418D1*
X413622Y599599D2*
X1709418D1*
X413622Y593730D2*
X944254D1*
X956282D2*
X1692250D1*
X413622Y587861D2*
X935125D1*
X965411D2*
X1684880D1*
X413622Y581992D2*
X931645D1*
X968891D2*
X1242708D1*
X1245319D2*
X1680836D1*
X413622Y576124D2*
X930449D1*
X970087D2*
X1229570D1*
X1258462D2*
X1678586D1*
X413622Y570255D2*
X931093D1*
X969443D2*
X1225692D1*
X1262340D2*
X1677708D1*
X413622Y564386D2*
X933801D1*
X966735D2*
X1224250D1*
X1263782D2*
X1678058D1*
X413622Y558517D2*
X940200D1*
X960336D2*
X1224649D1*
X1263383D2*
X1679700D1*
X413622Y552649D2*
X1227050D1*
X1260982D2*
X1682898D1*
X413622Y546780D2*
X1232712D1*
X1255320D2*
X1688512D1*
X413622Y540911D2*
X1703160D1*
X413622Y535042D2*
X1709418D1*
X413622Y529173D2*
X1239613D1*
X1260911D2*
X1874418D1*
X413622Y523305D2*
X1233566D1*
X1266970D2*
X1874418D1*
X413622Y517436D2*
X1065988D1*
X1084544D2*
X1231000D1*
X1269536D2*
X1874418D1*
X413622Y511567D2*
X1059097D1*
X1091435D2*
X1230461D1*
X1270075D2*
X1874418D1*
X413622Y505698D2*
X1056215D1*
X1094328D2*
X1231773D1*
X1268763D2*
X1874418D1*
X413622Y499830D2*
X1055429D1*
X1095103D2*
X1235429D1*
X1265107D2*
X1874418D1*
X413622Y493961D2*
X1056485D1*
X1094047D2*
X1245601D1*
X1254935D2*
X1874418D1*
X413622Y488092D2*
X1059765D1*
X1090767D2*
X1874418D1*
X413622Y482223D2*
X1067981D1*
X1082551D2*
X1874418D1*
X413622Y476355D2*
X1874418D1*
X413622Y470486D2*
X1874418D1*
X413622Y464617D2*
X1874418D1*
X413622Y458748D2*
X1874418D1*
X413622Y452880D2*
X1874418D1*
X413622Y447011D2*
X1874418D1*
X413622Y441142D2*
X1874418D1*
X413622Y435273D2*
X1874418D1*
X413622Y429404D2*
X1874418D1*
X413622Y423536D2*
X1874418D1*
X413622Y417667D2*
X1874418D1*
X1776911Y1161721D2*
X1861721D1*
Y1076311D1*
X1776311D1*
Y1161721D1*
X1776911D1*
X1861616Y1216019D2*
X1861299Y1213036D1*
X1860776Y1210083D1*
X1860046Y1207173D1*
X1859113Y1204323D1*
X1857983Y1201545D1*
X1856660Y1198852D1*
X1855152Y1196260D1*
X1853466Y1193780D1*
X1851609Y1191423D1*
X1849592Y1189204D1*
X1847424Y1187131D1*
X1845116Y1185215D1*
X1842679Y1183467D1*
X1840125Y1181894D1*
X1837467Y1180503D1*
X1834719Y1179303D1*
X1831893Y1178299D1*
X1829003Y1177495D1*
X1826063Y1176897D1*
X1823089Y1176507D1*
X1820096Y1176326D1*
X1817097Y1176355D1*
X1814107Y1176595D1*
X1811142Y1177044D1*
X1808214Y1177700D1*
X1805341Y1178561D1*
X1802536Y1179620D1*
X1799811Y1180874D1*
X1797181Y1182315D1*
X1794659Y1183939D1*
X1792256Y1185735D1*
X1789986Y1187696D1*
X1787860Y1189810D1*
X1785886Y1192070D1*
X1784076Y1194461D1*
X1782440Y1196974D1*
X1780982Y1199596D1*
X1779713Y1202314D1*
X1778638Y1205113D1*
X1777761Y1207982D1*
X1777088Y1210906D1*
X1776622Y1213868D1*
X1776366Y1216857D1*
X1776319Y1219856D1*
X1776485Y1222851D1*
X1776859Y1225827D1*
X1777440Y1228769D1*
X1778227Y1231663D1*
X1779215Y1234495D1*
X1780401Y1237251D1*
X1781776Y1239916D1*
X1783334Y1242478D1*
X1785068Y1244925D1*
X1786971Y1247244D1*
X1789032Y1249424D1*
X1791240Y1251453D1*
X1793586Y1253323D1*
X1796057Y1255024D1*
X1798641Y1256546D1*
X1801326Y1257883D1*
X1804097Y1259029D1*
X1806943Y1259978D1*
X1809848Y1260725D1*
X1812798Y1261265D1*
X1815778Y1261597D1*
X1818776Y1261719D1*
X1821773Y1261631D1*
X1824757Y1261332D1*
X1827714Y1260826D1*
X1830628Y1260112D1*
X1833483Y1259196D1*
X1836268Y1258080D1*
X1838967Y1256773D1*
X1841568Y1255280D1*
X1844058Y1253608D1*
X1846424Y1251764D1*
X1848655Y1249760D1*
X1850740Y1247604D1*
X1852670Y1245306D1*
X1854431Y1242880D1*
X1856019Y1240334D1*
X1857424Y1237684D1*
X1858639Y1234943D1*
X1859660Y1232122D1*
X1860479Y1229236D1*
X1861095Y1226301D1*
X1861502Y1223330D1*
X1861721Y1219016D1*
X1861616Y1216019D1*
Y1316019D2*
X1861299Y1313036D1*
X1860776Y1310083D1*
X1860046Y1307173D1*
X1859113Y1304323D1*
X1857983Y1301545D1*
X1856660Y1298852D1*
X1855152Y1296260D1*
X1853466Y1293780D1*
X1851609Y1291423D1*
X1849592Y1289204D1*
X1847424Y1287131D1*
X1845116Y1285215D1*
X1842679Y1283467D1*
X1840125Y1281894D1*
X1837467Y1280503D1*
X1834719Y1279303D1*
X1831893Y1278299D1*
X1829003Y1277495D1*
X1826063Y1276897D1*
X1823089Y1276507D1*
X1820096Y1276326D1*
X1817097Y1276355D1*
X1814107Y1276595D1*
X1811142Y1277044D1*
X1808214Y1277700D1*
X1805341Y1278561D1*
X1802536Y1279620D1*
X1799811Y1280874D1*
X1797181Y1282315D1*
X1794659Y1283939D1*
X1792256Y1285735D1*
X1789986Y1287696D1*
X1787860Y1289810D1*
X1785886Y1292070D1*
X1784076Y1294461D1*
X1782440Y1296974D1*
X1780982Y1299596D1*
X1779713Y1302314D1*
X1778638Y1305113D1*
X1777761Y1307982D1*
X1777088Y1310906D1*
X1776622Y1313868D1*
X1776366Y1316857D1*
X1776319Y1319856D1*
X1776485Y1322851D1*
X1776859Y1325827D1*
X1777440Y1328769D1*
X1778227Y1331663D1*
X1779215Y1334495D1*
X1780401Y1337251D1*
X1781776Y1339916D1*
X1783334Y1342478D1*
X1785068Y1344925D1*
X1786971Y1347244D1*
X1789032Y1349424D1*
X1791240Y1351453D1*
X1793586Y1353323D1*
X1796057Y1355024D1*
X1798641Y1356546D1*
X1801326Y1357883D1*
X1804097Y1359029D1*
X1806943Y1359978D1*
X1809848Y1360725D1*
X1812798Y1361265D1*
X1815778Y1361597D1*
X1818776Y1361719D1*
X1821773Y1361631D1*
X1824757Y1361332D1*
X1827714Y1360826D1*
X1830628Y1360112D1*
X1833483Y1359196D1*
X1836268Y1358080D1*
X1838967Y1356773D1*
X1841568Y1355280D1*
X1844058Y1353608D1*
X1846424Y1351764D1*
X1848655Y1349760D1*
X1850740Y1347604D1*
X1852670Y1345306D1*
X1854431Y1342880D1*
X1856019Y1340334D1*
X1857424Y1337684D1*
X1858639Y1334943D1*
X1859660Y1332122D1*
X1860479Y1329236D1*
X1861095Y1326301D1*
X1861502Y1323330D1*
X1861721Y1319016D1*
X1861616Y1316019D1*
Y1416019D2*
X1861299Y1413036D1*
X1860776Y1410083D1*
X1860046Y1407173D1*
X1859113Y1404323D1*
X1857983Y1401545D1*
X1856660Y1398852D1*
X1855152Y1396260D1*
X1853466Y1393780D1*
X1851609Y1391423D1*
X1849592Y1389204D1*
X1847424Y1387131D1*
X1845116Y1385215D1*
X1842679Y1383467D1*
X1840125Y1381894D1*
X1837467Y1380503D1*
X1834719Y1379303D1*
X1831893Y1378299D1*
X1829003Y1377495D1*
X1826063Y1376897D1*
X1823089Y1376507D1*
X1820096Y1376326D1*
X1817097Y1376355D1*
X1814107Y1376595D1*
X1811142Y1377044D1*
X1808214Y1377700D1*
X1805341Y1378561D1*
X1802536Y1379620D1*
X1799811Y1380874D1*
X1797181Y1382315D1*
X1794659Y1383939D1*
X1792256Y1385735D1*
X1789986Y1387696D1*
X1787860Y1389810D1*
X1785886Y1392070D1*
X1784076Y1394461D1*
X1782440Y1396974D1*
X1780982Y1399596D1*
X1779713Y1402314D1*
X1778638Y1405113D1*
X1777761Y1407982D1*
X1777088Y1410906D1*
X1776622Y1413868D1*
X1776366Y1416857D1*
X1776319Y1419856D1*
X1776485Y1422851D1*
X1776859Y1425827D1*
X1777440Y1428769D1*
X1778227Y1431663D1*
X1779215Y1434495D1*
X1780401Y1437251D1*
X1781776Y1439916D1*
X1783334Y1442478D1*
X1785068Y1444925D1*
X1786971Y1447244D1*
X1789032Y1449424D1*
X1791240Y1451453D1*
X1793586Y1453323D1*
X1796057Y1455024D1*
X1798641Y1456546D1*
X1801326Y1457883D1*
X1804097Y1459029D1*
X1806943Y1459978D1*
X1809848Y1460725D1*
X1812798Y1461265D1*
X1815778Y1461597D1*
X1818776Y1461719D1*
X1821773Y1461631D1*
X1824757Y1461332D1*
X1827714Y1460826D1*
X1830628Y1460112D1*
X1833483Y1459196D1*
X1836268Y1458080D1*
X1838967Y1456773D1*
X1841568Y1455280D1*
X1844058Y1453608D1*
X1846424Y1451764D1*
X1848655Y1449760D1*
X1850740Y1447604D1*
X1852670Y1445306D1*
X1854431Y1442880D1*
X1856019Y1440334D1*
X1857424Y1437684D1*
X1858639Y1434943D1*
X1859660Y1432122D1*
X1860479Y1429236D1*
X1861095Y1426301D1*
X1861502Y1423330D1*
X1861721Y1419016D1*
X1861616Y1416019D1*
Y1516019D2*
X1861299Y1513036D1*
X1860776Y1510083D1*
X1860046Y1507173D1*
X1859113Y1504323D1*
X1857983Y1501545D1*
X1856660Y1498852D1*
X1855152Y1496260D1*
X1853466Y1493780D1*
X1851609Y1491423D1*
X1849592Y1489204D1*
X1847424Y1487131D1*
X1845116Y1485215D1*
X1842679Y1483467D1*
X1840125Y1481894D1*
X1837467Y1480503D1*
X1834719Y1479303D1*
X1831893Y1478299D1*
X1829003Y1477495D1*
X1826063Y1476897D1*
X1823089Y1476507D1*
X1820096Y1476326D1*
X1817097Y1476355D1*
X1814107Y1476595D1*
X1811142Y1477044D1*
X1808214Y1477700D1*
X1805341Y1478561D1*
X1802536Y1479620D1*
X1799811Y1480874D1*
X1797181Y1482315D1*
X1794659Y1483939D1*
X1792256Y1485735D1*
X1789986Y1487696D1*
X1787860Y1489810D1*
X1785886Y1492070D1*
X1784076Y1494461D1*
X1782440Y1496974D1*
X1780982Y1499596D1*
X1779713Y1502314D1*
X1778638Y1505113D1*
X1777761Y1507982D1*
X1777088Y1510906D1*
X1776622Y1513868D1*
X1776366Y1516857D1*
X1776319Y1519856D1*
X1776485Y1522851D1*
X1776859Y1525827D1*
X1777440Y1528769D1*
X1778227Y1531663D1*
X1779215Y1534495D1*
X1780401Y1537251D1*
X1781776Y1539916D1*
X1783334Y1542478D1*
X1785068Y1544925D1*
X1786971Y1547244D1*
X1789032Y1549424D1*
X1791240Y1551453D1*
X1793586Y1553323D1*
X1796057Y1555024D1*
X1798641Y1556546D1*
X1801326Y1557883D1*
X1804097Y1559029D1*
X1806943Y1559978D1*
X1809848Y1560725D1*
X1812798Y1561265D1*
X1815778Y1561597D1*
X1818776Y1561719D1*
X1821773Y1561631D1*
X1824757Y1561332D1*
X1827714Y1560826D1*
X1830628Y1560112D1*
X1833483Y1559196D1*
X1836268Y1558080D1*
X1838967Y1556773D1*
X1841568Y1555280D1*
X1844058Y1553608D1*
X1846424Y1551764D1*
X1848655Y1549760D1*
X1850740Y1547604D1*
X1852670Y1545306D1*
X1854431Y1542880D1*
X1856019Y1540334D1*
X1857424Y1537684D1*
X1858639Y1534943D1*
X1859660Y1532122D1*
X1860479Y1529236D1*
X1861095Y1526301D1*
X1861502Y1523330D1*
X1861721Y1519016D1*
X1861616Y1516019D1*
Y1616019D2*
X1861299Y1613036D1*
X1860776Y1610083D1*
X1860046Y1607173D1*
X1859113Y1604323D1*
X1857983Y1601545D1*
X1856660Y1598852D1*
X1855152Y1596260D1*
X1853466Y1593780D1*
X1851609Y1591423D1*
X1849592Y1589204D1*
X1847424Y1587131D1*
X1845116Y1585215D1*
X1842679Y1583467D1*
X1840125Y1581894D1*
X1837467Y1580503D1*
X1834719Y1579303D1*
X1831893Y1578299D1*
X1829003Y1577495D1*
X1826063Y1576897D1*
X1823089Y1576507D1*
X1820096Y1576326D1*
X1817097Y1576355D1*
X1814107Y1576595D1*
X1811142Y1577044D1*
X1808214Y1577700D1*
X1805341Y1578561D1*
X1802536Y1579620D1*
X1799811Y1580874D1*
X1797181Y1582315D1*
X1794659Y1583939D1*
X1792256Y1585735D1*
X1789986Y1587696D1*
X1787860Y1589810D1*
X1785886Y1592070D1*
X1784076Y1594461D1*
X1782440Y1596974D1*
X1780982Y1599596D1*
X1779713Y1602314D1*
X1778638Y1605113D1*
X1777761Y1607982D1*
X1777088Y1610906D1*
X1776622Y1613868D1*
X1776366Y1616857D1*
X1776319Y1619856D1*
X1776485Y1622851D1*
X1776859Y1625827D1*
X1777440Y1628769D1*
X1778227Y1631663D1*
X1779215Y1634495D1*
X1780401Y1637251D1*
X1781776Y1639916D1*
X1783334Y1642478D1*
X1785068Y1644925D1*
X1786971Y1647244D1*
X1789032Y1649424D1*
X1791240Y1651453D1*
X1793586Y1653323D1*
X1796057Y1655024D1*
X1798641Y1656546D1*
X1801326Y1657883D1*
X1804097Y1659029D1*
X1806943Y1659978D1*
X1809848Y1660725D1*
X1812798Y1661265D1*
X1815778Y1661597D1*
X1818776Y1661719D1*
X1821773Y1661631D1*
X1824757Y1661332D1*
X1827714Y1660826D1*
X1830628Y1660112D1*
X1833483Y1659196D1*
X1836268Y1658080D1*
X1838967Y1656773D1*
X1841568Y1655280D1*
X1844058Y1653608D1*
X1846424Y1651764D1*
X1848655Y1649760D1*
X1850740Y1647604D1*
X1852670Y1645306D1*
X1854431Y1642880D1*
X1856019Y1640334D1*
X1857424Y1637684D1*
X1858639Y1634943D1*
X1859660Y1632122D1*
X1860479Y1629236D1*
X1861095Y1626301D1*
X1861502Y1623330D1*
X1861721Y1619016D1*
X1861616Y1616019D1*
Y1716019D2*
X1861299Y1713036D1*
X1860776Y1710083D1*
X1860046Y1707173D1*
X1859113Y1704323D1*
X1857983Y1701545D1*
X1856660Y1698852D1*
X1855152Y1696260D1*
X1853466Y1693780D1*
X1851609Y1691423D1*
X1849592Y1689204D1*
X1847424Y1687131D1*
X1845116Y1685215D1*
X1842679Y1683467D1*
X1840125Y1681894D1*
X1837467Y1680503D1*
X1834719Y1679303D1*
X1831893Y1678299D1*
X1829003Y1677495D1*
X1826063Y1676897D1*
X1823089Y1676507D1*
X1820096Y1676326D1*
X1817097Y1676355D1*
X1814107Y1676595D1*
X1811142Y1677044D1*
X1808214Y1677700D1*
X1805341Y1678561D1*
X1802536Y1679620D1*
X1799811Y1680874D1*
X1797181Y1682315D1*
X1794659Y1683939D1*
X1792256Y1685735D1*
X1789986Y1687696D1*
X1787860Y1689810D1*
X1785886Y1692070D1*
X1784076Y1694461D1*
X1782440Y1696974D1*
X1780982Y1699596D1*
X1779713Y1702314D1*
X1778638Y1705113D1*
X1777761Y1707982D1*
X1777088Y1710906D1*
X1776622Y1713868D1*
X1776366Y1716857D1*
X1776319Y1719856D1*
X1776485Y1722851D1*
X1776859Y1725827D1*
X1777440Y1728769D1*
X1778227Y1731663D1*
X1779215Y1734495D1*
X1780401Y1737251D1*
X1781776Y1739916D1*
X1783334Y1742478D1*
X1785068Y1744925D1*
X1786971Y1747244D1*
X1789032Y1749424D1*
X1791240Y1751453D1*
X1793586Y1753323D1*
X1796057Y1755024D1*
X1798641Y1756546D1*
X1801326Y1757883D1*
X1804097Y1759029D1*
X1806943Y1759978D1*
X1809848Y1760725D1*
X1812798Y1761265D1*
X1815778Y1761597D1*
X1818776Y1761719D1*
X1821773Y1761631D1*
X1824757Y1761332D1*
X1827714Y1760826D1*
X1830628Y1760112D1*
X1833483Y1759196D1*
X1836268Y1758080D1*
X1838967Y1756773D1*
X1841568Y1755280D1*
X1844058Y1753608D1*
X1846424Y1751764D1*
X1848655Y1749760D1*
X1850740Y1747604D1*
X1852670Y1745306D1*
X1854431Y1742880D1*
X1856019Y1740334D1*
X1857424Y1737684D1*
X1858639Y1734943D1*
X1859660Y1732122D1*
X1860479Y1729236D1*
X1861095Y1726301D1*
X1861502Y1723330D1*
X1861721Y1719016D1*
X1861616Y1716019D1*
X1806751Y1943416D2*
X1806523Y1939824D1*
X1805953Y1936272D1*
X1805047Y1932789D1*
X1803814Y1929408D1*
X1802264Y1926160D1*
X1800412Y1923074D1*
X1798276Y1920179D1*
X1795872Y1917500D1*
X1793225Y1915063D1*
X1790357Y1912889D1*
X1787296Y1910998D1*
X1784067Y1909407D1*
X1780702Y1908131D1*
X1777231Y1907181D1*
X1773685Y1906566D1*
X1770097Y1906292D1*
X1766500Y1906360D1*
X1762924Y1906771D1*
X1759404Y1907520D1*
X1755973Y1908601D1*
X1752659Y1910006D1*
X1749494Y1911718D1*
X1746507Y1913723D1*
X1743723Y1916006D1*
X1741171Y1918542D1*
X1738870Y1921310D1*
X1736845Y1924284D1*
X1735112Y1927437D1*
X1733688Y1930743D1*
X1732584Y1934168D1*
X1731811Y1937683D1*
X1731377Y1941255D1*
X1731285Y1944852D1*
X1731537Y1948443D1*
X1732129Y1951991D1*
X1733055Y1955469D1*
X1734310Y1958841D1*
X1735880Y1962080D1*
X1737751Y1965154D1*
X1739907Y1968036D1*
X1742327Y1970698D1*
X1744990Y1973120D1*
X1747870Y1975276D1*
X1750944Y1977147D1*
X1754181Y1978718D1*
X1757554Y1979974D1*
X1752016Y1980016D1*
X1392918Y1980059D1*
X1390748Y1980403D1*
X1388659Y1981082D1*
X1386701Y1982079D1*
X1384924Y1983370D1*
X1383370Y1984924D1*
X1382079Y1986701D1*
X1381082Y1988659D1*
X1380403Y1990748D1*
X1380059Y1992918D1*
X1380016Y2006016D1*
X1380059Y2170114D1*
X1380403Y2172284D1*
X1381082Y2174373D1*
X1382079Y2176331D1*
X1383370Y2178108D1*
X1384924Y2179662D1*
X1386701Y2180953D1*
X1388659Y2181950D1*
X1390748Y2182629D1*
X1392918Y2182973D1*
X1395114D1*
X1397284Y2182629D1*
X1399373Y2181950D1*
X1401331Y2180953D1*
X1403108Y2179662D1*
X1404662Y2178108D1*
X1405953Y2176331D1*
X1406950Y2174373D1*
X1407629Y2172284D1*
X1407973Y2170114D1*
X1408016Y2157016D1*
Y2008012D1*
X1870114Y2007973D1*
X1872284Y2007629D1*
X1874373Y2006950D1*
X1875017Y2006654D1*
X1875016Y2160012D1*
X1697516Y2160016D1*
Y2167247D1*
X1693696Y2168855D1*
X1691760Y2169937D1*
X1689918Y2171170D1*
X1688176Y2172542D1*
X1686547Y2174047D1*
X1685042Y2175676D1*
X1683670Y2177418D1*
X1682437Y2179260D1*
X1681355Y2181196D1*
X1680425Y2183209D1*
X1679658Y2185289D1*
X1679057Y2187424D1*
X1678624Y2189599D1*
X1678362Y2191801D1*
X1678276Y2194016D1*
X1678362Y2196231D1*
X1678624Y2198433D1*
X1679057Y2200608D1*
X1679658Y2202743D1*
X1680425Y2204823D1*
X1681355Y2206836D1*
X1682437Y2208772D1*
X1683670Y2210614D1*
X1685042Y2212356D1*
X1686547Y2213985D1*
X1688176Y2215490D1*
X1689918Y2216862D1*
X1691760Y2218095D1*
X1693696Y2219177D1*
X1695709Y2220107D1*
X1697521Y2220775D1*
X1697516Y2228016D1*
X1875016D1*
Y2325012D1*
X413020Y2325016D1*
X413016Y413020D1*
X1875012Y413016D1*
X1875016Y535020D1*
X1710016Y535016D1*
Y541004D1*
X1706516Y540776D1*
X1704301Y540862D1*
X1702099Y541124D1*
X1699924Y541557D1*
X1697789Y542158D1*
X1695709Y542925D1*
X1693696Y543855D1*
X1691760Y544937D1*
X1689918Y546170D1*
X1688176Y547542D1*
X1686547Y549047D1*
X1685042Y550676D1*
X1683670Y552418D1*
X1682437Y554260D1*
X1681355Y556196D1*
X1680425Y558209D1*
X1679658Y560289D1*
X1679057Y562424D1*
X1678624Y564599D1*
X1678362Y566801D1*
X1678276Y569016D1*
X1678362Y571231D1*
X1678624Y573433D1*
X1679057Y575608D1*
X1679658Y577743D1*
X1680425Y579823D1*
X1681355Y581836D1*
X1682437Y583772D1*
X1683670Y585614D1*
X1685042Y587356D1*
X1686547Y588985D1*
X1688176Y590490D1*
X1689918Y591862D1*
X1691760Y593095D1*
X1693696Y594177D1*
X1695709Y595107D1*
X1697789Y595874D1*
X1699924Y596475D1*
X1702099Y596908D1*
X1704301Y597170D1*
X1706516Y597256D1*
X1710013Y597017D1*
X1710016Y603016D1*
X1875004D1*
X1875016Y1981372D1*
X1873343Y1980701D1*
X1871206Y1980188D1*
X1869016Y1980016D1*
X1780340D1*
X1783398Y1978908D1*
X1786655Y1977380D1*
X1789754Y1975549D1*
X1792662Y1973429D1*
X1795356Y1971044D1*
X1797810Y1968412D1*
X1800003Y1965559D1*
X1801914Y1962509D1*
X1803526Y1959292D1*
X1804824Y1955936D1*
X1805797Y1952471D1*
X1806435Y1948929D1*
X1806733Y1945343D1*
X1806751Y1943416D1*
X1806639Y1862315D2*
X1806292Y1859372D1*
X1805713Y1856466D1*
X1804908Y1853613D1*
X1803883Y1850834D1*
X1802642Y1848142D1*
X1801194Y1845557D1*
X1799549Y1843093D1*
X1797714Y1840765D1*
X1795702Y1838589D1*
X1793526Y1836578D1*
X1791198Y1834743D1*
X1788735Y1833097D1*
X1786150Y1831650D1*
X1783458Y1830408D1*
X1780679Y1829383D1*
X1777826Y1828579D1*
X1774920Y1828000D1*
X1771977Y1827652D1*
X1769016Y1827536D1*
X1766055Y1827652D1*
X1763112Y1828000D1*
X1760206Y1828579D1*
X1757353Y1829383D1*
X1754574Y1830408D1*
X1751882Y1831650D1*
X1749297Y1833097D1*
X1746834Y1834743D1*
X1744506Y1836578D1*
X1742330Y1838589D1*
X1740318Y1840765D1*
X1738483Y1843093D1*
X1736838Y1845557D1*
X1735390Y1848142D1*
X1734149Y1850834D1*
X1733124Y1853613D1*
X1732319Y1856466D1*
X1731740Y1859372D1*
X1731393Y1862315D1*
X1731276Y1865276D1*
X1731393Y1868236D1*
X1731740Y1871180D1*
X1732319Y1874086D1*
X1733124Y1876939D1*
X1734149Y1879718D1*
X1735390Y1882410D1*
X1736838Y1884995D1*
X1738483Y1887458D1*
X1740318Y1889786D1*
X1742330Y1891962D1*
X1744506Y1893974D1*
X1746834Y1895809D1*
X1749297Y1897454D1*
X1751882Y1898902D1*
X1754574Y1900143D1*
X1757353Y1901168D1*
X1760206Y1901973D1*
X1763112Y1902551D1*
X1766055Y1902899D1*
X1769016Y1903016D1*
X1771977Y1902899D1*
X1774920Y1902551D1*
X1777826Y1901973D1*
X1780679Y1901168D1*
X1783458Y1900143D1*
X1786150Y1898902D1*
X1788735Y1897454D1*
X1791198Y1895809D1*
X1793526Y1893974D1*
X1795702Y1891962D1*
X1797714Y1889786D1*
X1799549Y1887458D1*
X1801194Y1884995D1*
X1802642Y1882410D1*
X1803883Y1879718D1*
X1804908Y1876939D1*
X1805713Y1874086D1*
X1806292Y1871180D1*
X1806639Y1868236D1*
X1806756Y1865276D1*
X1806639Y1862315D1*
X1785147Y953519D2*
X1784820Y950537D1*
X1784278Y947587D1*
X1783523Y944684D1*
X1782558Y941844D1*
X1781390Y939082D1*
X1780024Y936412D1*
X1778467Y933848D1*
X1776729Y931404D1*
X1774817Y929093D1*
X1772743Y926927D1*
X1770516Y924918D1*
X1768149Y923075D1*
X1765655Y921408D1*
X1763046Y919929D1*
X1760336Y918643D1*
X1756252Y917162D1*
X1759859Y915851D1*
X1763118Y914324D1*
X1766233Y912520D1*
X1769176Y910452D1*
X1771929Y908133D1*
X1774470Y905584D1*
X1776778Y902823D1*
X1778838Y899872D1*
X1780631Y896752D1*
X1782146Y893487D1*
X1783370Y890103D1*
X1784296Y886625D1*
X1784914Y883080D1*
X1785221Y879494D1*
X1785217Y875977D1*
X1784903Y872391D1*
X1784278Y868847D1*
X1783347Y865370D1*
X1782114Y861990D1*
X1780593Y858727D1*
X1778793Y855612D1*
X1776729Y852664D1*
X1774415Y849907D1*
X1771869Y847364D1*
X1769112Y845050D1*
X1766163Y842987D1*
X1763046Y841189D1*
X1759784Y839670D1*
X1756292Y838406D1*
X1759303Y837338D1*
X1762046Y836125D1*
X1764694Y834717D1*
X1767234Y833120D1*
X1769649Y831341D1*
X1771929Y829393D1*
X1774062Y827284D1*
X1776036Y825025D1*
X1777840Y822630D1*
X1779465Y820109D1*
X1780903Y817477D1*
X1782146Y814747D1*
X1783187Y811935D1*
X1784021Y809053D1*
X1784643Y806118D1*
X1785050Y803147D1*
X1785256Y799036D1*
X1785147Y796038D1*
X1784820Y793057D1*
X1784278Y790107D1*
X1783523Y787204D1*
X1782558Y784364D1*
X1781390Y781601D1*
X1780024Y778932D1*
X1778467Y776368D1*
X1776729Y773924D1*
X1774817Y771613D1*
X1772743Y769446D1*
X1770516Y767437D1*
X1768149Y765595D1*
X1765655Y763928D1*
X1763046Y762449D1*
X1760336Y761163D1*
X1757541Y760076D1*
X1754673Y759197D1*
X1751750Y758528D1*
X1748785Y758072D1*
X1745796Y757834D1*
X1742796Y757814D1*
X1739803Y758012D1*
X1736832Y758427D1*
X1733901Y759055D1*
X1731021Y759897D1*
X1728210Y760945D1*
X1725485Y762194D1*
X1722856Y763638D1*
X1720339Y765271D1*
X1717946Y767080D1*
X1715693Y769059D1*
X1713589Y771197D1*
X1711647Y773482D1*
X1709876Y775903D1*
X1708284Y778445D1*
X1706882Y781096D1*
X1705676Y783843D1*
X1704673Y786670D1*
X1703880Y789562D1*
X1703297Y792504D1*
X1702929Y795481D1*
X1702780Y798477D1*
X1702848Y801475D1*
X1703134Y804461D1*
X1703637Y807418D1*
X1704353Y810330D1*
X1705278Y813183D1*
X1706410Y815961D1*
X1707739Y818650D1*
X1709260Y821234D1*
X1710966Y823702D1*
X1712845Y826038D1*
X1714891Y828233D1*
X1717089Y830272D1*
X1719432Y832147D1*
X1721903Y833845D1*
X1724491Y835361D1*
X1727184Y836684D1*
X1729965Y837807D1*
X1731782Y838393D1*
X1728767Y839458D1*
X1725485Y840935D1*
X1722343Y842691D1*
X1719366Y844713D1*
X1716578Y846988D1*
X1713998Y849498D1*
X1711647Y852222D1*
X1709542Y855142D1*
X1707700Y858234D1*
X1706134Y861474D1*
X1704857Y864839D1*
X1703880Y868302D1*
X1703206Y871838D1*
X1702844Y875418D1*
X1702794Y879016D1*
X1703059Y882605D1*
X1703637Y886158D1*
X1704521Y889646D1*
X1705706Y893045D1*
X1707184Y896326D1*
X1708941Y899466D1*
X1710966Y902443D1*
X1713242Y905230D1*
X1715752Y907807D1*
X1718479Y910158D1*
X1721399Y912260D1*
X1724491Y914101D1*
X1727733Y915666D1*
X1731099Y916940D1*
X1731739Y917146D1*
X1728210Y918425D1*
X1725485Y919675D1*
X1722856Y921118D1*
X1720339Y922751D1*
X1717946Y924561D1*
X1715693Y926540D1*
X1713589Y928677D1*
X1711647Y930962D1*
X1709876Y933383D1*
X1708284Y935925D1*
X1706882Y938576D1*
X1705676Y941323D1*
X1704673Y944150D1*
X1703880Y947042D1*
X1703297Y949985D1*
X1702929Y952961D1*
X1702780Y955957D1*
X1702848Y958956D1*
X1703134Y961941D1*
X1703637Y964898D1*
X1704353Y967810D1*
X1705278Y970663D1*
X1706410Y973441D1*
X1707739Y976130D1*
X1709260Y978714D1*
X1710966Y981183D1*
X1712845Y983519D1*
X1714891Y985713D1*
X1717089Y987752D1*
X1719432Y989628D1*
X1721903Y991326D1*
X1724491Y992841D1*
X1727184Y994164D1*
X1729965Y995288D1*
X1732819Y996208D1*
X1735734Y996916D1*
X1738692Y997411D1*
X1741679Y997689D1*
X1744677Y997751D1*
X1747672Y997593D1*
X1750649Y997219D1*
X1753589Y996630D1*
X1756479Y995828D1*
X1759303Y994818D1*
X1762046Y993605D1*
X1764694Y992197D1*
X1767234Y990600D1*
X1769649Y988822D1*
X1771929Y986873D1*
X1774062Y984764D1*
X1776036Y982506D1*
X1777840Y980110D1*
X1779465Y977589D1*
X1780903Y974957D1*
X1782146Y972227D1*
X1783187Y969415D1*
X1784021Y966533D1*
X1784643Y963599D1*
X1785050Y960628D1*
X1785256Y956516D1*
X1785147Y953519D1*
X1263197Y561256D2*
X1262725Y558273D1*
X1261792Y555403D1*
X1260420Y552713D1*
X1258646Y550271D1*
X1256511Y548135D1*
X1254068Y546361D1*
X1251378Y544990D1*
X1248508Y544057D1*
X1245525Y543584D1*
X1242507D1*
X1239524Y544057D1*
X1236654Y544990D1*
X1233964Y546361D1*
X1231521Y548135D1*
X1229386Y550271D1*
X1227612Y552713D1*
X1226240Y555403D1*
X1225307Y558273D1*
X1224835Y561256D1*
Y564275D1*
X1225307Y567257D1*
X1226240Y570128D1*
X1227612Y572818D1*
X1229386Y575260D1*
X1231521Y577395D1*
X1233964Y579170D1*
X1236654Y580541D1*
X1239524Y581474D1*
X1242507Y581946D1*
X1245525D1*
X1248508Y581474D1*
X1251378Y580541D1*
X1254068Y579170D1*
X1256511Y577395D1*
X1258646Y575260D1*
X1260420Y572818D1*
X1261792Y570128D1*
X1262725Y567257D1*
X1263197Y564275D1*
Y561256D1*
X1299960Y889998D2*
X1299487Y887015D1*
X1298554Y884145D1*
X1297183Y881454D1*
X1295408Y879012D1*
X1293273Y876877D1*
X1290831Y875103D1*
X1288141Y873731D1*
X1285271Y872798D1*
X1282288Y872326D1*
X1279269D1*
X1276286Y872798D1*
X1273416Y873731D1*
X1270726Y875103D1*
X1268284Y876877D1*
X1266149Y879012D1*
X1264374Y881454D1*
X1263003Y884145D1*
X1262070Y887015D1*
X1261597Y889998D1*
Y893016D1*
X1262070Y895999D1*
X1263003Y898869D1*
X1264374Y901559D1*
X1266149Y904002D1*
X1268284Y906137D1*
X1270726Y907911D1*
X1273416Y909282D1*
X1276286Y910215D1*
X1279269Y910688D1*
X1282288D1*
X1285271Y910215D1*
X1288141Y909282D1*
X1290831Y907911D1*
X1293273Y906137D1*
X1295408Y904002D1*
X1297183Y901559D1*
X1298554Y898869D1*
X1299487Y895999D1*
X1299960Y893016D1*
Y889998D1*
X1037458Y914998D2*
X1036986Y912015D1*
X1036053Y909145D1*
X1034681Y906454D1*
X1032907Y904012D1*
X1030772Y901877D1*
X1028330Y900103D1*
X1025639Y898731D1*
X1022769Y897798D1*
X1019786Y897326D1*
X1016768D1*
X1013785Y897798D1*
X1010915Y898731D1*
X1008225Y900103D1*
X1005782Y901877D1*
X1003647Y904012D1*
X1001873Y906454D1*
X1000502Y909145D1*
X999568Y912015D1*
X999096Y914998D1*
Y918016D1*
X999568Y920999D1*
X1000502Y923869D1*
X1001873Y926559D1*
X1003647Y929002D1*
X1005782Y931137D1*
X1008225Y932911D1*
X1010915Y934282D1*
X1013785Y935215D1*
X1016768Y935688D1*
X1019786D1*
X1022769Y935215D1*
X1025639Y934282D1*
X1028330Y932911D1*
X1030772Y931137D1*
X1032907Y929002D1*
X1034681Y926559D1*
X1036053Y923869D1*
X1036986Y920999D1*
X1037458Y918016D1*
Y914998D1*
X918710D2*
X918238Y912015D1*
X917305Y909145D1*
X915933Y906454D1*
X914159Y904012D1*
X912024Y901877D1*
X909582Y900103D1*
X906891Y898731D1*
X904021Y897798D1*
X901038Y897326D1*
X898020D1*
X895037Y897798D1*
X892167Y898731D1*
X889477Y900103D1*
X887034Y901877D1*
X884899Y904012D1*
X883125Y906454D1*
X881754Y909145D1*
X880820Y912015D1*
X880348Y914998D1*
Y918016D1*
X880820Y920999D1*
X881754Y923869D1*
X883125Y926559D1*
X884899Y929002D1*
X887034Y931137D1*
X889477Y932911D1*
X892167Y934282D1*
X895037Y935215D1*
X898020Y935688D1*
X901038D1*
X904021Y935215D1*
X906891Y934282D1*
X909582Y932911D1*
X912024Y931137D1*
X914159Y929002D1*
X915933Y926559D1*
X917305Y923869D1*
X918238Y920999D1*
X918710Y918016D1*
Y914998D1*
X525693Y1067506D2*
X525221Y1064523D1*
X524288Y1061652D1*
X522916Y1058962D1*
X521142Y1056520D1*
X519007Y1054385D1*
X516565Y1052610D1*
X513874Y1051239D1*
X511004Y1050306D1*
X510813Y1050268D1*
X512457Y1049815D1*
X515247Y1048660D1*
X517820Y1047083D1*
X520117Y1045122D1*
X522078Y1042826D1*
X523655Y1040252D1*
X524810Y1037462D1*
X525515Y1034526D1*
X525752Y1031517D1*
X525515Y1028508D1*
X524810Y1025572D1*
X523655Y1022782D1*
X522078Y1020209D1*
X520117Y1017912D1*
X517820Y1015952D1*
X515247Y1014374D1*
X512457Y1013219D1*
X509521Y1012515D1*
X507002Y1012297D1*
X506765Y1009756D1*
X506061Y1006820D1*
X504906Y1004030D1*
X503328Y1001457D1*
X501368Y999160D1*
X499071Y997200D1*
X496498Y995622D1*
X493708Y994467D1*
X490772Y993763D1*
X487763Y993525D1*
X484754Y993763D1*
X481818Y994467D1*
X479028Y995622D1*
X476454Y997200D1*
X474158Y999160D1*
X472197Y1001457D1*
X470620Y1004030D1*
X469465Y1006820D1*
X468760Y1009756D1*
X468523Y1012765D1*
X468760Y1015775D1*
X469465Y1018710D1*
X470620Y1021500D1*
X472197Y1024074D1*
X474158Y1026370D1*
X476454Y1028331D1*
X479028Y1029908D1*
X481818Y1031063D1*
X483462Y1031512D1*
X480402Y1032490D1*
X477712Y1033861D1*
X475269Y1035635D1*
X473134Y1037771D1*
X471360Y1040213D1*
X469988Y1042903D1*
X469055Y1045773D1*
X468583Y1048756D1*
Y1051775D1*
X469055Y1054757D1*
X469988Y1057628D1*
X471360Y1060318D1*
X473134Y1062760D1*
X475269Y1064895D1*
X477712Y1066670D1*
X480402Y1068041D1*
X483272Y1068974D1*
X483464Y1069012D1*
X480402Y1069990D1*
X477712Y1071361D1*
X475269Y1073135D1*
X473134Y1075271D1*
X471360Y1077713D1*
X469988Y1080403D1*
X469504Y1081714D1*
X469268Y1078507D1*
X468563Y1075571D1*
X467408Y1072781D1*
X465831Y1070208D1*
X463870Y1067911D1*
X461574Y1065950D1*
X459000Y1064373D1*
X456210Y1063218D1*
X453275Y1062513D1*
X450265Y1062276D1*
X447256Y1062513D1*
X444320Y1063218D1*
X441530Y1064373D1*
X438957Y1065950D1*
X436660Y1067911D1*
X434700Y1070208D1*
X433122Y1072781D1*
X431967Y1075571D1*
X431263Y1078507D1*
X431025Y1081516D1*
X431263Y1084525D1*
X431967Y1087461D1*
X433122Y1090251D1*
X434700Y1092824D1*
X436660Y1095121D1*
X438957Y1097082D1*
X441530Y1098659D1*
X444320Y1099814D1*
X447256Y1100519D1*
X450265Y1100756D1*
X453275Y1100519D1*
X456210Y1099814D1*
X459000Y1098659D1*
X461574Y1097082D1*
X463870Y1095121D1*
X465831Y1092824D1*
X467408Y1090251D1*
X468525Y1087567D1*
X468761Y1090775D1*
X469466Y1093710D1*
X470621Y1096500D1*
X472198Y1099074D1*
X474159Y1101370D1*
X476456Y1103331D1*
X479029Y1104908D1*
X481819Y1106063D1*
X484755Y1106768D1*
X487764Y1107006D1*
X490773Y1106768D1*
X493709Y1106063D1*
X496499Y1104908D1*
X499072Y1103331D1*
X501369Y1101370D1*
X503330Y1099074D1*
X504907Y1096500D1*
X506062Y1093710D1*
X506767Y1090775D1*
X506986Y1088243D1*
X509521Y1088017D1*
X512457Y1087313D1*
X515247Y1086158D1*
X517820Y1084580D1*
X520117Y1082620D1*
X522078Y1080323D1*
X523655Y1077750D1*
X524810Y1074960D1*
X525515Y1072024D1*
X525752Y1069015D1*
X525693Y1067506D1*
X569446Y711257D2*
X568974Y708275D1*
X568041Y705404D1*
X566670Y702714D1*
X564895Y700272D1*
X562760Y698137D1*
X560318Y696362D1*
X557628Y694991D1*
X554757Y694058D1*
X551775Y693586D1*
X548756D1*
X545773Y694058D1*
X542903Y694991D1*
X540213Y696362D1*
X537771Y698137D1*
X535635Y700272D1*
X533861Y702714D1*
X532490Y705404D1*
X531557Y708275D1*
X531084Y711257D1*
Y714276D1*
X531557Y717259D1*
X532490Y720129D1*
X533861Y722819D1*
X535635Y725261D1*
X537771Y727397D1*
X540213Y729171D1*
X542903Y730542D1*
X545773Y731475D1*
X548756Y731948D1*
X551775D1*
X554757Y731475D1*
X557628Y730542D1*
X560318Y729171D1*
X562760Y727397D1*
X564895Y725261D1*
X566670Y722819D1*
X568041Y720129D1*
X568974Y717259D1*
X569446Y714276D1*
Y711257D1*
X713197Y780007D2*
X712725Y777024D1*
X711792Y774154D1*
X710420Y771464D1*
X708646Y769021D1*
X706511Y766886D1*
X704068Y765112D1*
X701378Y763740D1*
X698508Y762807D1*
X695525Y762335D1*
X692507D1*
X689524Y762807D1*
X686654Y763740D1*
X683964Y765112D1*
X681521Y766886D1*
X679386Y769021D1*
X677612Y771464D1*
X676240Y774154D1*
X675307Y777024D1*
X674835Y780007D1*
Y783025D1*
X675307Y786008D1*
X676240Y788878D1*
X677612Y791568D1*
X679386Y794011D1*
X681521Y796146D1*
X683964Y797920D1*
X686654Y799292D1*
X689524Y800225D1*
X692507Y800697D1*
X695525D1*
X698508Y800225D1*
X701378Y799292D1*
X704068Y797920D1*
X706511Y796146D1*
X708646Y794011D1*
X710420Y791568D1*
X711792Y788878D1*
X712725Y786008D1*
X713197Y783025D1*
Y780007D1*
X913197Y1573757D2*
X912725Y1570775D1*
X911792Y1567904D1*
X910420Y1565214D1*
X908646Y1562772D1*
X906511Y1560637D1*
X904068Y1558862D1*
X901378Y1557491D1*
X898508Y1556558D1*
X895525Y1556086D1*
X892507D1*
X889524Y1556558D1*
X886654Y1557491D1*
X883964Y1558862D1*
X881521Y1560637D1*
X879386Y1562772D1*
X877612Y1565214D1*
X876240Y1567904D1*
X875307Y1570775D1*
X874835Y1573757D1*
Y1576776D1*
X875307Y1579759D1*
X876240Y1582629D1*
X877612Y1585319D1*
X879386Y1587761D1*
X881521Y1589897D1*
X883964Y1591671D1*
X886654Y1593042D1*
X889524Y1593975D1*
X892507Y1594448D1*
X895525D1*
X898508Y1593975D1*
X901378Y1593042D1*
X904068Y1591671D1*
X906511Y1589897D1*
X908646Y1587761D1*
X910420Y1585319D1*
X911792Y1582629D1*
X912725Y1579759D1*
X913197Y1576776D1*
Y1573757D1*
X550697Y1367507D2*
X550225Y1364524D1*
X549292Y1361654D1*
X547920Y1358964D1*
X546146Y1356521D1*
X544011Y1354386D1*
X541568Y1352612D1*
X538878Y1351240D1*
X536008Y1350307D1*
X533025Y1349835D1*
X530007D1*
X527024Y1350307D1*
X524154Y1351240D1*
X521464Y1352612D1*
X519021Y1354386D1*
X516886Y1356521D1*
X515112Y1358964D1*
X513740Y1361654D1*
X512807Y1364524D1*
X512335Y1367507D1*
Y1370525D1*
X512807Y1373508D1*
X513740Y1376378D1*
X515112Y1379068D1*
X516886Y1381511D1*
X519021Y1383646D1*
X521464Y1385420D1*
X524154Y1386792D1*
X527024Y1387725D1*
X530007Y1388197D1*
X533025D1*
X536008Y1387725D1*
X538878Y1386792D1*
X541568Y1385420D1*
X544011Y1383646D1*
X546146Y1381511D1*
X547920Y1379068D1*
X549292Y1376378D1*
X550225Y1373508D1*
X550697Y1370525D1*
Y1367507D1*
X1269448Y1198756D2*
X1268975Y1195773D1*
X1268042Y1192903D1*
X1266671Y1190213D1*
X1264897Y1187771D1*
X1262761Y1185635D1*
X1260319Y1183861D1*
X1257629Y1182490D1*
X1254759Y1181557D1*
X1251776Y1181084D1*
X1248757D1*
X1245775Y1181557D1*
X1242904Y1182490D1*
X1240214Y1183861D1*
X1237761Y1185635D1*
X1235319Y1183861D1*
X1232629Y1182490D1*
X1229759Y1181557D1*
X1226776Y1181084D1*
X1223757D1*
X1220775Y1181557D1*
X1217904Y1182490D1*
X1215214Y1183861D1*
X1212763Y1185635D1*
X1210320Y1183861D1*
X1207630Y1182490D1*
X1204760Y1181557D1*
X1201777Y1181084D1*
X1198759D1*
X1195776Y1181557D1*
X1192906Y1182490D1*
X1190215Y1183861D1*
X1187773Y1185635D1*
X1185638Y1187771D1*
X1183864Y1190213D1*
X1182492Y1192903D1*
X1181559Y1195773D1*
X1181087Y1198756D1*
Y1201775D1*
X1181559Y1204757D1*
X1182492Y1207628D1*
X1183864Y1210318D1*
X1185638Y1212760D1*
X1187773Y1214895D1*
X1190215Y1216670D1*
X1192906Y1218041D1*
X1195776Y1218974D1*
X1198759Y1219446D1*
X1201777D1*
X1204760Y1218974D1*
X1207630Y1218041D1*
X1210320Y1216670D1*
X1212772Y1214895D1*
X1215214Y1216670D1*
X1217904Y1218041D1*
X1220775Y1218974D1*
X1223757Y1219446D1*
X1226776D1*
X1229759Y1218974D1*
X1232629Y1218041D1*
X1235319Y1216670D1*
X1237772Y1214895D1*
X1240214Y1216670D1*
X1242904Y1218041D1*
X1245775Y1218974D1*
X1248757Y1219446D1*
X1251776D1*
X1254759Y1218974D1*
X1257629Y1218041D1*
X1260319Y1216670D1*
X1262761Y1214895D1*
X1264897Y1212760D1*
X1266671Y1210318D1*
X1268042Y1207628D1*
X1268975Y1204757D1*
X1269448Y1201775D1*
Y1198756D1*
X925697Y1717507D2*
X925225Y1714524D1*
X924292Y1711654D1*
X922920Y1708964D1*
X921146Y1706521D1*
X919011Y1704386D1*
X916568Y1702612D1*
X913878Y1701240D1*
X911008Y1700307D1*
X908025Y1699835D1*
X905007D1*
X902024Y1700307D1*
X899154Y1701240D1*
X896464Y1702612D1*
X894021Y1704386D1*
X891886Y1706521D1*
X890112Y1708964D1*
X888740Y1711654D1*
X887807Y1714524D1*
X887335Y1717507D1*
Y1720525D1*
X887807Y1723508D1*
X888740Y1726378D1*
X890112Y1729068D1*
X891886Y1731511D1*
X894021Y1733646D1*
X896464Y1735420D1*
X899154Y1736792D1*
X902024Y1737725D1*
X905007Y1738197D1*
X908025D1*
X911008Y1737725D1*
X913878Y1736792D1*
X916568Y1735420D1*
X919011Y1733646D1*
X921146Y1731511D1*
X922920Y1729068D1*
X924292Y1726378D1*
X925225Y1723508D1*
X925697Y1720525D1*
Y1717507D1*
X867549Y1355583D2*
X867247Y1349592D1*
X866645Y1343622D1*
X865742Y1337692D1*
X864542Y1331813D1*
X863049Y1326003D1*
X861265Y1320275D1*
X859196Y1314643D1*
X856845Y1309124D1*
X854221Y1303729D1*
X851327Y1298474D1*
X848173Y1293370D1*
X844767Y1288431D1*
X841117Y1283671D1*
X837231Y1279099D1*
X833121Y1274729D1*
X828796Y1270571D1*
X824268Y1266637D1*
X819546Y1262933D1*
X814646Y1259474D1*
X809576Y1256264D1*
X804353Y1253314D1*
X798987Y1250630D1*
X793494Y1248221D1*
X787886Y1246089D1*
X782177Y1244243D1*
X776383Y1242685D1*
X770519Y1241423D1*
X764597Y1240456D1*
X758635Y1239788D1*
X752647Y1239420D1*
X746649Y1239355D1*
X740654Y1239591D1*
X734679Y1240129D1*
X728738Y1240966D1*
X722847Y1242101D1*
X717020Y1243532D1*
X711273Y1245252D1*
X705620Y1247261D1*
X700075Y1249550D1*
X694652Y1252117D1*
X689365Y1254952D1*
X684227Y1258050D1*
X679252Y1261402D1*
X674452Y1265000D1*
X669838Y1268836D1*
X665423Y1272898D1*
X661218Y1277177D1*
X657234Y1281663D1*
X653481Y1286343D1*
X649967Y1291206D1*
X646702Y1296239D1*
X643696Y1301431D1*
X640954Y1306767D1*
X638483Y1312234D1*
X636292Y1317818D1*
X634382Y1323506D1*
X632763Y1329282D1*
X631435Y1335133D1*
X630403Y1341044D1*
X629671Y1346998D1*
X629238Y1352982D1*
X629108Y1358979D1*
X629278Y1364977D1*
X629751Y1370957D1*
X630523Y1376907D1*
X631593Y1382810D1*
X632960Y1388651D1*
X634618Y1394416D1*
X636565Y1400092D1*
X638794Y1405662D1*
X641301Y1411112D1*
X644078Y1416429D1*
X647120Y1421601D1*
X650418Y1426613D1*
X653964Y1431452D1*
X657748Y1436108D1*
X661761Y1440566D1*
X665995Y1444818D1*
X670436Y1448851D1*
X675075Y1452655D1*
X679899Y1456221D1*
X684897Y1459540D1*
X690055Y1462604D1*
X695361Y1465404D1*
X700801Y1467933D1*
X706361Y1470187D1*
X712028Y1472158D1*
X717786Y1473840D1*
X723622Y1475231D1*
X729520Y1476327D1*
X735466Y1477125D1*
X741445Y1477624D1*
X747441Y1477819D1*
X753440Y1477714D1*
X759425Y1477307D1*
X765383Y1476600D1*
X771297Y1475593D1*
X777154Y1474290D1*
X782937Y1472696D1*
X788633Y1470811D1*
X794226Y1468643D1*
X799704Y1466196D1*
X805051Y1463477D1*
X810256Y1460492D1*
X815303Y1457248D1*
X820181Y1453756D1*
X824877Y1450023D1*
X829380Y1446058D1*
X833677Y1441872D1*
X837757Y1437474D1*
X841613Y1432877D1*
X845231Y1428092D1*
X848605Y1423130D1*
X851725Y1418007D1*
X854583Y1412731D1*
X857172Y1407319D1*
X859486Y1401784D1*
X861517Y1396139D1*
X863264Y1390399D1*
X864718Y1384579D1*
X865878Y1378693D1*
X866742Y1372756D1*
X867305Y1366784D1*
X867566Y1360790D1*
X867549Y1355583D1*
X794446Y1067507D2*
X793974Y1064524D1*
X793041Y1061654D1*
X791670Y1058964D1*
X789895Y1056521D1*
X787760Y1054386D1*
X785318Y1052612D1*
X782628Y1051240D1*
X779757Y1050307D1*
X776775Y1049835D1*
X773756D1*
X770773Y1050307D1*
X767903Y1051240D1*
X765213Y1052612D1*
X762771Y1054386D1*
X760635Y1056521D1*
X758861Y1058964D1*
X757490Y1061654D1*
X756557Y1064524D1*
X756084Y1067507D1*
Y1070525D1*
X756557Y1073508D1*
X757490Y1076378D1*
X758861Y1079068D1*
X760635Y1081511D1*
X762771Y1083646D1*
X765213Y1085420D1*
X767903Y1086792D1*
X770773Y1087725D1*
X773756Y1088197D1*
X776775D1*
X779757Y1087725D1*
X782628Y1086792D1*
X785318Y1085420D1*
X787760Y1083646D1*
X789895Y1081511D1*
X791670Y1079068D1*
X793041Y1076378D1*
X793974Y1073508D1*
X794446Y1070525D1*
Y1067507D1*
X825697Y1148756D2*
X825225Y1145773D1*
X824292Y1142903D1*
X822920Y1140213D1*
X821146Y1137771D1*
X819011Y1135635D1*
X816568Y1133861D1*
X813878Y1132490D1*
X811008Y1131557D1*
X808025Y1131084D1*
X805007D1*
X802024Y1131557D1*
X799154Y1132490D1*
X796464Y1133861D1*
X794021Y1135635D1*
X791886Y1137771D1*
X790112Y1140213D1*
X788740Y1142903D1*
X787807Y1145773D1*
X787335Y1148756D1*
Y1151775D1*
X787807Y1154757D1*
X788740Y1157628D1*
X790112Y1160318D1*
X791886Y1162760D1*
X794021Y1164895D1*
X796464Y1166670D1*
X799154Y1168041D1*
X802024Y1168974D1*
X805007Y1169446D1*
X808025D1*
X811008Y1168974D1*
X813878Y1168041D1*
X816568Y1166670D1*
X819011Y1164895D1*
X821146Y1162760D1*
X822920Y1160318D1*
X824292Y1157628D1*
X825225Y1154757D1*
X825697Y1151775D1*
Y1148756D1*
X713108Y1711167D2*
X712635Y1708184D1*
X711702Y1705314D1*
X710331Y1702624D1*
X708557Y1700181D1*
X706422Y1698046D1*
X703979Y1696272D1*
X701289Y1694901D1*
X698419Y1693967D1*
X695436Y1693495D1*
X692418D1*
X689435Y1693967D1*
X686565Y1694901D1*
X683874Y1696272D1*
X681432Y1698046D1*
X679297Y1700181D1*
X677523Y1702624D1*
X676151Y1705314D1*
X675218Y1708184D1*
X674746Y1711167D1*
Y1714185D1*
X675218Y1717168D1*
X676151Y1720038D1*
X677523Y1722729D1*
X679297Y1725171D1*
X681432Y1727306D1*
X683874Y1729080D1*
X686565Y1730452D1*
X689435Y1731385D1*
X692418Y1731857D1*
X695436D1*
X698419Y1731385D1*
X701289Y1730452D1*
X703979Y1729080D1*
X706422Y1727306D1*
X708557Y1725171D1*
X710331Y1722729D1*
X711702Y1720038D1*
X712635Y1717168D1*
X713108Y1714185D1*
Y1711167D1*
X1025697Y1792507D2*
X1025225Y1789524D1*
X1024292Y1786654D1*
X1022920Y1783964D1*
X1021146Y1781521D1*
X1019011Y1779386D1*
X1016568Y1777612D1*
X1013878Y1776240D1*
X1011008Y1775307D1*
X1008025Y1774835D1*
X1005007D1*
X1002024Y1775307D1*
X999154Y1776240D1*
X996464Y1777612D1*
X994021Y1779386D1*
X991886Y1781521D1*
X990112Y1783964D1*
X988740Y1786654D1*
X987807Y1789524D1*
X987335Y1792507D1*
Y1795525D1*
X987807Y1798508D1*
X988740Y1801378D1*
X990112Y1804068D1*
X991886Y1806511D1*
X994021Y1808646D1*
X996464Y1810420D1*
X999154Y1811792D1*
X1002024Y1812725D1*
X1005007Y1813197D1*
X1008025D1*
X1011008Y1812725D1*
X1013878Y1811792D1*
X1016568Y1810420D1*
X1019011Y1808646D1*
X1021146Y1806511D1*
X1022920Y1804068D1*
X1024292Y1801378D1*
X1025225Y1798508D1*
X1025697Y1795525D1*
Y1792507D1*
X1144446Y1836257D2*
X1143974Y1833275D1*
X1143041Y1830404D1*
X1141670Y1827714D1*
X1139895Y1825272D1*
X1137760Y1823137D1*
X1135318Y1821362D1*
X1132628Y1819991D1*
X1129757Y1819058D1*
X1126775Y1818586D1*
X1123756D1*
X1120773Y1819058D1*
X1117903Y1819991D1*
X1115213Y1821362D1*
X1112771Y1823137D1*
X1110635Y1825272D1*
X1108861Y1827714D1*
X1107490Y1830404D1*
X1106557Y1833275D1*
X1106084Y1836257D1*
Y1839276D1*
X1106557Y1842259D1*
X1107490Y1845129D1*
X1108861Y1847819D1*
X1110635Y1850261D1*
X1112771Y1852397D1*
X1115213Y1854171D1*
X1117903Y1855542D1*
X1120773Y1856475D1*
X1123756Y1856948D1*
X1126775D1*
X1129757Y1856475D1*
X1132628Y1855542D1*
X1135318Y1854171D1*
X1137760Y1852397D1*
X1139895Y1850261D1*
X1141670Y1847819D1*
X1143041Y1845129D1*
X1143974Y1842259D1*
X1144446Y1839276D1*
Y1836257D1*
X1163197Y1880007D2*
X1162725Y1877024D1*
X1161792Y1874154D1*
X1160420Y1871464D1*
X1158646Y1869021D1*
X1156511Y1866886D1*
X1154068Y1865112D1*
X1151378Y1863740D1*
X1148508Y1862807D1*
X1145525Y1862335D1*
X1142507D1*
X1139524Y1862807D1*
X1136654Y1863740D1*
X1133964Y1865112D1*
X1131521Y1866886D1*
X1129386Y1869021D1*
X1127612Y1871464D1*
X1126240Y1874154D1*
X1125307Y1877024D1*
X1124835Y1880007D1*
Y1883025D1*
X1125307Y1886008D1*
X1126240Y1888878D1*
X1127612Y1891568D1*
X1129386Y1894011D1*
X1131521Y1896146D1*
X1133964Y1897920D1*
X1136654Y1899292D1*
X1139524Y1900225D1*
X1142507Y1900697D1*
X1145525D1*
X1148508Y1900225D1*
X1151378Y1899292D1*
X1154068Y1897920D1*
X1156511Y1896146D1*
X1158646Y1894011D1*
X1160420Y1891568D1*
X1161792Y1888878D1*
X1162725Y1886008D1*
X1163197Y1883025D1*
Y1880007D1*
X837460Y752496D2*
X836987Y749513D1*
X836054Y746643D1*
X834683Y743953D1*
X832908Y741511D1*
X830773Y739376D1*
X828562Y737755D1*
X830113Y736362D1*
X832074Y734066D1*
X833651Y731492D1*
X834806Y728702D1*
X835511Y725767D1*
X835748Y722757D1*
X835511Y719748D1*
X834806Y716813D1*
X833651Y714023D1*
X832074Y711449D1*
X830113Y709152D1*
X827723Y707130D1*
X829000Y706135D1*
X831135Y704000D1*
X832910Y701558D1*
X834281Y698868D1*
X835214Y695998D1*
X835687Y693015D1*
Y689996D1*
X835214Y687013D1*
X834281Y684143D1*
X832910Y681453D1*
X831135Y679011D1*
X829000Y676876D1*
X826558Y675101D1*
X823868Y673730D1*
X820998Y672797D1*
X818015Y672324D1*
X814996D1*
X812013Y672797D1*
X809143Y673730D1*
X806453Y675101D1*
X804011Y676876D1*
X801876Y679011D1*
X800101Y681453D1*
X798730Y684143D1*
X797797Y687013D1*
X797324Y689996D1*
Y693015D1*
X797797Y695998D1*
X798730Y698868D1*
X800101Y701558D1*
X801876Y704000D1*
X804011Y706135D1*
X805290Y707133D1*
X804013Y708128D1*
X801878Y710263D1*
X800104Y712705D1*
X798733Y715395D1*
X797799Y718265D1*
X797327Y721248D1*
Y724267D1*
X797799Y727250D1*
X798733Y730120D1*
X800104Y732810D1*
X801878Y735252D1*
X804013Y737387D1*
X806225Y739008D1*
X804673Y740401D1*
X802713Y742697D1*
X801135Y745271D1*
X799981Y748061D1*
X799276Y750996D1*
X799038Y754006D1*
X799276Y757015D1*
X799981Y759950D1*
X801135Y762740D1*
X802713Y765314D1*
X803649Y766512D1*
X801874Y768954D1*
X800503Y771645D1*
X799570Y774515D1*
X799097Y777498D1*
Y780516D1*
X799570Y783499D1*
X800503Y786369D1*
X801874Y789059D1*
X803649Y791502D1*
X805215Y793112D1*
X803450Y795208D1*
X801873Y797781D1*
X800718Y800571D1*
X800013Y803507D1*
X799776Y806516D1*
X800013Y809525D1*
X800718Y812461D1*
X801873Y815251D1*
X803450Y817824D1*
X805411Y820121D1*
X807708Y822082D1*
X810281Y823659D1*
X813071Y824814D1*
X816007Y825519D1*
X819016Y825756D1*
X822025Y825519D1*
X824961Y824814D1*
X827751Y823659D1*
X830324Y822082D1*
X832621Y820121D1*
X834582Y817824D1*
X836159Y815251D1*
X837314Y812461D1*
X838019Y809525D1*
X838256Y806516D1*
X838019Y803507D1*
X837314Y800571D1*
X836159Y797781D1*
X834582Y795208D1*
X832621Y792911D1*
X832079Y792411D1*
X833844Y790315D1*
X835422Y787742D1*
X836576Y784952D1*
X837281Y782016D1*
X837519Y779007D1*
X837281Y775998D1*
X836576Y773062D1*
X835422Y770272D1*
X833844Y767698D1*
X832908Y766500D1*
X834683Y764058D1*
X836054Y761368D1*
X836987Y758498D1*
X837460Y755515D1*
Y752496D1*
X938197Y864259D2*
X937725Y861276D1*
X936792Y858406D1*
X935420Y855715D1*
X933646Y853273D1*
X931511Y851138D1*
X929068Y849364D1*
X926378Y847992D1*
X923508Y847059D1*
X920525Y846587D1*
X917507D1*
X914524Y847059D1*
X911654Y847992D1*
X908964Y849364D1*
X906521Y851138D1*
X904386Y853273D1*
X902778Y855465D1*
X901658Y854012D1*
X899523Y851877D1*
X897080Y850103D1*
X894390Y848731D1*
X891520Y847798D1*
X888537Y847326D1*
X885519D1*
X882536Y847798D1*
X879666Y848731D1*
X876975Y850103D1*
X874533Y851877D1*
X872398Y854012D1*
X870624Y856454D1*
X869252Y859145D1*
X868319Y862015D1*
X867847Y864998D1*
Y868016D1*
X868319Y870999D1*
X869252Y873869D1*
X870624Y876559D1*
X872398Y879002D1*
X874533Y881137D1*
X876975Y882911D1*
X879666Y884282D1*
X882536Y885215D1*
X885519Y885688D1*
X888537D1*
X891520Y885215D1*
X894390Y884282D1*
X897080Y882911D1*
X899523Y881137D1*
X901658Y879002D1*
X903265Y876810D1*
X904386Y878263D1*
X906521Y880398D1*
X908964Y882172D1*
X911654Y883544D1*
X914524Y884477D1*
X917507Y884949D1*
X920525D1*
X923508Y884477D1*
X926378Y883544D1*
X929068Y882172D1*
X931511Y880398D1*
X933646Y878263D1*
X935420Y875820D1*
X936792Y873130D1*
X937725Y870260D1*
X938197Y867277D1*
Y864259D1*
X682734Y1166914D2*
X682261Y1163931D1*
X681328Y1161061D1*
X679957Y1158370D1*
X678183Y1155928D1*
X676047Y1153793D1*
X673605Y1152019D1*
X670915Y1150647D1*
X668045Y1149714D1*
X665062Y1149242D1*
X662044D1*
X659061Y1149714D1*
X656191Y1150647D1*
X653500Y1152019D1*
X651058Y1153793D1*
X648923Y1155928D1*
X647149Y1158370D1*
X645777Y1161061D1*
X644844Y1163931D1*
X644372Y1166914D1*
Y1169932D1*
X644844Y1172915D1*
X645777Y1175785D1*
X647149Y1178475D1*
X648923Y1180918D1*
X649055Y1181061D1*
X647256Y1181263D1*
X644320Y1181967D1*
X641530Y1183122D1*
X638957Y1184700D1*
X636660Y1186660D1*
X634700Y1188957D1*
X633122Y1191530D1*
X631967Y1194320D1*
X631263Y1197256D1*
X631025Y1200265D1*
X631263Y1203275D1*
X631967Y1206210D1*
X633122Y1209000D1*
X634700Y1211574D1*
X636660Y1213870D1*
X638957Y1215831D1*
X641530Y1217408D1*
X644320Y1218563D1*
X647256Y1219268D1*
X650265Y1219506D1*
X653275Y1219268D1*
X656210Y1218563D1*
X659000Y1217408D1*
X661574Y1215831D1*
X663870Y1213870D1*
X665831Y1211574D1*
X667408Y1209000D1*
X668563Y1206210D1*
X669268Y1203275D1*
X669506Y1200265D1*
X669268Y1197256D1*
X668563Y1194320D1*
X667408Y1191530D1*
X665831Y1188957D1*
X664763Y1187628D1*
X666562Y1187425D1*
X669498Y1186721D1*
X672288Y1185566D1*
X674861Y1183988D1*
X677158Y1182028D1*
X679118Y1179731D1*
X680696Y1177158D1*
X681851Y1174368D1*
X682555Y1171432D1*
X682793Y1168423D1*
X682734Y1166914D1*
X981946Y636257D2*
X981474Y633275D1*
X980541Y630404D1*
X979170Y627714D1*
X977395Y625272D1*
X975260Y623137D1*
X972818Y621362D1*
X970128Y619991D1*
X967257Y619058D1*
X964275Y618586D1*
X961256D1*
X958273Y619058D1*
X955403Y619991D1*
X952713Y621362D1*
X950271Y623137D1*
X948135Y625272D1*
X946361Y627714D1*
X944990Y630404D1*
X944057Y633275D1*
X943584Y636257D1*
Y639276D1*
X944057Y642259D1*
X944990Y645129D1*
X946361Y647819D1*
X948135Y650261D1*
X950271Y652397D1*
X952713Y654171D1*
X955403Y655542D1*
X958273Y656475D1*
X961256Y656948D1*
X964275D1*
X967257Y656475D1*
X970128Y655542D1*
X972818Y654171D1*
X975260Y652397D1*
X977395Y650261D1*
X979170Y647819D1*
X980541Y645129D1*
X981474Y642259D1*
X981946Y639276D1*
Y636257D1*
X763196Y1105008D2*
X762723Y1102025D1*
X761790Y1099155D1*
X760419Y1096465D1*
X758645Y1094023D1*
X756509Y1091887D1*
X754067Y1090113D1*
X751377Y1088742D1*
X748507Y1087809D1*
X745524Y1087336D1*
X742506D1*
X739523Y1087809D1*
X736652Y1088742D1*
X733962Y1090113D1*
X731520Y1091887D1*
X729385Y1094023D1*
X727610Y1096465D1*
X726239Y1099155D1*
X725306Y1102025D1*
X724834Y1105008D1*
Y1108026D1*
X725306Y1111009D1*
X726239Y1113880D1*
X727610Y1116570D1*
X729385Y1119012D1*
X731520Y1121147D1*
X733962Y1122922D1*
X736652Y1124293D1*
X739523Y1125226D1*
X742506Y1125698D1*
X745524D1*
X748507Y1125226D1*
X751377Y1124293D1*
X754067Y1122922D1*
X756509Y1121147D1*
X758645Y1119012D1*
X760419Y1116570D1*
X761790Y1113880D1*
X762723Y1111009D1*
X763196Y1108026D1*
Y1105008D1*
X456946Y986257D2*
X456474Y983275D1*
X455541Y980404D1*
X454170Y977714D1*
X452395Y975272D1*
X450260Y973137D1*
X447818Y971362D1*
X445128Y969991D1*
X442257Y969058D1*
X439275Y968586D1*
X436256D1*
X433273Y969058D1*
X430403Y969991D1*
X427713Y971362D1*
X425271Y973137D1*
X423135Y975272D1*
X421361Y977714D1*
X419990Y980404D1*
X419057Y983275D1*
X418584Y986257D1*
Y989276D1*
X419057Y992259D1*
X419990Y995129D1*
X421361Y997819D1*
X423135Y1000261D1*
X425271Y1002397D1*
X427713Y1004171D1*
X430403Y1005542D1*
X433273Y1006475D1*
X436256Y1006948D1*
X439275D1*
X442257Y1006475D1*
X445128Y1005542D1*
X447818Y1004171D1*
X450260Y1002397D1*
X452395Y1000261D1*
X454170Y997819D1*
X455541Y995129D1*
X456474Y992259D1*
X456946Y989276D1*
Y986257D1*
X969446Y573757D2*
X968974Y570775D1*
X968041Y567904D1*
X966670Y565214D1*
X964895Y562772D1*
X962760Y560637D1*
X960318Y558862D1*
X957628Y557491D1*
X954757Y556558D1*
X951775Y556086D1*
X948756D1*
X945773Y556558D1*
X942903Y557491D1*
X940213Y558862D1*
X937771Y560637D1*
X935635Y562772D1*
X933861Y565214D1*
X932490Y567904D1*
X931557Y570775D1*
X931084Y573757D1*
Y576776D1*
X931557Y579759D1*
X932490Y582629D1*
X933861Y585319D1*
X935635Y587761D1*
X937771Y589897D1*
X940213Y591671D1*
X942903Y593042D1*
X945773Y593975D1*
X948756Y594448D1*
X951775D1*
X954757Y593975D1*
X957628Y593042D1*
X960318Y591671D1*
X962760Y589897D1*
X964895Y587761D1*
X966670Y585319D1*
X968041Y582629D1*
X968974Y579759D1*
X969446Y576776D1*
Y573757D1*
X588196Y936256D2*
X587723Y933273D1*
X586790Y930403D1*
X585419Y927713D1*
X583645Y925271D1*
X581509Y923135D1*
X579067Y921361D1*
X576377Y919990D1*
X573507Y919057D1*
X570524Y918584D1*
X567506D1*
X564523Y919057D1*
X561652Y919990D1*
X558962Y921361D1*
X556520Y923135D1*
X554385Y925271D1*
X552610Y927713D1*
X551239Y930403D1*
X550306Y933273D1*
X549834Y936256D1*
Y939275D1*
X550306Y942257D1*
X551239Y945128D1*
X552610Y947818D1*
X554385Y950260D1*
X556520Y952395D1*
X558962Y954170D1*
X561652Y955541D1*
X564523Y956474D1*
X567506Y956946D1*
X570524D1*
X573507Y956474D1*
X576377Y955541D1*
X579067Y954170D1*
X581509Y952395D1*
X583645Y950260D1*
X585419Y947818D1*
X586790Y945128D1*
X587723Y942257D1*
X588196Y939275D1*
Y936256D1*
X1037460Y671247D2*
X1036987Y668264D1*
X1036054Y665394D1*
X1034683Y662704D1*
X1032908Y660261D1*
X1030773Y658126D1*
X1028331Y656352D1*
X1025641Y654981D1*
X1022771Y654047D1*
X1019788Y653575D1*
X1016769D1*
X1013786Y654047D1*
X1010916Y654981D1*
X1008226Y656352D1*
X1005784Y658126D1*
X1003649Y660261D1*
X1001874Y662704D1*
X1000503Y665394D1*
X999570Y668264D1*
X999097Y671247D1*
Y674265D1*
X999570Y677248D1*
X1000503Y680118D1*
X1001874Y682809D1*
X1003649Y685251D1*
X1005784Y687386D1*
X1008226Y689160D1*
X1010916Y690532D1*
X1013786Y691465D1*
X1016769Y691937D1*
X1019788D1*
X1022771Y691465D1*
X1025641Y690532D1*
X1028331Y689160D1*
X1030773Y687386D1*
X1032908Y685251D1*
X1034683Y682809D1*
X1036054Y680118D1*
X1036987Y677248D1*
X1037460Y674265D1*
Y671247D1*
X950697Y1648756D2*
X950225Y1645773D1*
X949292Y1642903D1*
X947920Y1640213D1*
X946146Y1637771D1*
X944011Y1635635D1*
X941568Y1633861D1*
X938878Y1632490D1*
X936008Y1631557D1*
X933025Y1631084D1*
X930007D1*
X927024Y1631557D1*
X924154Y1632490D1*
X921464Y1633861D1*
X919021Y1635635D1*
X916886Y1637771D1*
X915112Y1640213D1*
X913740Y1642903D1*
X912807Y1645773D1*
X912335Y1648756D1*
Y1651775D1*
X912807Y1654757D1*
X913740Y1657628D1*
X915112Y1660318D1*
X916886Y1662760D1*
X919021Y1664895D1*
X921464Y1666670D1*
X924154Y1668041D1*
X927024Y1668974D1*
X930007Y1669446D1*
X933025D1*
X936008Y1668974D1*
X938878Y1668041D1*
X941568Y1666670D1*
X944011Y1664895D1*
X946146Y1662760D1*
X947920Y1660318D1*
X949292Y1657628D1*
X950225Y1654757D1*
X950697Y1651775D1*
Y1648756D1*
X994446Y1623757D2*
X993974Y1620775D1*
X993041Y1617904D1*
X991670Y1615214D1*
X989895Y1612772D1*
X987760Y1610637D1*
X985318Y1608862D1*
X982628Y1607491D1*
X979757Y1606558D1*
X976775Y1606086D1*
X973756D1*
X970773Y1606558D1*
X967903Y1607491D1*
X965213Y1608862D1*
X962771Y1610637D1*
X960635Y1612772D1*
X958861Y1615214D1*
X957490Y1617904D1*
X956557Y1620775D1*
X956084Y1623757D1*
Y1626776D1*
X956557Y1629759D1*
X957490Y1632629D1*
X958861Y1635319D1*
X960635Y1637761D1*
X962771Y1639897D1*
X965213Y1641671D1*
X967903Y1643042D1*
X970773Y1643975D1*
X973756Y1644448D1*
X976775D1*
X979757Y1643975D1*
X982628Y1643042D1*
X985318Y1641671D1*
X987760Y1639897D1*
X989895Y1637761D1*
X991670Y1635319D1*
X993041Y1632629D1*
X993974Y1629759D1*
X994446Y1626776D1*
Y1623757D1*
X600697Y1523757D2*
X600225Y1520775D1*
X599292Y1517904D1*
X597920Y1515214D1*
X596146Y1512772D1*
X594011Y1510637D1*
X591568Y1508862D1*
X588878Y1507491D1*
X586008Y1506558D1*
X583025Y1506086D1*
X580007D1*
X577024Y1506558D1*
X574154Y1507491D1*
X571464Y1508862D1*
X569021Y1510637D1*
X566886Y1512772D1*
X565112Y1515214D1*
X563740Y1517904D1*
X562807Y1520775D1*
X562335Y1523757D1*
Y1526776D1*
X562807Y1529759D1*
X563740Y1532629D1*
X565112Y1535319D1*
X566886Y1537761D1*
X569021Y1539897D1*
X571464Y1541671D1*
X574154Y1543042D1*
X577024Y1543975D1*
X580007Y1544448D1*
X583025D1*
X586008Y1543975D1*
X588878Y1543042D1*
X591568Y1541671D1*
X594011Y1539897D1*
X596146Y1537761D1*
X597920Y1535319D1*
X599292Y1532629D1*
X600225Y1529759D1*
X600697Y1526776D1*
Y1523757D1*
X850697Y1642507D2*
X850225Y1639524D1*
X849292Y1636654D1*
X847920Y1633964D1*
X846146Y1631521D1*
X844011Y1629386D1*
X841568Y1627612D1*
X838878Y1626240D1*
X836008Y1625307D1*
X833025Y1624835D1*
X830007D1*
X827024Y1625307D1*
X824154Y1626240D1*
X821464Y1627612D1*
X819021Y1629386D1*
X816886Y1631521D1*
X815112Y1633964D1*
X813740Y1636654D1*
X812807Y1639524D1*
X812335Y1642507D1*
Y1645525D1*
X812807Y1648508D1*
X813740Y1651378D1*
X815112Y1654068D1*
X816886Y1656511D1*
X819021Y1658646D1*
X821464Y1660420D1*
X824154Y1661792D1*
X827024Y1662725D1*
X830007Y1663197D1*
X833025D1*
X836008Y1662725D1*
X838878Y1661792D1*
X841568Y1660420D1*
X844011Y1658646D1*
X846146Y1656511D1*
X847920Y1654068D1*
X849292Y1651378D1*
X850225Y1648508D1*
X850697Y1645525D1*
Y1642507D1*
X850225Y1639524D1*
X849292Y1636654D1*
X847920Y1633964D1*
X846146Y1631521D1*
X844011Y1629386D1*
X841568Y1627612D1*
X838878Y1626240D1*
X836008Y1625307D1*
X833025Y1624835D1*
X830007D1*
X827024Y1625307D1*
X824154Y1626240D1*
X821464Y1627612D1*
X819021Y1629386D1*
X816886Y1631521D1*
X815112Y1633964D1*
X813740Y1636654D1*
X812807Y1639524D1*
X812335Y1642507D1*
Y1645525D1*
X812807Y1648508D1*
X813740Y1651378D1*
X815112Y1654068D1*
X816886Y1656511D1*
X819021Y1658646D1*
X821464Y1660420D1*
X824154Y1661792D1*
X827024Y1662725D1*
X830007Y1663197D1*
X833025D1*
X836008Y1662725D1*
X838878Y1661792D1*
X841568Y1660420D1*
X844011Y1658646D1*
X846146Y1656511D1*
X847920Y1654068D1*
X849292Y1651378D1*
X850225Y1648508D1*
X850697Y1645525D1*
Y1642507D1*
X1581946Y1211257D2*
X1581474Y1208275D1*
X1580541Y1205404D1*
X1579170Y1202714D1*
X1577395Y1200272D1*
X1575260Y1198137D1*
X1572818Y1196362D1*
X1570128Y1194991D1*
X1567257Y1194058D1*
X1564275Y1193586D1*
X1561256D1*
X1558273Y1194058D1*
X1555403Y1194991D1*
X1552713Y1196362D1*
X1550271Y1198137D1*
X1548135Y1200272D1*
X1546361Y1202714D1*
X1544990Y1205404D1*
X1544057Y1208275D1*
X1543584Y1211257D1*
Y1214276D1*
X1544057Y1217259D1*
X1544990Y1220129D1*
X1546361Y1222819D1*
X1548135Y1225261D1*
X1550271Y1227397D1*
X1552713Y1229171D1*
X1555403Y1230542D1*
X1558273Y1231475D1*
X1561256Y1231948D1*
X1564275D1*
X1567257Y1231475D1*
X1570128Y1230542D1*
X1572818Y1229171D1*
X1575260Y1227397D1*
X1577395Y1225261D1*
X1579170Y1222819D1*
X1580541Y1220129D1*
X1581474Y1217259D1*
X1581946Y1214276D1*
Y1211257D1*
X606945Y892506D2*
X606473Y889523D1*
X605540Y886652D1*
X604168Y883962D1*
X602394Y881520D1*
X600259Y879385D1*
X597817Y877610D1*
X595126Y876239D1*
X592256Y875306D1*
X589273Y874834D1*
X586255D1*
X583272Y875306D1*
X580402Y876239D1*
X577712Y877610D1*
X575269Y879385D1*
X573134Y881520D1*
X571360Y883962D1*
X569988Y886652D1*
X569055Y889523D1*
X568583Y892506D1*
Y895524D1*
X569055Y898507D1*
X569988Y901377D1*
X571360Y904067D1*
X573134Y906509D1*
X575269Y908645D1*
X577712Y910419D1*
X580402Y911790D1*
X583272Y912723D1*
X586255Y913196D1*
X589273D1*
X592256Y912723D1*
X595126Y911790D1*
X597817Y910419D1*
X600259Y908645D1*
X602394Y906509D1*
X604168Y904067D1*
X605540Y901377D1*
X606473Y898507D1*
X606945Y895524D1*
Y892506D1*
X550697Y836257D2*
X550225Y833275D1*
X549292Y830404D1*
X547920Y827714D1*
X546146Y825272D1*
X544011Y823137D1*
X541568Y821362D1*
X538878Y819991D1*
X536008Y819058D1*
X533025Y818586D1*
X530007D1*
X527024Y819058D1*
X524154Y819991D1*
X521464Y821362D1*
X519021Y823137D1*
X516886Y825272D1*
X515112Y827714D1*
X513740Y830404D1*
X512807Y833275D1*
X512335Y836257D1*
Y839276D1*
X512807Y842259D1*
X513740Y845129D1*
X515112Y847819D1*
X516886Y850261D1*
X519021Y852397D1*
X521464Y854171D1*
X524154Y855542D1*
X527024Y856475D1*
X530007Y856948D1*
X533025D1*
X536008Y856475D1*
X538878Y855542D1*
X541568Y854171D1*
X544011Y852397D1*
X546146Y850261D1*
X547920Y847819D1*
X549292Y845129D1*
X550225Y842259D1*
X550697Y839276D1*
Y836257D1*
X1300697Y1580007D2*
X1300225Y1577024D1*
X1299292Y1574154D1*
X1297920Y1571464D1*
X1296146Y1569021D1*
X1294011Y1566886D1*
X1291568Y1565112D1*
X1288878Y1563740D1*
X1286008Y1562807D1*
X1283025Y1562335D1*
X1280007D1*
X1277024Y1562807D1*
X1274154Y1563740D1*
X1271464Y1565112D1*
X1269021Y1566886D1*
X1266886Y1569021D1*
X1265112Y1571464D1*
X1263740Y1574154D1*
X1262807Y1577024D1*
X1262335Y1580007D1*
Y1583025D1*
X1262807Y1586008D1*
X1263740Y1588878D1*
X1265112Y1591568D1*
X1266886Y1594011D1*
X1269021Y1596146D1*
X1271464Y1597920D1*
X1274154Y1599292D1*
X1277024Y1600225D1*
X1280007Y1600697D1*
X1283025D1*
X1286008Y1600225D1*
X1288878Y1599292D1*
X1291568Y1597920D1*
X1294011Y1596146D1*
X1296146Y1594011D1*
X1297920Y1591568D1*
X1299292Y1588878D1*
X1300225Y1586008D1*
X1300697Y1583025D1*
Y1580007D1*
X1619448Y1480007D2*
X1618975Y1477024D1*
X1618042Y1474154D1*
X1616671Y1471464D1*
X1614897Y1469021D1*
X1612761Y1466886D1*
X1610319Y1465112D1*
X1607629Y1463740D1*
X1604759Y1462807D1*
X1601776Y1462335D1*
X1598757D1*
X1595775Y1462807D1*
X1592904Y1463740D1*
X1590214Y1465112D1*
X1587772Y1466886D1*
X1585637Y1469021D1*
X1583862Y1471464D1*
X1582491Y1474154D1*
X1581558Y1477024D1*
X1581086Y1480007D1*
Y1483025D1*
X1581558Y1486008D1*
X1582491Y1488878D1*
X1583862Y1491568D1*
X1585637Y1494011D1*
X1587772Y1496146D1*
X1590214Y1497920D1*
X1592904Y1499292D1*
X1595775Y1500225D1*
X1598757Y1500697D1*
X1601776D1*
X1604759Y1500225D1*
X1607629Y1499292D1*
X1610319Y1497920D1*
X1612761Y1496146D1*
X1614897Y1494011D1*
X1616671Y1491568D1*
X1618042Y1488878D1*
X1618975Y1486008D1*
X1619448Y1483025D1*
Y1480007D1*
X1300697Y1580007D2*
X1300225Y1577024D1*
X1299292Y1574154D1*
X1297920Y1571464D1*
X1296146Y1569021D1*
X1294011Y1566886D1*
X1291568Y1565112D1*
X1288878Y1563740D1*
X1286008Y1562807D1*
X1283025Y1562335D1*
X1280007D1*
X1277024Y1562807D1*
X1274154Y1563740D1*
X1271464Y1565112D1*
X1269021Y1566886D1*
X1266886Y1569021D1*
X1265112Y1571464D1*
X1263740Y1574154D1*
X1262807Y1577024D1*
X1262335Y1580007D1*
Y1583025D1*
X1262807Y1586008D1*
X1263740Y1588878D1*
X1265112Y1591568D1*
X1266886Y1594011D1*
X1269021Y1596146D1*
X1271464Y1597920D1*
X1274154Y1599292D1*
X1277024Y1600225D1*
X1280007Y1600697D1*
X1283025D1*
X1286008Y1600225D1*
X1288878Y1599292D1*
X1291568Y1597920D1*
X1294011Y1596146D1*
X1296146Y1594011D1*
X1297920Y1591568D1*
X1299292Y1588878D1*
X1300225Y1586008D1*
X1300697Y1583025D1*
Y1580007D1*
X1094448Y498756D2*
X1093975Y495775D1*
X1093042Y492903D1*
X1091671Y490213D1*
X1089897Y487771D1*
X1087761Y485635D1*
X1085319Y483861D1*
X1082629Y482491D1*
X1079759Y481558D1*
X1076776Y481086D1*
X1073757D1*
X1070775Y481558D1*
X1067904Y482491D1*
X1065214Y483861D1*
X1062772Y485635D1*
X1060637Y487771D1*
X1058862Y490213D1*
X1057491Y492903D1*
X1056558Y495775D1*
X1056086Y498756D1*
Y501776D1*
X1056558Y504757D1*
X1057491Y507629D1*
X1058862Y510319D1*
X1060637Y512761D1*
X1062772Y514897D1*
X1065214Y516671D1*
X1067904Y518041D1*
X1070775Y518974D1*
X1073757Y519446D1*
X1076776D1*
X1079759Y518974D1*
X1082629Y518041D1*
X1085319Y516671D1*
X1087761Y514897D1*
X1089897Y512761D1*
X1091671Y510319D1*
X1093042Y507629D1*
X1093975Y504757D1*
X1094448Y501776D1*
Y498756D1*
X1269448Y511257D2*
X1268975Y508275D1*
X1268042Y505404D1*
X1266671Y502714D1*
X1264897Y500272D1*
X1262761Y498137D1*
X1260319Y496362D1*
X1257629Y494991D1*
X1254759Y494058D1*
X1251776Y493586D1*
X1248757D1*
X1245775Y494058D1*
X1242904Y494991D1*
X1240214Y496362D1*
X1237772Y498137D1*
X1235637Y500272D1*
X1233862Y502714D1*
X1232491Y505404D1*
X1231558Y508275D1*
X1231086Y511257D1*
Y514276D1*
X1231558Y517259D1*
X1232491Y520129D1*
X1233862Y522819D1*
X1235637Y525261D1*
X1237772Y527397D1*
X1240214Y529171D1*
X1242904Y530542D1*
X1245775Y531475D1*
X1248757Y531948D1*
X1251776D1*
X1254759Y531475D1*
X1257629Y530542D1*
X1260319Y529171D1*
X1262761Y527397D1*
X1264897Y525261D1*
X1266671Y522819D1*
X1268042Y520129D1*
X1268975Y517259D1*
X1269448Y514276D1*
Y511257D1*
X1339131Y1605008D2*
X1338659Y1602025D1*
X1337726Y1599155D1*
X1336355Y1596465D1*
X1334580Y1594023D1*
X1332445Y1591887D1*
X1330003Y1590113D1*
X1327313Y1588742D1*
X1324443Y1587809D1*
X1321460Y1587336D1*
X1318441D1*
X1315458Y1587809D1*
X1312588Y1588742D1*
X1309898Y1590113D1*
X1307456Y1591887D1*
X1305320Y1594023D1*
X1303546Y1596465D1*
X1302175Y1599155D1*
X1301242Y1602025D1*
X1300769Y1605008D1*
Y1608026D1*
X1301242Y1611009D1*
X1302175Y1613880D1*
X1303546Y1616570D1*
X1305320Y1619012D1*
X1307456Y1621147D1*
X1309898Y1622922D1*
X1312588Y1624293D1*
X1315458Y1625226D1*
X1318441Y1625698D1*
X1321460D1*
X1324443Y1625226D1*
X1327313Y1624293D1*
X1330003Y1622922D1*
X1332445Y1621147D1*
X1334580Y1619012D1*
X1336355Y1616570D1*
X1337726Y1613880D1*
X1338659Y1611009D1*
X1339131Y1608026D1*
Y1605008D1*
X1031946D2*
X1031474Y1602025D1*
X1030541Y1599155D1*
X1029170Y1596465D1*
X1027395Y1594023D1*
X1025260Y1591887D1*
X1022818Y1590113D1*
X1020128Y1588742D1*
X1017257Y1587809D1*
X1014275Y1587336D1*
X1011256D1*
X1008273Y1587809D1*
X1005403Y1588742D1*
X1002713Y1590113D1*
X1000271Y1591887D1*
X998135Y1594023D1*
X996361Y1596465D1*
X994990Y1599155D1*
X994057Y1602025D1*
X993584Y1605008D1*
Y1608026D1*
X994057Y1611009D1*
X994990Y1613880D1*
X996361Y1616570D1*
X998135Y1619012D1*
X1000271Y1621147D1*
X1002713Y1622922D1*
X1005403Y1624293D1*
X1008273Y1625226D1*
X1011256Y1625698D1*
X1014275D1*
X1017257Y1625226D1*
X1020128Y1624293D1*
X1022818Y1622922D1*
X1025260Y1621147D1*
X1027395Y1619012D1*
X1029170Y1616570D1*
X1030541Y1613880D1*
X1031474Y1611009D1*
X1031946Y1608026D1*
Y1605008D1*
Y1386257D2*
X1031474Y1383275D1*
X1030541Y1380404D1*
X1029170Y1377714D1*
X1027395Y1375272D1*
X1025260Y1373137D1*
X1022818Y1371362D1*
X1020128Y1369991D1*
X1017257Y1369058D1*
X1014275Y1368586D1*
X1011256D1*
X1008273Y1369058D1*
X1005403Y1369991D1*
X1002713Y1371362D1*
X1000271Y1373137D1*
X998135Y1375272D1*
X996361Y1377714D1*
X994990Y1380404D1*
X994057Y1383275D1*
X993584Y1386257D1*
Y1389276D1*
X994057Y1392259D1*
X994990Y1395129D1*
X996361Y1397819D1*
X998135Y1400261D1*
X1000271Y1402397D1*
X1002713Y1404171D1*
X1005403Y1405542D1*
X1008273Y1406475D1*
X1011256Y1406948D1*
X1014275D1*
X1017257Y1406475D1*
X1020128Y1405542D1*
X1022818Y1404171D1*
X1025260Y1402397D1*
X1027395Y1400261D1*
X1029170Y1397819D1*
X1030541Y1395129D1*
X1031474Y1392259D1*
X1031946Y1389276D1*
Y1386257D1*
X800697Y1186256D2*
X800225Y1183273D1*
X799292Y1180403D1*
X797920Y1177713D1*
X796146Y1175271D1*
X794011Y1173135D1*
X791568Y1171361D1*
X788878Y1169990D1*
X786008Y1169057D1*
X783025Y1168584D1*
X780007D1*
X777024Y1169057D1*
X774154Y1169990D1*
X771464Y1171361D1*
X769021Y1173135D1*
X766886Y1175271D1*
X765112Y1177713D1*
X763740Y1180403D1*
X762807Y1183273D1*
X762335Y1186256D1*
Y1189275D1*
X762807Y1192257D1*
X763740Y1195128D1*
X765112Y1197818D1*
X766886Y1200260D1*
X769021Y1202395D1*
X771464Y1204170D1*
X774154Y1205541D1*
X777024Y1206474D1*
X780007Y1206946D1*
X783025D1*
X786008Y1206474D1*
X788878Y1205541D1*
X791568Y1204170D1*
X794011Y1202395D1*
X796146Y1200260D1*
X797920Y1197818D1*
X799292Y1195128D1*
X800225Y1192257D1*
X800697Y1189275D1*
Y1186256D1*
X1600697Y1605008D2*
X1600225Y1602025D1*
X1599292Y1599155D1*
X1597920Y1596465D1*
X1596146Y1594023D1*
X1594011Y1591887D1*
X1591568Y1590113D1*
X1588878Y1588742D1*
X1586008Y1587809D1*
X1583025Y1587336D1*
X1580007D1*
X1577024Y1587809D1*
X1574154Y1588742D1*
X1571464Y1590113D1*
X1569021Y1591887D1*
X1566886Y1594023D1*
X1565112Y1596465D1*
X1563740Y1599155D1*
X1562807Y1602025D1*
X1562335Y1605008D1*
Y1608026D1*
X1562807Y1611009D1*
X1563740Y1613880D1*
X1565112Y1616570D1*
X1566886Y1619012D1*
X1569021Y1621147D1*
X1571464Y1622922D1*
X1574154Y1624293D1*
X1577024Y1625226D1*
X1580007Y1625698D1*
X1583025D1*
X1586008Y1625226D1*
X1588878Y1624293D1*
X1591568Y1622922D1*
X1594011Y1621147D1*
X1596146Y1619012D1*
X1597920Y1616570D1*
X1599292Y1613880D1*
X1600225Y1611009D1*
X1600697Y1608026D1*
Y1605008D1*
X1339131D2*
X1338659Y1602025D1*
X1337726Y1599155D1*
X1336355Y1596465D1*
X1334580Y1594023D1*
X1332445Y1591887D1*
X1330003Y1590113D1*
X1327313Y1588742D1*
X1324443Y1587809D1*
X1321460Y1587336D1*
X1318441D1*
X1315458Y1587809D1*
X1312588Y1588742D1*
X1309898Y1590113D1*
X1307456Y1591887D1*
X1305320Y1594023D1*
X1303546Y1596465D1*
X1302175Y1599155D1*
X1301242Y1602025D1*
X1300769Y1605008D1*
Y1608026D1*
X1301242Y1611009D1*
X1302175Y1613880D1*
X1303546Y1616570D1*
X1305320Y1619012D1*
X1307456Y1621147D1*
X1309898Y1622922D1*
X1312588Y1624293D1*
X1315458Y1625226D1*
X1318441Y1625698D1*
X1321460D1*
X1324443Y1625226D1*
X1327313Y1624293D1*
X1330003Y1622922D1*
X1332445Y1621147D1*
X1334580Y1619012D1*
X1336355Y1616570D1*
X1337726Y1613880D1*
X1338659Y1611009D1*
X1339131Y1608026D1*
Y1605008D1*
X1776323Y1119016D2*
X1861709D1*
X1731288Y1944016D2*
X1806744D1*
X1702788Y877776D2*
X1785244D1*
D33*
X1819016Y1119016D3*
D34*
Y1219016D3*
Y1319016D3*
Y1419016D3*
Y1519016D3*
Y1619016D3*
Y1719016D3*
D36*
X1769016Y1944016D3*
Y1865276D3*
D37*
X1744016Y956516D3*
Y877776D3*
Y799036D3*
D41*
X748347Y1358583D3*
M02*
