G04 DipTrace 3.2.0.0*
G04 LFTlayout-TopSilk.gto*
%MOIN*%
G04 #@! TF.FileFunction,Legend,Top*
G04 #@! TF.Part,Single*
%ADD10C,0.009843*%
%ADD15C,0.007874*%
%ADD23C,0.008*%
%ADD31C,0.015749*%
%ADD42C,0.015404*%
%ADD45O,0.016152X0.015352*%
%ADD53C,0.015413*%
%ADD55O,0.018307X0.017324*%
%ADD57C,0.005906*%
%ADD62C,0.019684*%
%ADD135C,0.004632*%
%ADD136C,0.006176*%
%FSLAX26Y26*%
G04*
G70*
G90*
G75*
G01*
G04 TopSilk*
%LPD*%
X524002Y1710226D2*
D23*
G02X484011Y1800297I25157J65083D01*
G01*
Y2100234D2*
G02X524002Y2190304I65148J24987D01*
G01*
X823868D1*
X943843Y2070210D1*
Y1830320D1*
X823868Y1710226D1*
X524002D1*
X484011Y2100234D2*
G02X484011Y1800297I-150032J-149969D01*
G01*
X884317Y571362D2*
D10*
Y586651D1*
X909326Y571362D2*
Y586651D1*
X674532Y558107D2*
Y542818D1*
X649523Y558107D2*
Y542818D1*
X1394018Y1475170D2*
Y1487668D1*
X1444014Y1475170D2*
Y1487668D1*
X1187863Y1319019D2*
X1175366D1*
X1187863Y1369015D2*
X1175366D1*
X1187863Y1231519D2*
X1175366D1*
X1187863Y1281515D2*
X1175366D1*
X687863Y806518D2*
X675366D1*
X687863Y856514D2*
X675366D1*
X750270Y929367D2*
Y914077D1*
X725261Y929367D2*
Y914077D1*
X918274Y937405D2*
Y952695D1*
X943283Y937405D2*
Y952695D1*
X974523Y937405D2*
Y952695D1*
X999532Y937405D2*
Y952695D1*
X1162023Y912405D2*
Y927695D1*
X1187032Y912405D2*
Y927695D1*
X1230774Y912405D2*
Y927695D1*
X1255783Y912405D2*
Y927695D1*
X994020Y1729367D2*
Y1714077D1*
X969012Y1729367D2*
Y1714077D1*
X510617Y1394012D2*
X495328D1*
X510617Y1419020D2*
X495328D1*
X1187761Y1433667D2*
Y1448956D1*
X1212770Y1433667D2*
Y1448956D1*
X1318273Y802610D2*
Y817900D1*
X1343281Y802610D2*
Y817900D1*
X1443274Y746361D2*
Y761650D1*
X1468283Y746361D2*
Y761650D1*
X1456520Y548117D2*
Y532828D1*
X1431512Y548117D2*
Y532828D1*
X1631520Y548117D2*
Y532828D1*
X1606512Y548117D2*
Y532828D1*
X1241883Y691510D2*
X1257172D1*
X1241883Y666501D2*
X1257172D1*
X1141883Y591511D2*
X1157172D1*
X1141883Y566502D2*
X1157172D1*
X1129383Y791510D2*
X1144672D1*
X1129383Y766501D2*
X1144672D1*
X1566802Y1128268D2*
Y1159764D1*
Y1359519D2*
Y1391015D1*
X1575017Y731755D2*
Y802634D1*
X1638012Y731755D2*
Y802634D1*
D31*
X1606515Y662864D3*
X1638015Y1000028D2*
D10*
Y929149D1*
X1575020Y1000028D2*
Y929149D1*
D31*
X1606517Y1068918D3*
X1769025Y1983378D2*
D23*
X1698150D1*
Y2022756D1*
X2005236D1*
Y1786536D1*
X1698150D1*
Y1825914D1*
X1769025D1*
X1692835Y1035256D2*
X1999922D1*
Y720296D1*
X1692835D1*
Y1035256D2*
Y1007697D1*
Y720296D2*
Y747855D1*
Y1007697D2*
X1744026D1*
X1692835Y747855D2*
X1744026D1*
X1396728Y1229399D2*
D10*
X1349472D1*
X1396728Y1371135D2*
X1349472D1*
X1644020Y2191867D2*
Y2176577D1*
X1619012Y2191867D2*
Y2176577D1*
X1099523Y858862D2*
Y874151D1*
X1124532Y858862D2*
Y874151D1*
X1241883Y791510D2*
X1257172D1*
X1241883Y766501D2*
X1257172D1*
X1393283Y761650D2*
Y746361D1*
X1368274Y761650D2*
Y746361D1*
X1432172Y641502D2*
X1416883D1*
X1432172Y666511D2*
X1416883D1*
X1523871Y581520D2*
X1539161D1*
X1523871Y556512D2*
X1539161D1*
X1124532Y661651D2*
Y646362D1*
X1099523Y661651D2*
Y646362D1*
X1187032Y661651D2*
Y646362D1*
X1162023Y661651D2*
Y646362D1*
D42*
X481916Y560556D3*
X491117Y610698D2*
D10*
X609222D1*
Y630384D1*
X491117D1*
Y610698D1*
X1001677Y585260D2*
X1016966D1*
X1001677Y560252D2*
X1016966D1*
X1002415Y512771D2*
X1017704D1*
X1002415Y487762D2*
X1017704D1*
X1623871Y1225271D2*
X1639161D1*
X1623871Y1200262D2*
X1639161D1*
X1621165Y1456520D2*
X1636455D1*
X1621165Y1431512D2*
X1636455D1*
X1619012Y2077415D2*
Y2092704D1*
X1644020Y2077415D2*
Y2092704D1*
X855122Y1619020D2*
X870411D1*
X855122Y1594012D2*
X870411D1*
X855121Y1556520D2*
X870410D1*
X855121Y1531512D2*
X870410D1*
X1606512Y1573873D2*
Y1589162D1*
X1631520Y1573873D2*
Y1589162D1*
X1700270Y1589161D2*
Y1573871D1*
X1675261Y1589161D2*
Y1573871D1*
X712824Y988802D2*
X701030Y976983D1*
X712824Y1134474D2*
X701030D1*
X712824D2*
Y1122655D1*
X555281Y1134474D2*
Y1122655D1*
Y1134474D2*
X567117D1*
X555281Y976983D2*
Y988802D1*
Y976983D2*
X567117D1*
D45*
X744123Y1006713D3*
X1055154Y1665177D2*
D10*
X1535423D1*
X1055154Y2299036D2*
X1535423D1*
G36*
X1574813Y1708470D2*
X1594508Y1692750D1*
Y1724253D1*
X1574813Y1708470D1*
G37*
X861343Y701405D2*
D10*
Y673840D1*
X884965D2*
X861343D1*
Y839192D2*
Y811627D1*
X888902Y839192D2*
X861343D1*
X1022757D2*
Y811627D1*
Y839192D2*
X995198D1*
X999135Y673840D2*
X1026694Y701405D1*
D31*
X1038504Y693532D3*
D53*
X1259570Y1390140D3*
X1241210Y1422265D2*
D15*
Y1540389D1*
X1359320Y1422265D2*
Y1540389D1*
D55*
X551003Y1451943D3*
X442046Y1511781D2*
D10*
Y1535405D1*
X489290Y1582651D2*
X512912D1*
X560156Y1535405D2*
Y1511781D1*
X512912Y1464535D2*
X489290D1*
X1268970Y564882D2*
D57*
Y584563D1*
X1288648D1*
X1347712D2*
X1367390D1*
Y564882D1*
Y505828D2*
Y486148D1*
X1347712D1*
X1288648D2*
X1268970Y505828D1*
G36*
X1290385Y457191D2*
X1300229Y476871D1*
X1310073Y457191D1*
D1*
X1290385D1*
G37*
D62*
X695624Y632711D3*
X845295Y656663D2*
D10*
X711431D1*
Y491309D1*
X845295D1*
Y656663D1*
X555835Y2241699D2*
D135*
Y2211555D1*
X568768D1*
X573079Y2213014D1*
X574505Y2214440D1*
X575931Y2217292D1*
Y2221603D1*
X574505Y2224488D1*
X573079Y2225914D1*
X568768Y2227340D1*
X573079Y2228799D1*
X574505Y2230225D1*
X575931Y2233077D1*
Y2235962D1*
X574505Y2238814D1*
X573079Y2240273D1*
X568768Y2241699D1*
X555835D1*
Y2227340D2*
X568768D1*
X585195Y2235929D2*
X588080Y2237388D1*
X592391Y2241666D1*
Y2211555D1*
X899353Y660069D2*
X897927Y662921D1*
X895042Y665806D1*
X892190Y667232D1*
X886453D1*
X883568Y665806D1*
X880716Y662921D1*
X879257Y660069D1*
X877831Y655758D1*
Y648562D1*
X879257Y644284D1*
X880716Y641399D1*
X883568Y638547D1*
X886453Y637088D1*
X892190D1*
X895042Y638547D1*
X897927Y641399D1*
X899353Y644284D1*
X908616Y661462D2*
X911502Y662921D1*
X915813Y667199D1*
Y637088D1*
X650257Y465835D2*
X647405Y464409D1*
X644520Y461524D1*
X643094Y458672D1*
Y452935D1*
X644520Y450050D1*
X647405Y447198D1*
X650257Y445739D1*
X654568Y444313D1*
X661764D1*
X666042Y445739D1*
X668927Y447198D1*
X671779Y450050D1*
X673238Y452935D1*
Y458672D1*
X671779Y461524D1*
X668927Y464409D1*
X666042Y465835D1*
X650290Y476557D2*
X648864D1*
X645979Y477983D1*
X644553Y479409D1*
X643127Y482294D1*
Y488031D1*
X644553Y490883D1*
X645979Y492309D1*
X648864Y493768D1*
X651716D1*
X654601Y492309D1*
X658879Y489457D1*
X673238Y475098D1*
Y495194D1*
X1469745Y1484243D2*
X1466893Y1482817D1*
X1464008Y1479932D1*
X1462582Y1477080D1*
Y1471343D1*
X1464008Y1468458D1*
X1466893Y1465606D1*
X1469745Y1464147D1*
X1474056Y1462721D1*
X1481252D1*
X1485530Y1464147D1*
X1488415Y1465606D1*
X1491267Y1468458D1*
X1492726Y1471343D1*
Y1477080D1*
X1491267Y1479932D1*
X1488415Y1482817D1*
X1485530Y1484243D1*
X1462615Y1496392D2*
Y1512143D1*
X1474089Y1503554D1*
Y1507865D1*
X1475515Y1510717D1*
X1476941Y1512143D1*
X1481252Y1513602D1*
X1484104D1*
X1488415Y1512143D1*
X1491300Y1509291D1*
X1492726Y1504980D1*
Y1500669D1*
X1491300Y1496392D1*
X1489841Y1494966D1*
X1486989Y1493506D1*
X1076983Y1347816D2*
X1075557Y1350668D1*
X1072672Y1353553D1*
X1069820Y1354979D1*
X1064083D1*
X1061198Y1353553D1*
X1058346Y1350668D1*
X1056887Y1347816D1*
X1055461Y1343505D1*
Y1336309D1*
X1056887Y1332031D1*
X1058346Y1329146D1*
X1061198Y1326294D1*
X1064083Y1324835D1*
X1069820D1*
X1072672Y1326294D1*
X1075557Y1329146D1*
X1076983Y1332031D1*
X1100605Y1324835D2*
Y1354946D1*
X1086246Y1334883D1*
X1107768D1*
X1077696Y1260316D2*
X1076270Y1263168D1*
X1073385Y1266053D1*
X1070533Y1267479D1*
X1064796D1*
X1061911Y1266053D1*
X1059059Y1263168D1*
X1057600Y1260316D1*
X1056174Y1256005D1*
Y1248809D1*
X1057600Y1244531D1*
X1059059Y1241646D1*
X1061911Y1238794D1*
X1064796Y1237335D1*
X1070533D1*
X1073385Y1238794D1*
X1076270Y1241646D1*
X1077696Y1244531D1*
X1104170Y1267446D2*
X1089844D1*
X1088418Y1254546D1*
X1089844Y1255972D1*
X1094155Y1257431D1*
X1098433D1*
X1102744Y1255972D1*
X1105629Y1253120D1*
X1107055Y1248809D1*
Y1245957D1*
X1105629Y1241646D1*
X1102744Y1238761D1*
X1098433Y1237335D1*
X1094155D1*
X1089844Y1238761D1*
X1088418Y1240220D1*
X1086959Y1243072D1*
X678425Y897814D2*
X676999Y900666D1*
X674114Y903551D1*
X671262Y904977D1*
X665525D1*
X662640Y903551D1*
X659788Y900666D1*
X658329Y897814D1*
X656903Y893503D1*
Y886307D1*
X658329Y882029D1*
X659788Y879144D1*
X662640Y876293D1*
X665525Y874833D1*
X671262D1*
X674114Y876293D1*
X676999Y879144D1*
X678425Y882029D1*
X704900Y900666D2*
X703474Y903518D1*
X699163Y904944D1*
X696311D1*
X692000Y903518D1*
X689115Y899207D1*
X687689Y892044D1*
Y884881D1*
X689115Y879144D1*
X692000Y876259D1*
X696311Y874833D1*
X697737D1*
X702015Y876259D1*
X704900Y879144D1*
X706326Y883455D1*
Y884881D1*
X704900Y889192D1*
X702015Y892044D1*
X697737Y893470D1*
X696311D1*
X692000Y892044D1*
X689115Y889192D1*
X687689Y884881D1*
X775994Y918345D2*
X773143Y916919D1*
X770257Y914034D1*
X768832Y911182D1*
Y905445D1*
X770257Y902560D1*
X773143Y899708D1*
X775994Y898249D1*
X780305Y896823D1*
X787502D1*
X791779Y898249D1*
X794665Y899708D1*
X797516Y902560D1*
X798976Y905445D1*
Y911182D1*
X797516Y914034D1*
X794665Y916919D1*
X791779Y918345D1*
X798976Y933346D2*
X768865Y947705D1*
Y927609D1*
X919006Y1029190D2*
X916154Y1027764D1*
X913269Y1024879D1*
X911843Y1022027D1*
Y1016290D1*
X913269Y1013405D1*
X916154Y1010553D1*
X919006Y1009094D1*
X923317Y1007668D1*
X930513D1*
X934791Y1009094D1*
X937676Y1010553D1*
X940528Y1013405D1*
X941987Y1016290D1*
Y1022027D1*
X940528Y1024879D1*
X937676Y1027764D1*
X934791Y1029190D1*
X911877Y1045616D2*
X913302Y1041339D1*
X916154Y1039879D1*
X919039D1*
X921891Y1041339D1*
X923350Y1044190D1*
X924776Y1049927D1*
X926202Y1054238D1*
X929087Y1057090D1*
X931939Y1058516D1*
X936250D1*
X939102Y1057090D1*
X940561Y1055664D1*
X941987Y1051353D1*
Y1045616D1*
X940561Y1041339D1*
X939102Y1039879D1*
X936250Y1038453D1*
X931939D1*
X929087Y1039879D1*
X926202Y1042765D1*
X924776Y1047042D1*
X923350Y1052779D1*
X921891Y1055664D1*
X919039Y1057090D1*
X916154D1*
X913302Y1055664D1*
X911877Y1051353D1*
Y1045616D1*
X981508Y1029885D2*
X978656Y1028459D1*
X975771Y1025574D1*
X974345Y1022722D1*
Y1016985D1*
X975771Y1014100D1*
X978656Y1011248D1*
X981508Y1009789D1*
X985819Y1008363D1*
X993015D1*
X997293Y1009789D1*
X1000178Y1011248D1*
X1003030Y1014100D1*
X1004489Y1016985D1*
Y1022722D1*
X1003030Y1025574D1*
X1000178Y1028459D1*
X997293Y1029885D1*
X984393Y1057819D2*
X988704Y1056359D1*
X991589Y1053508D1*
X993015Y1049197D1*
Y1047771D1*
X991589Y1043460D1*
X988704Y1040608D1*
X984393Y1039149D1*
X982967D1*
X978656Y1040608D1*
X975804Y1043460D1*
X974378Y1047771D1*
Y1049197D1*
X975804Y1053508D1*
X978656Y1056360D1*
X984393Y1057819D1*
X991589D1*
X998752Y1056359D1*
X1003063Y1053508D1*
X1004489Y1049197D1*
Y1046345D1*
X1003063Y1042034D1*
X1000178Y1040608D1*
X1169006Y1002193D2*
X1166154Y1000767D1*
X1163269Y997882D1*
X1161843Y995030D1*
Y989293D1*
X1163269Y986408D1*
X1166154Y983556D1*
X1169006Y982097D1*
X1173317Y980671D1*
X1180513D1*
X1184791Y982097D1*
X1187676Y983556D1*
X1190528Y986408D1*
X1191987Y989293D1*
Y995030D1*
X1190528Y997882D1*
X1187676Y1000767D1*
X1184791Y1002193D1*
X1167614Y1011456D2*
X1166154Y1014342D1*
X1161877Y1018653D1*
X1191987Y1018652D1*
X1161877Y1036538D2*
X1163302Y1032227D1*
X1167614Y1029342D1*
X1174776Y1027916D1*
X1179087D1*
X1186250Y1029342D1*
X1190561Y1032227D1*
X1191987Y1036538D1*
Y1039390D1*
X1190561Y1043701D1*
X1186250Y1046553D1*
X1179087Y1048012D1*
X1174776D1*
X1167614Y1046553D1*
X1163302Y1043701D1*
X1161877Y1039390D1*
Y1036538D1*
X1167614Y1046553D2*
X1186250Y1029342D1*
X1231508Y1008643D2*
X1228656Y1007217D1*
X1225771Y1004332D1*
X1224345Y1001480D1*
Y995743D1*
X1225771Y992858D1*
X1228656Y990006D1*
X1231508Y988547D1*
X1235819Y987121D1*
X1243015D1*
X1247293Y988547D1*
X1250178Y990006D1*
X1253030Y992858D1*
X1254489Y995743D1*
Y1001480D1*
X1253030Y1004332D1*
X1250178Y1007217D1*
X1247293Y1008643D1*
X1230115Y1017906D2*
X1228656Y1020791D1*
X1224378Y1025103D1*
X1254489Y1025102D1*
X1230115Y1034366D2*
X1228656Y1037251D1*
X1224378Y1041562D1*
X1254489D1*
X925994Y1710116D2*
X923143Y1708690D1*
X920257Y1705805D1*
X918832Y1702953D1*
Y1697216D1*
X920257Y1694331D1*
X923143Y1691479D1*
X925994Y1690020D1*
X930305Y1688594D1*
X937502D1*
X941779Y1690020D1*
X944665Y1691479D1*
X947516Y1694331D1*
X948976Y1697216D1*
Y1702953D1*
X947516Y1705804D1*
X944665Y1708690D1*
X941779Y1710115D1*
X924602Y1719379D2*
X923143Y1722264D1*
X918865Y1726575D1*
X948976D1*
X926028Y1737298D2*
X924602D1*
X921717Y1738724D1*
X920291Y1740150D1*
X918865Y1743035D1*
Y1748772D1*
X920291Y1751624D1*
X921717Y1753050D1*
X924602Y1754509D1*
X927454D1*
X930339Y1753050D1*
X934617Y1750198D1*
X948976Y1735839D1*
Y1755935D1*
X464248Y1368829D2*
X462822Y1371681D1*
X459937Y1374566D1*
X457085Y1375992D1*
X451348D1*
X448463Y1374566D1*
X445611Y1371681D1*
X444152Y1368829D1*
X442726Y1364518D1*
Y1357322D1*
X444152Y1353044D1*
X445611Y1350159D1*
X448463Y1347307D1*
X451348Y1345848D1*
X457085D1*
X459937Y1347307D1*
X462822Y1350159D1*
X464248Y1353044D1*
X473512Y1370222D2*
X476397Y1371681D1*
X480708Y1375959D1*
Y1345848D1*
X492856Y1375959D2*
X508608D1*
X500019Y1364485D1*
X504330D1*
X507182Y1363059D1*
X508608Y1361633D1*
X510067Y1357322D1*
Y1354470D1*
X508608Y1350159D1*
X505756Y1347274D1*
X501445Y1345848D1*
X497134D1*
X492856Y1347274D1*
X491430Y1348733D1*
X489971Y1351585D1*
X1143166Y1424328D2*
X1140314Y1422902D1*
X1137429Y1420017D1*
X1136003Y1417165D1*
Y1411428D1*
X1137429Y1408543D1*
X1140314Y1405691D1*
X1143166Y1404232D1*
X1147477Y1402806D1*
X1154673D1*
X1158951Y1404232D1*
X1161836Y1405691D1*
X1164688Y1408543D1*
X1166147Y1411428D1*
Y1417165D1*
X1164688Y1420017D1*
X1161836Y1422902D1*
X1158951Y1424328D1*
X1141774Y1433591D2*
X1140315Y1436476D1*
X1136037Y1440787D1*
X1166147D1*
Y1464410D2*
X1136037D1*
X1156099Y1450051D1*
Y1471573D1*
X1325256Y890771D2*
X1322404Y889345D1*
X1319519Y886460D1*
X1318093Y883608D1*
Y877871D1*
X1319519Y874986D1*
X1322404Y872134D1*
X1325256Y870675D1*
X1329567Y869249D1*
X1336763D1*
X1341041Y870675D1*
X1343926Y872134D1*
X1346778Y874986D1*
X1348237Y877871D1*
Y883608D1*
X1346778Y886460D1*
X1343926Y889345D1*
X1341041Y890771D1*
X1348237Y922982D2*
X1318093Y922983D1*
X1348237Y911509D1*
X1318093Y900035D1*
X1348237D1*
X1318126Y940868D2*
X1319552Y936557D1*
X1323863Y933672D1*
X1331026Y932246D1*
X1335337D1*
X1342500Y933672D1*
X1346811Y936557D1*
X1348237Y940868D1*
Y943720D1*
X1346811Y948031D1*
X1342500Y950883D1*
X1335337Y952342D1*
X1331026D1*
X1323863Y950883D1*
X1319552Y948031D1*
X1318126Y943720D1*
Y940868D1*
X1323863Y950883D2*
X1342500Y933672D1*
X1450257Y834722D2*
X1447405Y833296D1*
X1444520Y830411D1*
X1443094Y827559D1*
Y821822D1*
X1444520Y818937D1*
X1447405Y816086D1*
X1450257Y814626D1*
X1454568Y813200D1*
X1461764D1*
X1466042Y814626D1*
X1468927Y816086D1*
X1471779Y818937D1*
X1473238Y821822D1*
Y827559D1*
X1471779Y830411D1*
X1468927Y833296D1*
X1466042Y834722D1*
X1473238Y866934D2*
X1443094D1*
X1473238Y855460D1*
X1443094Y843986D1*
X1473238D1*
X1448864Y876197D2*
X1447405Y879082D1*
X1443127Y883393D1*
X1473238D1*
X1394744Y514740D2*
X1391892Y513314D1*
X1389007Y510429D1*
X1387581Y507577D1*
Y501840D1*
X1389007Y498955D1*
X1391892Y496103D1*
X1394744Y494644D1*
X1399055Y493218D1*
X1406251D1*
X1410529Y494644D1*
X1413414Y496103D1*
X1416266Y498955D1*
X1417725Y501840D1*
Y507577D1*
X1416266Y510429D1*
X1413414Y513314D1*
X1410529Y514740D1*
X1417725Y546951D2*
X1387581D1*
X1417725Y535477D1*
X1387581Y524003D1*
X1417725D1*
X1394777Y557674D2*
X1393351D1*
X1390466Y559100D1*
X1389040Y560526D1*
X1387614Y563411D1*
Y569148D1*
X1389040Y572000D1*
X1390466Y573425D1*
X1393351Y574885D1*
X1396203D1*
X1399088Y573425D1*
X1403366Y570574D1*
X1417725Y556215D1*
Y576311D1*
X1657245Y520989D2*
X1654393Y519563D1*
X1651508Y516678D1*
X1650082Y513826D1*
Y508089D1*
X1651508Y505204D1*
X1654393Y502352D1*
X1657245Y500893D1*
X1661556Y499467D1*
X1668752D1*
X1673030Y500893D1*
X1675915Y502352D1*
X1678767Y505204D1*
X1680226Y508089D1*
Y513826D1*
X1678767Y516678D1*
X1675915Y519563D1*
X1673030Y520989D1*
X1680226Y553200D2*
X1650082D1*
X1680226Y541726D1*
X1650082Y530252D1*
X1680226D1*
X1650115Y565349D2*
Y581101D1*
X1661589Y572512D1*
Y576823D1*
X1663015Y579675D1*
X1664441Y581101D1*
X1668752Y582560D1*
X1671604D1*
X1675915Y581101D1*
X1678800Y578249D1*
X1680226Y573938D1*
Y569627D1*
X1678800Y565349D1*
X1677341Y563923D1*
X1674489Y562464D1*
X1312757Y665823D2*
X1309905Y664397D1*
X1307020Y661512D1*
X1305594Y658660D1*
Y652923D1*
X1307020Y650038D1*
X1309905Y647186D1*
X1312757Y645727D1*
X1317068Y644301D1*
X1324264D1*
X1328542Y645727D1*
X1331427Y647186D1*
X1334279Y650038D1*
X1335738Y652923D1*
Y658660D1*
X1334279Y661512D1*
X1331427Y664397D1*
X1328542Y665823D1*
X1319953Y675086D2*
Y687986D1*
X1318494Y692297D1*
X1317068Y693756D1*
X1314216Y695182D1*
X1311331D1*
X1308479Y693756D1*
X1307020Y692297D1*
X1305594Y687986D1*
Y675086D1*
X1335738D1*
X1319953Y685134D2*
X1335738Y695182D1*
X1311364Y704446D2*
X1309905Y707331D1*
X1305627Y711642D1*
X1335738D1*
X1137180Y545994D2*
X1135754Y548846D1*
X1132869Y551731D1*
X1130017Y553157D1*
X1124280D1*
X1121395Y551731D1*
X1118543Y548846D1*
X1117084Y545994D1*
X1115658Y541683D1*
Y534487D1*
X1117084Y530209D1*
X1118543Y527324D1*
X1121395Y524472D1*
X1124280Y523013D1*
X1130017D1*
X1132869Y524472D1*
X1135754Y527324D1*
X1137180Y530209D1*
X1146443Y538798D2*
X1159343D1*
X1163654Y540257D1*
X1165113Y541683D1*
X1166539Y544535D1*
Y547420D1*
X1165113Y550272D1*
X1163654Y551731D1*
X1159343Y553157D1*
X1146443D1*
Y523013D1*
X1156491Y538798D2*
X1166539Y523013D1*
X1177262Y545961D2*
Y547387D1*
X1178688Y550272D1*
X1180114Y551698D1*
X1182999Y553124D1*
X1188736D1*
X1191588Y551698D1*
X1193014Y550272D1*
X1194473Y547387D1*
Y544535D1*
X1193014Y541650D1*
X1190162Y537372D1*
X1175803Y523013D1*
X1195899D1*
X1091249Y745993D2*
X1089824Y748845D1*
X1086938Y751730D1*
X1084087Y753156D1*
X1078350D1*
X1075464Y751730D1*
X1072613Y748845D1*
X1071153Y745993D1*
X1069728Y741682D1*
Y734486D1*
X1071153Y730208D1*
X1072613Y727323D1*
X1075464Y724471D1*
X1078350Y723012D1*
X1084087D1*
X1086938Y724471D1*
X1089824Y727323D1*
X1091249Y730208D1*
X1110561Y753156D2*
Y723012D1*
X1100513Y753156D2*
X1120609D1*
X1129873D2*
X1149969Y723012D1*
Y753156D2*
X1129873Y723012D1*
X1167854Y753123D2*
X1163543Y751697D1*
X1160658Y747386D1*
X1159232Y740223D1*
Y735912D1*
X1160658Y728749D1*
X1163543Y724438D1*
X1167854Y723012D1*
X1170706D1*
X1175017Y724438D1*
X1177869Y728749D1*
X1179328Y735912D1*
Y740223D1*
X1177869Y747386D1*
X1175017Y751697D1*
X1170706Y753123D1*
X1167854D1*
X1177869Y747386D2*
X1160658Y728749D1*
X1509548Y1157635D2*
Y1127491D1*
X1519596D1*
X1523907Y1128950D1*
X1526792Y1131802D1*
X1528218Y1134687D1*
X1529644Y1138965D1*
Y1146161D1*
X1528218Y1150472D1*
X1526792Y1153324D1*
X1523907Y1156209D1*
X1519596Y1157635D1*
X1509548D1*
X1538907Y1151865D2*
X1541793Y1153324D1*
X1546104Y1157602D1*
Y1127491D1*
X1503098Y1388886D2*
Y1358742D1*
X1513146D1*
X1517457Y1360201D1*
X1520342Y1363053D1*
X1521768Y1365938D1*
X1523194Y1370215D1*
Y1377412D1*
X1521768Y1381723D1*
X1520342Y1384575D1*
X1517457Y1387460D1*
X1513146Y1388886D1*
X1503098D1*
X1533917Y1381689D2*
Y1383115D1*
X1535343Y1386000D1*
X1536769Y1387426D1*
X1539654Y1388852D1*
X1545391D1*
X1548242Y1387426D1*
X1549668Y1386000D1*
X1551128Y1383115D1*
Y1380263D1*
X1549668Y1377378D1*
X1546817Y1373101D1*
X1532457Y1358742D1*
X1552553D1*
X1529755Y715451D2*
X1559899D1*
Y725499D1*
X1558440Y729810D1*
X1555588Y732695D1*
X1552703Y734121D1*
X1548425Y735547D1*
X1541229D1*
X1536918Y734121D1*
X1534066Y732695D1*
X1531181Y729810D1*
X1529755Y725499D1*
Y715451D1*
X1529789Y747696D2*
Y763447D1*
X1541263Y754859D1*
Y759170D1*
X1542689Y762021D1*
X1544114Y763447D1*
X1548425Y764907D1*
X1551277D1*
X1555588Y763447D1*
X1558473Y760595D1*
X1559899Y756284D1*
Y751973D1*
X1558473Y747696D1*
X1557014Y746270D1*
X1554162Y744811D1*
X1531334Y963851D2*
X1561478D1*
Y973899D1*
X1560019Y978210D1*
X1557167Y981095D1*
X1554282Y982521D1*
X1550004Y983947D1*
X1542808D1*
X1538497Y982521D1*
X1535645Y981095D1*
X1532760Y978210D1*
X1531334Y973899D1*
Y963851D1*
X1561478Y1007569D2*
X1531367D1*
X1551430Y993210D1*
Y1014732D1*
X1656333Y647767D2*
X1679281Y647766D1*
X1683592Y646341D1*
X1685018Y644881D1*
X1686477Y642029D1*
Y639144D1*
X1685018Y636293D1*
X1683592Y634867D1*
X1679281Y633407D1*
X1676429D1*
X1663529Y658489D2*
X1662103D1*
X1659218Y659915D1*
X1657792Y661341D1*
X1656366Y664226D1*
Y669963D1*
X1657792Y672815D1*
X1659218Y674241D1*
X1662103Y675700D1*
X1664955D1*
X1667840Y674241D1*
X1672118Y671389D1*
X1686477Y657030D1*
Y677126D1*
X1661516Y2317950D2*
Y2295002D1*
X1660090Y2290691D1*
X1658631Y2289265D1*
X1655779Y2287806D1*
X1652894D1*
X1650042Y2289265D1*
X1648616Y2290691D1*
X1647157Y2295002D1*
Y2297854D1*
X1673664Y2317917D2*
X1689416D1*
X1680827Y2306443D1*
X1685138D1*
X1687990Y2305017D1*
X1689416Y2303591D1*
X1690875Y2299280D1*
Y2296428D1*
X1689416Y2292117D1*
X1686564Y2289232D1*
X1682253Y2287806D1*
X1677942D1*
X1673664Y2289232D1*
X1672238Y2290691D1*
X1670779Y2293543D1*
X1737231Y1772941D2*
Y1749993D1*
X1735805Y1745682D1*
X1734346Y1744256D1*
X1731494Y1742797D1*
X1728609D1*
X1725757Y1744256D1*
X1724331Y1745682D1*
X1722872Y1749993D1*
Y1752845D1*
X1760853Y1742797D2*
Y1772907D1*
X1746494Y1752845D1*
X1768016D1*
X1652444Y715256D2*
X1675392D1*
X1679703Y713830D1*
X1681129Y712371D1*
X1682588Y709519D1*
Y706634D1*
X1681129Y703782D1*
X1679703Y702356D1*
X1675392Y700897D1*
X1672540D1*
X1652478Y741730D2*
Y727405D1*
X1665377Y725979D1*
X1663952Y727405D1*
X1662492Y731716D1*
Y735993D1*
X1663952Y740304D1*
X1666803Y743190D1*
X1671114Y744615D1*
X1673966D1*
X1678277Y743190D1*
X1681162Y740304D1*
X1682588Y735993D1*
Y731716D1*
X1681162Y727405D1*
X1679703Y725979D1*
X1676851Y724519D1*
X1356265Y1210786D2*
Y1180642D1*
X1373476D1*
X1382739Y1205016D2*
X1385624Y1206475D1*
X1389935Y1210753D1*
Y1180642D1*
X1662582Y2161478D2*
X1692726D1*
Y2178688D1*
X1669778Y2189411D2*
X1668352D1*
X1665467Y2190837D1*
X1664041Y2192263D1*
X1662615Y2195148D1*
Y2200885D1*
X1664041Y2203737D1*
X1665467Y2205163D1*
X1668352Y2206622D1*
X1671204D1*
X1674089Y2205163D1*
X1678367Y2202311D1*
X1692726Y2187952D1*
Y2208048D1*
X1049343Y808634D2*
X1079487D1*
Y825845D1*
X1056506Y856630D2*
X1053654Y855204D1*
X1050769Y852319D1*
X1049343Y849467D1*
Y843730D1*
X1050769Y840845D1*
X1053654Y837993D1*
X1056506Y836534D1*
X1060817Y835108D1*
X1068013D1*
X1072291Y836534D1*
X1075176Y837993D1*
X1078028Y840845D1*
X1079487Y843730D1*
Y849467D1*
X1078028Y852319D1*
X1075176Y855204D1*
X1072291Y856630D1*
X1049343Y865894D2*
X1079487D1*
X1049343Y885990D2*
X1079487D1*
X1063702Y865894D2*
Y885990D1*
X1049343Y903875D2*
X1050769Y900990D1*
X1053654Y898138D1*
X1056506Y896679D1*
X1060817Y895253D1*
X1068013D1*
X1072291Y896679D1*
X1075176Y898138D1*
X1078028Y900990D1*
X1079487Y903875D1*
Y909612D1*
X1078028Y912464D1*
X1075176Y915349D1*
X1072291Y916775D1*
X1068013Y918201D1*
X1060817D1*
X1056506Y916775D1*
X1053654Y915349D1*
X1050769Y912464D1*
X1049343Y909612D1*
Y903875D1*
Y927465D2*
X1079487D1*
X1049343Y947561D2*
X1069439Y927465D1*
X1062243Y934628D2*
X1079487Y947561D1*
X1049343Y975461D2*
Y956824D1*
X1079487D1*
Y975461D1*
X1063702Y956824D2*
Y968298D1*
X1210137Y840656D2*
Y810512D1*
X1227348D1*
X1259559D2*
Y840656D1*
X1248085Y810512D1*
X1236611Y840656D1*
Y810512D1*
X1277445Y840623D2*
X1273134Y839197D1*
X1270249Y834886D1*
X1268823Y827723D1*
Y823412D1*
X1270249Y816249D1*
X1273134Y811938D1*
X1277445Y810512D1*
X1280297D1*
X1284608Y811938D1*
X1287460Y816249D1*
X1288919Y823412D1*
Y827723D1*
X1287460Y834886D1*
X1284608Y839197D1*
X1280297Y840623D1*
X1277445D1*
X1287460Y834886D2*
X1270249Y816249D1*
X1380595Y815356D2*
X1410739D1*
Y832567D1*
Y864778D2*
X1380595D1*
X1410739Y853304D1*
X1380595Y841830D1*
X1410739D1*
X1386365Y874042D2*
X1384906Y876927D1*
X1380628Y881238D1*
X1410739D1*
X1385137Y628157D2*
Y598013D1*
X1402348D1*
X1434559D2*
Y628157D1*
X1423085Y598013D1*
X1411611Y628157D1*
Y598013D1*
X1445282Y620961D2*
Y622387D1*
X1446708Y625272D1*
X1448134Y626698D1*
X1451019Y628124D1*
X1456756D1*
X1459608Y626698D1*
X1461034Y625272D1*
X1462493Y622387D1*
Y619535D1*
X1461034Y616650D1*
X1458182Y612372D1*
X1443823Y598013D1*
X1463919D1*
X1498376Y543166D2*
Y513022D1*
X1515587D1*
X1547798D2*
Y543166D1*
X1536324Y513022D1*
X1524850Y543166D1*
Y513022D1*
X1559947Y543133D2*
X1575699D1*
X1567110Y531659D1*
X1571421D1*
X1574273Y530233D1*
X1575699Y528807D1*
X1577158Y524496D1*
Y521644D1*
X1575699Y517333D1*
X1572847Y514448D1*
X1568536Y513022D1*
X1564225D1*
X1559947Y514448D1*
X1558521Y515907D1*
X1557062Y518759D1*
X1055594Y629283D2*
X1085738D1*
Y646494D1*
X1069953Y655758D2*
Y668658D1*
X1068494Y672969D1*
X1067068Y674428D1*
X1064216Y675854D1*
X1061331D1*
X1058479Y674428D1*
X1057020Y672969D1*
X1055594Y668658D1*
Y655758D1*
X1085738D1*
X1069953Y665806D2*
X1085738Y675854D1*
X1061364Y685117D2*
X1059905Y688002D1*
X1055627Y692313D1*
X1085738D1*
X1199343Y579084D2*
X1229487D1*
Y596295D1*
X1213702Y605558D2*
Y618458D1*
X1212243Y622769D1*
X1210817Y624228D1*
X1207965Y625654D1*
X1205080D1*
X1202228Y624228D1*
X1200769Y622769D1*
X1199343Y618458D1*
Y605558D1*
X1229487D1*
X1213702Y615606D2*
X1229487Y625654D1*
X1206539Y636377D2*
X1205114D1*
X1202228Y637803D1*
X1200802Y639229D1*
X1199377Y642114D1*
Y647851D1*
X1200802Y650703D1*
X1202228Y652129D1*
X1205113Y653588D1*
X1207965D1*
X1210850Y652129D1*
X1215128Y649277D1*
X1229487Y634918D1*
Y655014D1*
X536870Y542920D2*
X534019Y541527D1*
X531133Y538642D1*
X529708Y535757D1*
X528248Y531446D1*
Y524283D1*
X529708Y519972D1*
X531133Y517120D1*
X534019Y514235D1*
X536870Y512809D1*
X542607D1*
X545492Y514235D1*
X548344Y517120D1*
X549770Y519972D1*
X551229Y524283D1*
Y531446D1*
X549770Y535757D1*
X548344Y538642D1*
X545492Y541527D1*
X542607Y542920D1*
X536870D1*
X541181Y518546D2*
X549770Y509924D1*
X560493Y537150D2*
X563378Y538609D1*
X567689Y542887D1*
Y512776D1*
X991044Y620048D2*
X1003944D1*
X1008255Y621507D1*
X1009714Y622933D1*
X1011140Y625784D1*
Y628670D1*
X1009714Y631521D1*
X1008255Y632981D1*
X1003944Y634407D1*
X991044D1*
Y604263D1*
X1001092Y620048D2*
X1011140Y604263D1*
X1020404Y628636D2*
X1023289Y630096D1*
X1027600Y634373D1*
Y604263D1*
X990006Y455383D2*
X1002906D1*
X1007217Y456843D1*
X1008676Y458269D1*
X1010102Y461120D1*
Y464006D1*
X1008676Y466857D1*
X1007217Y468317D1*
X1002906Y469742D1*
X990006D1*
Y439598D1*
X1000054Y455383D2*
X1010102Y439598D1*
X1020825Y462546D2*
Y463972D1*
X1022251Y466857D1*
X1023677Y468283D1*
X1026562Y469709D1*
X1032299D1*
X1035151Y468283D1*
X1036577Y466857D1*
X1038036Y463972D1*
Y461120D1*
X1036577Y458235D1*
X1033725Y453958D1*
X1019366Y439598D1*
X1039462D1*
X1523972Y1217883D2*
X1536872D1*
X1541183Y1219343D1*
X1542642Y1220769D1*
X1544068Y1223620D1*
Y1226506D1*
X1542642Y1229357D1*
X1541183Y1230817D1*
X1536872Y1232242D1*
X1523972D1*
Y1202098D1*
X1534020Y1217883D2*
X1544068Y1202098D1*
X1556217Y1232209D2*
X1571968D1*
X1563380Y1220735D1*
X1567691D1*
X1570542Y1219309D1*
X1571968Y1217883D1*
X1573428Y1213572D1*
Y1210721D1*
X1571968Y1206410D1*
X1569116Y1203524D1*
X1564805Y1202098D1*
X1560494D1*
X1556217Y1203524D1*
X1554791Y1204984D1*
X1553332Y1207835D1*
X1522120Y1447558D2*
X1535020D1*
X1539331Y1449017D1*
X1540790Y1450443D1*
X1542216Y1453295D1*
Y1456180D1*
X1540790Y1459032D1*
X1539331Y1460491D1*
X1535020Y1461917D1*
X1522120D1*
Y1431773D1*
X1532168Y1447558D2*
X1542216Y1431773D1*
X1565838D2*
Y1461884D1*
X1551479Y1441821D1*
X1573001D1*
X1676941Y2060872D2*
Y2073772D1*
X1675482Y2078083D1*
X1674056Y2079542D1*
X1671204Y2080968D1*
X1668319D1*
X1665467Y2079542D1*
X1664008Y2078083D1*
X1662582Y2073772D1*
Y2060872D1*
X1692726D1*
X1676941Y2070920D2*
X1692726Y2080968D1*
X1662615Y2107443D2*
Y2093117D1*
X1675515Y2091691D1*
X1674089Y2093117D1*
X1672630Y2097428D1*
Y2101706D1*
X1674089Y2106017D1*
X1676941Y2108902D1*
X1681252Y2110328D1*
X1684104D1*
X1688415Y2108902D1*
X1691300Y2106017D1*
X1692726Y2101706D1*
Y2097428D1*
X1691300Y2093117D1*
X1689841Y2091691D1*
X1686989Y2090232D1*
X918444Y1605383D2*
X931344D1*
X935655Y1606843D1*
X937114Y1608269D1*
X938540Y1611120D1*
Y1614006D1*
X937114Y1616857D1*
X935655Y1618317D1*
X931344Y1619742D1*
X918444D1*
Y1589598D1*
X928492Y1605383D2*
X938540Y1589598D1*
X965015Y1615431D2*
X963589Y1618283D1*
X959278Y1619709D1*
X956426D1*
X952115Y1618283D1*
X949230Y1613972D1*
X947804Y1606809D1*
Y1599646D1*
X949230Y1593910D1*
X952115Y1591024D1*
X956426Y1589598D1*
X957852D1*
X962130Y1591024D1*
X965015Y1593910D1*
X966441Y1598221D1*
Y1599646D1*
X965015Y1603958D1*
X962130Y1606809D1*
X957852Y1608235D1*
X956426D1*
X952115Y1606809D1*
X949230Y1603958D1*
X947804Y1599646D1*
X930213Y1542881D2*
X943113D1*
X947424Y1544340D1*
X948883Y1545766D1*
X950309Y1548618D1*
Y1551503D1*
X948883Y1554355D1*
X947424Y1555814D1*
X943113Y1557240D1*
X930213D1*
Y1527096D1*
X940261Y1542881D2*
X950309Y1527096D1*
X965310D2*
X979669Y1557207D1*
X959573D1*
X1620692Y1638598D2*
Y1651497D1*
X1619233Y1655808D1*
X1617807Y1657268D1*
X1614955Y1658694D1*
X1612070D1*
X1609218Y1657268D1*
X1607759Y1655808D1*
X1606333Y1651497D1*
Y1638598D1*
X1636477D1*
X1620692Y1648646D2*
X1636477Y1658693D1*
X1606366Y1675120D2*
X1607792Y1670842D1*
X1610644Y1669383D1*
X1613529D1*
X1616381Y1670842D1*
X1617840Y1673694D1*
X1619266Y1679431D1*
X1620692Y1683742D1*
X1623577Y1686594D1*
X1626429Y1688020D1*
X1630740D1*
X1633592Y1686594D1*
X1635051Y1685168D1*
X1636477Y1680857D1*
Y1675120D1*
X1635051Y1670842D1*
X1633592Y1669383D1*
X1630740Y1667957D1*
X1626429D1*
X1623577Y1669383D1*
X1620692Y1672268D1*
X1619266Y1676546D1*
X1617840Y1682283D1*
X1616381Y1685168D1*
X1613529Y1686594D1*
X1610644D1*
X1607792Y1685168D1*
X1606366Y1680857D1*
Y1675120D1*
X1689445Y1645534D2*
Y1658434D1*
X1687986Y1662745D1*
X1686560Y1664204D1*
X1683708Y1665630D1*
X1680823D1*
X1677971Y1664204D1*
X1676512Y1662745D1*
X1675086Y1658434D1*
Y1645534D1*
X1705230D1*
X1689445Y1655582D2*
X1705230Y1665630D1*
X1685134Y1693564D2*
X1689445Y1692105D1*
X1692330Y1689253D1*
X1693756Y1684942D1*
Y1683516D1*
X1692330Y1679205D1*
X1689445Y1676353D1*
X1685134Y1674894D1*
X1683708D1*
X1679397Y1676353D1*
X1676545Y1679205D1*
X1675119Y1683516D1*
Y1684942D1*
X1676545Y1689253D1*
X1679397Y1692105D1*
X1685134Y1693564D1*
X1692330D1*
X1699493Y1692105D1*
X1703804Y1689253D1*
X1705230Y1684942D1*
Y1682090D1*
X1703804Y1677779D1*
X1700919Y1676353D1*
X627098Y1195135D2*
Y1173613D1*
X628524Y1169302D1*
X631409Y1166450D1*
X635720Y1164991D1*
X638572D1*
X642883Y1166450D1*
X645768Y1169302D1*
X647194Y1173613D1*
Y1195135D1*
X656457Y1189365D2*
X659342Y1190824D1*
X663653Y1195102D1*
Y1164991D1*
X971391Y1999308D2*
X992913D1*
X997224Y2000734D1*
X1000075Y2003619D1*
X1001535Y2007930D1*
Y2010782D1*
X1000076Y2015093D1*
X997224Y2017978D1*
X992913Y2019404D1*
X971391D1*
X978587Y2030127D2*
X977161D1*
X974276Y2031553D1*
X972850Y2032979D1*
X971424Y2035864D1*
Y2041601D1*
X972850Y2044452D1*
X974276Y2045878D1*
X977161Y2047338D1*
X980013D1*
X982898Y2045878D1*
X987176Y2043027D1*
X1001535Y2028667D1*
Y2048763D1*
X923717Y893954D2*
Y872432D1*
X925143Y868121D1*
X928028Y865269D1*
X932339Y863810D1*
X935191D1*
X939502Y865269D1*
X942387Y868121D1*
X943813Y872432D1*
Y893954D1*
X955962Y893921D2*
X971714D1*
X963125Y882447D1*
X967436D1*
X970288Y881021D1*
X971714Y879595D1*
X973173Y875284D1*
Y872432D1*
X971714Y868121D1*
X968862Y865236D1*
X964551Y863810D1*
X960240D1*
X955962Y865236D1*
X954536Y866695D1*
X953077Y869547D1*
X1271873Y1597758D2*
Y1576236D1*
X1273299Y1571925D1*
X1276184Y1569073D1*
X1280495Y1567614D1*
X1283347D1*
X1287658Y1569073D1*
X1290543Y1571925D1*
X1291969Y1576236D1*
Y1597758D1*
X1315592Y1567614D2*
Y1597725D1*
X1301233Y1577662D1*
X1322755D1*
X476374Y1632836D2*
Y1611314D1*
X477799Y1607003D1*
X480685Y1604151D1*
X484996Y1602692D1*
X487847D1*
X492159Y1604151D1*
X495044Y1607003D1*
X496470Y1611314D1*
Y1632836D1*
X522944Y1632803D2*
X508618D1*
X507192Y1619903D1*
X508618Y1621329D1*
X512929Y1622788D1*
X517207D1*
X521518Y1621329D1*
X524403Y1618477D1*
X525829Y1614166D1*
Y1611314D1*
X524403Y1607003D1*
X521518Y1604118D1*
X517207Y1602692D1*
X512929D1*
X508618Y1604118D1*
X507192Y1605577D1*
X505733Y1608429D1*
X1287931Y630686D2*
Y609164D1*
X1289357Y604853D1*
X1292242Y602001D1*
X1296553Y600542D1*
X1299405D1*
X1303716Y602001D1*
X1306601Y604853D1*
X1308027Y609164D1*
Y630686D1*
X1334502Y626375D2*
X1333076Y629227D1*
X1328765Y630653D1*
X1325913D1*
X1321602Y629227D1*
X1318717Y624916D1*
X1317291Y617753D1*
Y610590D1*
X1318717Y604853D1*
X1321602Y601968D1*
X1325913Y600542D1*
X1327339D1*
X1331617Y601968D1*
X1334502Y604853D1*
X1335928Y609164D1*
Y610590D1*
X1334502Y614901D1*
X1331617Y617753D1*
X1327339Y619179D1*
X1325913D1*
X1321602Y617753D1*
X1318717Y614901D1*
X1317291Y610590D1*
X743655Y475597D2*
X763751Y445453D1*
Y475597D2*
X743655Y445453D1*
X781636Y475597D2*
X778751Y474171D1*
X775899Y471286D1*
X774440Y468434D1*
X773014Y464123D1*
Y456927D1*
X774440Y452649D1*
X775899Y449764D1*
X778751Y446912D1*
X781636Y445453D1*
X787373D1*
X790225Y446912D1*
X793110Y449764D1*
X794536Y452649D1*
X795962Y456927D1*
Y464123D1*
X794536Y468434D1*
X793110Y471286D1*
X790225Y474171D1*
X787373Y475597D1*
X781636D1*
X805226Y469827D2*
X808111Y471286D1*
X812422Y475564D1*
Y445453D1*
X1714078Y1299714D2*
D136*
X1754270D1*
Y1322662D1*
X1714078Y1346510D2*
X1715979Y1342663D1*
X1719826Y1338860D1*
X1723628Y1336915D1*
X1729376Y1335013D1*
X1738971D1*
X1744675Y1336915D1*
X1748522Y1338860D1*
X1752324Y1342663D1*
X1754270Y1346509D1*
Y1354159D1*
X1752324Y1357961D1*
X1748522Y1361808D1*
X1744675Y1363709D1*
X1738971Y1365611D1*
X1729376D1*
X1723628Y1363709D1*
X1719826Y1361808D1*
X1715979Y1357961D1*
X1714078Y1354159D1*
Y1346510D1*
X1723628Y1406658D2*
X1719826Y1404757D1*
X1715979Y1400910D1*
X1714078Y1397107D1*
Y1389458D1*
X1715979Y1385611D1*
X1719826Y1381809D1*
X1723628Y1379863D1*
X1729376Y1377962D1*
X1738971D1*
X1744675Y1379863D1*
X1748522Y1381809D1*
X1752324Y1385611D1*
X1754270Y1389458D1*
Y1397107D1*
X1752324Y1400910D1*
X1748522Y1404757D1*
X1744675Y1406658D1*
X1714078Y1419009D2*
X1754270D1*
X1714078Y1445804D2*
X1740872Y1419009D1*
X1731278Y1428560D2*
X1754270Y1445804D1*
X1714570Y1100514D2*
X1710723Y1096712D1*
X1708822Y1090964D1*
Y1083314D1*
X1710723Y1077566D1*
X1714570Y1073719D1*
X1718372D1*
X1722219Y1075665D1*
X1724120Y1077566D1*
X1726022Y1081369D1*
X1729868Y1092865D1*
X1731770Y1096712D1*
X1733715Y1098613D1*
X1737518Y1100514D1*
X1743266D1*
X1747068Y1096712D1*
X1749014Y1090963D1*
Y1083314D1*
X1747068Y1077566D1*
X1743266Y1073719D1*
X1708822Y1126263D2*
X1749014D1*
X1708822Y1112865D2*
Y1139660D1*
X1749014Y1182653D2*
X1708822Y1167310D1*
X1749014Y1152011D1*
X1735617Y1157760D2*
Y1176905D1*
X1708822Y1208402D2*
X1749014D1*
X1708822Y1195004D2*
Y1221799D1*
X422174Y1873615D2*
X418372Y1871714D1*
X414525Y1867867D1*
X412624Y1864064D1*
Y1856415D1*
X414525Y1852568D1*
X418372Y1848766D1*
X422174Y1846820D1*
X427922Y1844919D1*
X437517D1*
X443221Y1846820D1*
X447068Y1848766D1*
X450870Y1852568D1*
X452816Y1856415D1*
Y1864064D1*
X450870Y1867867D1*
X447068Y1871714D1*
X443221Y1873615D1*
X431769Y1885966D2*
Y1903166D1*
X429824Y1908914D1*
X427922Y1910860D1*
X424120Y1912761D1*
X420273D1*
X416470Y1910860D1*
X414525Y1908914D1*
X412624Y1903166D1*
Y1885966D1*
X452816D1*
X431769Y1899364D2*
X452816Y1912761D1*
X420317Y1925112D2*
X418372Y1928959D1*
X412668Y1934707D1*
X452816D1*
X422218Y1949004D2*
X420317D1*
X416470Y1950905D1*
X414569Y1952806D1*
X412668Y1956653D1*
Y1964303D1*
X414569Y1968105D1*
X416470Y1970006D1*
X420317Y1971952D1*
X424120D1*
X427966Y1970006D1*
X433670Y1966204D1*
X452816Y1947058D1*
Y1973853D1*
X422218Y1988150D2*
X420317D1*
X416470Y1990051D1*
X414569Y1991953D1*
X412668Y1995799D1*
Y2003449D1*
X414569Y2007251D1*
X416470Y2009152D1*
X420317Y2011098D1*
X424120D1*
X427966Y2009152D1*
X433670Y2005350D1*
X452816Y1986204D1*
Y2012999D1*
X412668Y2036847D2*
X414569Y2031099D1*
X420317Y2027252D1*
X429868Y2025351D1*
X435616D1*
X445166Y2027252D1*
X450914Y2031099D1*
X452816Y2036847D1*
Y2040649D1*
X450914Y2046397D1*
X445166Y2050200D1*
X435616Y2052145D1*
X429868D1*
X420317Y2050200D1*
X414569Y2046397D1*
X412668Y2040649D1*
Y2036847D1*
X420317Y2050200D2*
X445166Y2027252D1*
X1680191Y836833D2*
D135*
Y849733D1*
X1678732Y854044D1*
X1677306Y855503D1*
X1674454Y856929D1*
X1671569D1*
X1668717Y855503D1*
X1667258Y854044D1*
X1665832Y849733D1*
Y836833D1*
X1695976D1*
X1680191Y846881D2*
X1695976Y856929D1*
X1665832Y866193D2*
X1695976D1*
Y879126D1*
X1694517Y883437D1*
X1693091Y884863D1*
X1690239Y886289D1*
X1685928D1*
X1683043Y884863D1*
X1681617Y883437D1*
X1680191Y879126D1*
X1678732Y883437D1*
X1677306Y884863D1*
X1674454Y886289D1*
X1671569D1*
X1668717Y884863D1*
X1667258Y883437D1*
X1665832Y879126D1*
Y866193D1*
X1680191D2*
Y879126D1*
X1665832Y914222D2*
Y895552D1*
X1695976D1*
X1680191D2*
Y907026D1*
X1617278Y1841706D2*
D136*
X1615332Y1845553D1*
X1609629Y1851301D1*
X1649776D1*
X1629702Y1863652D2*
Y1885760D1*
X1609629Y1921060D2*
Y1901958D1*
X1626828Y1900057D1*
X1624927Y1901958D1*
X1622982Y1907706D1*
Y1913410D1*
X1624927Y1919158D1*
X1628730Y1923005D1*
X1634478Y1924906D1*
X1638280D1*
X1644028Y1923005D1*
X1647875Y1919158D1*
X1649776Y1913410D1*
Y1907706D1*
X1647875Y1901958D1*
X1645930Y1900057D1*
X1642127Y1898112D1*
X1609584Y1937258D2*
X1649776Y1952556D1*
X1609584Y1967855D1*
X1678988Y1867398D2*
X1713432D1*
X1696232Y1850198D2*
Y1884642D1*
X1696210Y1935875D2*
Y1957982D1*
M02*
