G04 DipTrace 3.2.0.0*
G04 LFTlayout-TopMask.gts*
%MOIN*%
G04 #@! TF.FileFunction,Soldermask,Top*
G04 #@! TF.Part,Single*
%AMOUTLINE1*
4,1,5,
-0.017764,0.017764,
0.017764,0.017764,
0.017764,-0.017764,
-0.008132,-0.017764,
-0.017764,-0.008132,
-0.017764,0.017764,
0*%
%ADD22C,0.393701*%
%ADD24R,0.156X0.156*%
%ADD25R,0.125X0.125*%
%ADD35R,0.16X0.06*%
%ADD36C,0.057*%
%ADD37C,0.064*%
%ADD69R,0.049307X0.057181*%
%ADD71R,0.026079X0.013874*%
%ADD73R,0.026079X0.017811*%
%ADD75R,0.013874X0.026079*%
%ADD77R,0.017811X0.026079*%
%ADD79R,0.04537X0.04537*%
%ADD81R,0.099701X0.070961*%
%ADD83R,0.108362X0.108362*%
%ADD85R,0.017811X0.035528*%
%ADD87R,0.035528X0.017811*%
%ADD89R,0.076866X0.037496*%
%ADD91R,0.112299X0.112299*%
%ADD93O,0.017811X0.039465*%
%ADD95O,0.039465X0.017811*%
%ADD99R,0.031591X0.047339*%
%ADD101C,0.226*%
%ADD103R,0.047339X0.151669*%
%ADD115C,0.072929*%
%ADD117R,0.072929X0.072929*%
%ADD119R,0.068992X0.037496*%
%ADD121R,0.049307X0.04537*%
%ADD123R,0.037496X0.041433*%
%ADD125R,0.057181X0.065055*%
%ADD127R,0.065055X0.057181*%
%ADD129R,0.041433X0.037496*%
%ADD139OUTLINE1*%
%FSLAX26Y26*%
G04*
G70*
G90*
G75*
G01*
G04 TopMask*
%LPD*%
D24*
X693854Y1950265D3*
D25*
Y1640265D3*
Y2260265D3*
D129*
X896822Y550464D3*
Y607550D3*
X662028Y579006D3*
Y521919D3*
D127*
X1419016Y1444017D3*
Y1518820D3*
D125*
X1219016Y1344017D3*
X1144213D3*
X1219016Y1256517D3*
X1144213D3*
X719016Y831516D3*
X644213D3*
D129*
X737765Y950265D3*
Y893179D3*
X930778Y916507D3*
Y973593D3*
X987028Y916507D3*
Y973593D3*
X1174528Y891507D3*
Y948593D3*
X1243278Y891507D3*
Y948593D3*
X981516Y1750265D3*
Y1693179D3*
D123*
X531516Y1406516D3*
X474429D3*
D129*
X1200265Y1412768D3*
Y1469855D3*
X1330777Y781712D3*
Y838798D3*
X1455778Y725462D3*
Y782549D3*
X1444016Y569016D3*
Y511929D3*
X1619016Y569016D3*
Y511929D3*
D123*
X1220985Y679006D3*
X1278071D3*
X1120985Y579007D3*
X1178071D3*
X1108485Y779006D3*
X1165571D3*
D121*
X1600267Y1144016D3*
X1667196D3*
X1600267Y1375267D3*
X1667196D3*
D119*
X1606516Y700267D3*
Y834125D3*
Y1031516D3*
Y897658D3*
D117*
X1819016Y1119016D3*
D115*
Y1219016D3*
Y1319016D3*
Y1419016D3*
Y1519016D3*
Y1619016D3*
Y1719016D3*
D35*
X1794016Y469016D3*
Y569016D3*
Y669016D3*
Y2094016D3*
Y2194016D3*
Y2294016D3*
D36*
X1769016Y1944016D3*
Y1865276D3*
D37*
X1744016Y956516D3*
Y877776D3*
Y799036D3*
D103*
X1425265Y1300267D3*
X1320935D3*
D129*
X1631516Y2212765D3*
Y2155679D3*
X1112028Y837964D3*
Y895050D3*
D123*
X1220985Y779006D3*
X1278071D3*
D129*
X1380778Y782549D3*
Y725462D3*
D123*
X1453071Y654007D3*
X1395985D3*
X1502973Y569016D3*
X1560059D3*
D129*
X1112028Y682550D3*
Y625464D3*
X1174528Y682550D3*
Y625464D3*
D101*
X748347Y1358583D3*
D99*
X512765Y575265D3*
X587568D3*
X550167Y665817D3*
D123*
X980778Y572756D3*
X1037865D3*
X981516Y500267D3*
X1038603D3*
X1602973Y1212767D3*
X1660059D3*
X1600267Y1444016D3*
X1657353D3*
D129*
X1631516Y2056516D3*
Y2113603D3*
D123*
X834223Y1606516D3*
X891310D3*
X834222Y1544016D3*
X891309D3*
D129*
X1619016Y1552974D3*
Y1610061D3*
X1687765Y1610059D3*
Y1552973D3*
D95*
X712765Y1006516D3*
Y1026201D3*
Y1045886D3*
Y1065571D3*
Y1085256D3*
Y1104941D3*
D93*
X683238Y1134469D3*
X663553D3*
X643868D3*
X624183D3*
X604498D3*
X584813D3*
D95*
X555285Y1104941D3*
Y1085256D3*
Y1065571D3*
Y1045886D3*
Y1026201D3*
Y1006516D3*
D93*
X584813Y976988D3*
X604498D3*
X624183D3*
X643868D3*
X663553D3*
X683238D3*
D91*
X634025Y1055729D3*
D89*
X1531516Y1706516D3*
Y1749823D3*
Y1793130D3*
Y1836437D3*
Y1879744D3*
Y1923051D3*
Y1966359D3*
Y2084469D3*
Y2127776D3*
Y2171083D3*
Y2214390D3*
Y2257697D3*
X1059075D3*
Y2214390D3*
Y2171083D3*
Y2127776D3*
Y2084469D3*
Y1966359D3*
Y1923051D3*
Y1879744D3*
Y1836437D3*
Y1793130D3*
Y1749823D3*
Y1706516D3*
D87*
X1022756Y717146D3*
Y736831D3*
Y756516D3*
Y776201D3*
Y795886D3*
D85*
X983386Y835256D3*
X963701D3*
X944016D3*
X924331D3*
X904646D3*
D87*
X865276Y795886D3*
Y776201D3*
Y756516D3*
Y736831D3*
Y717146D3*
D85*
X904646Y677776D3*
X924331D3*
X944016D3*
X963701D3*
X983386D3*
D83*
X944016Y756516D3*
D93*
X1260895Y1422659D3*
X1280580D3*
X1300265D3*
X1319950D3*
X1339635D3*
Y1540374D3*
X1319950D3*
X1300265D3*
X1280580D3*
X1260895D3*
D81*
X1300265Y1481320D3*
D79*
X540471Y1484226D3*
Y1562966D3*
X461731D3*
Y1484226D3*
D77*
X1300267Y494016D3*
D75*
X1318180D3*
D77*
X1336093D3*
D73*
X1359519Y517441D3*
D71*
Y535355D3*
D73*
Y553268D3*
D77*
X1336093Y576693D3*
D75*
X1318160Y576713D3*
D77*
X1300267Y576693D3*
D73*
X1276841Y553268D3*
D71*
Y535355D3*
D73*
Y517441D3*
D139*
X1318180Y535355D3*
D69*
X745886Y615324D3*
Y532647D3*
X810847D3*
Y615324D3*
D22*
X693756Y1947019D3*
M02*
